G04 EAGLE Gerber X2 export*
%TF.Part,Single*%
%TF.FileFunction,Copper,L2,Bot,Mixed*%
%TF.FilePolarity,Positive*%
%TF.GenerationSoftware,Autodesk,EAGLE,8.6.3*%
%TF.CreationDate,2019-07-12T16:31:33Z*%
G75*
%MOMM*%
%FSLAX34Y34*%
%LPD*%
%AMOC8*
5,1,8,0,0,1.08239X$1,22.5*%
G01*
%ADD10P,3.030692X8X22.500000*%
%ADD11C,2.247900*%
%ADD12C,2.184400*%
%ADD13P,2.364373X8X292.500000*%
%ADD14P,2.089446X8X112.500000*%
%ADD15C,1.930400*%
%ADD16C,1.308000*%
%ADD17C,1.422400*%
%ADD18C,1.524000*%
%ADD19C,2.095500*%
%ADD20C,1.676400*%
%ADD21P,1.924489X8X202.500000*%
%ADD22C,5.842000*%
%ADD23C,0.756400*%
%ADD24C,0.406400*%
%ADD25C,0.609600*%
%ADD26C,1.270000*%
%ADD27C,1.300000*%
%ADD28C,0.304800*%
%ADD29C,0.812800*%

G36*
X555994Y3057D02*
X555994Y3057D01*
X556052Y3055D01*
X556134Y3077D01*
X556218Y3089D01*
X556271Y3112D01*
X556327Y3127D01*
X556400Y3170D01*
X556477Y3205D01*
X556522Y3243D01*
X556572Y3272D01*
X556630Y3334D01*
X556694Y3388D01*
X556726Y3437D01*
X556766Y3480D01*
X556805Y3555D01*
X556852Y3625D01*
X556869Y3681D01*
X556896Y3733D01*
X556907Y3801D01*
X556937Y3896D01*
X556940Y3996D01*
X556951Y4064D01*
X556951Y770936D01*
X556943Y770994D01*
X556945Y771052D01*
X556923Y771134D01*
X556911Y771218D01*
X556888Y771271D01*
X556873Y771327D01*
X556830Y771400D01*
X556795Y771477D01*
X556757Y771522D01*
X556728Y771572D01*
X556666Y771630D01*
X556612Y771694D01*
X556563Y771726D01*
X556520Y771766D01*
X556445Y771805D01*
X556375Y771852D01*
X556319Y771869D01*
X556267Y771896D01*
X556199Y771907D01*
X556104Y771937D01*
X556004Y771940D01*
X555936Y771951D01*
X4064Y771951D01*
X4006Y771943D01*
X3948Y771945D01*
X3866Y771923D01*
X3782Y771911D01*
X3729Y771888D01*
X3673Y771873D01*
X3600Y771830D01*
X3523Y771795D01*
X3478Y771757D01*
X3428Y771728D01*
X3370Y771666D01*
X3306Y771612D01*
X3274Y771563D01*
X3234Y771520D01*
X3195Y771445D01*
X3148Y771375D01*
X3131Y771319D01*
X3104Y771267D01*
X3093Y771199D01*
X3063Y771104D01*
X3060Y771004D01*
X3049Y770936D01*
X3049Y4064D01*
X3057Y4006D01*
X3055Y3948D01*
X3077Y3866D01*
X3089Y3782D01*
X3112Y3729D01*
X3127Y3673D01*
X3170Y3600D01*
X3205Y3523D01*
X3243Y3478D01*
X3272Y3428D01*
X3334Y3370D01*
X3388Y3306D01*
X3437Y3274D01*
X3480Y3234D01*
X3555Y3195D01*
X3625Y3148D01*
X3681Y3131D01*
X3733Y3104D01*
X3801Y3093D01*
X3896Y3063D01*
X3996Y3060D01*
X4064Y3049D01*
X555936Y3049D01*
X555994Y3057D01*
G37*
%LPC*%
G36*
X18867Y376999D02*
X18867Y376999D01*
X11874Y383992D01*
X11874Y393883D01*
X18911Y400920D01*
X18946Y400966D01*
X18988Y401007D01*
X19031Y401079D01*
X19082Y401147D01*
X19102Y401201D01*
X19132Y401252D01*
X19153Y401334D01*
X19183Y401412D01*
X19188Y401471D01*
X19202Y401527D01*
X19199Y401612D01*
X19206Y401696D01*
X19195Y401753D01*
X19193Y401812D01*
X19167Y401892D01*
X19151Y401974D01*
X19124Y402026D01*
X19106Y402082D01*
X19065Y402138D01*
X19020Y402227D01*
X18951Y402299D01*
X18911Y402355D01*
X11874Y409392D01*
X11874Y419283D01*
X18911Y426320D01*
X18946Y426366D01*
X18988Y426407D01*
X19031Y426479D01*
X19082Y426547D01*
X19102Y426601D01*
X19132Y426652D01*
X19153Y426734D01*
X19183Y426812D01*
X19188Y426871D01*
X19202Y426927D01*
X19199Y427012D01*
X19206Y427096D01*
X19195Y427153D01*
X19193Y427212D01*
X19167Y427292D01*
X19151Y427374D01*
X19124Y427426D01*
X19106Y427482D01*
X19065Y427538D01*
X19020Y427627D01*
X18951Y427699D01*
X18911Y427755D01*
X11874Y434792D01*
X11874Y444683D01*
X18911Y451720D01*
X18946Y451766D01*
X18988Y451807D01*
X19031Y451879D01*
X19082Y451947D01*
X19102Y452001D01*
X19132Y452052D01*
X19153Y452134D01*
X19183Y452212D01*
X19188Y452271D01*
X19202Y452327D01*
X19199Y452412D01*
X19206Y452496D01*
X19195Y452553D01*
X19193Y452612D01*
X19167Y452692D01*
X19151Y452774D01*
X19124Y452826D01*
X19106Y452882D01*
X19065Y452938D01*
X19020Y453027D01*
X18951Y453099D01*
X18911Y453155D01*
X11874Y460192D01*
X11874Y470083D01*
X18911Y477120D01*
X18946Y477166D01*
X18988Y477207D01*
X19031Y477279D01*
X19082Y477347D01*
X19102Y477401D01*
X19132Y477452D01*
X19153Y477534D01*
X19183Y477612D01*
X19188Y477671D01*
X19202Y477727D01*
X19199Y477812D01*
X19206Y477896D01*
X19195Y477953D01*
X19193Y478012D01*
X19167Y478092D01*
X19151Y478174D01*
X19124Y478226D01*
X19106Y478282D01*
X19065Y478338D01*
X19020Y478427D01*
X18951Y478499D01*
X18911Y478555D01*
X11874Y485592D01*
X11874Y495483D01*
X18911Y502520D01*
X18946Y502566D01*
X18988Y502607D01*
X19031Y502679D01*
X19082Y502747D01*
X19102Y502801D01*
X19132Y502852D01*
X19153Y502934D01*
X19183Y503012D01*
X19188Y503071D01*
X19202Y503127D01*
X19199Y503212D01*
X19206Y503296D01*
X19195Y503353D01*
X19193Y503412D01*
X19167Y503492D01*
X19151Y503574D01*
X19124Y503626D01*
X19106Y503682D01*
X19065Y503738D01*
X19020Y503827D01*
X18951Y503899D01*
X18911Y503955D01*
X11874Y510992D01*
X11874Y520883D01*
X18911Y527920D01*
X18946Y527966D01*
X18988Y528007D01*
X19031Y528079D01*
X19082Y528147D01*
X19102Y528201D01*
X19132Y528252D01*
X19153Y528334D01*
X19183Y528412D01*
X19188Y528471D01*
X19202Y528527D01*
X19199Y528612D01*
X19206Y528696D01*
X19195Y528753D01*
X19193Y528812D01*
X19167Y528892D01*
X19151Y528974D01*
X19124Y529026D01*
X19106Y529082D01*
X19065Y529138D01*
X19020Y529227D01*
X18951Y529299D01*
X18911Y529355D01*
X11874Y536392D01*
X11874Y546283D01*
X18867Y553276D01*
X28758Y553276D01*
X35751Y546283D01*
X35751Y536392D01*
X28714Y529355D01*
X28679Y529309D01*
X28637Y529268D01*
X28594Y529195D01*
X28543Y529128D01*
X28523Y529074D01*
X28493Y529023D01*
X28472Y528941D01*
X28442Y528863D01*
X28437Y528804D01*
X28423Y528748D01*
X28426Y528663D01*
X28419Y528579D01*
X28430Y528522D01*
X28432Y528463D01*
X28458Y528383D01*
X28474Y528300D01*
X28501Y528249D01*
X28519Y528193D01*
X28560Y528137D01*
X28605Y528048D01*
X28674Y527976D01*
X28714Y527920D01*
X35751Y520883D01*
X35751Y510992D01*
X28714Y503955D01*
X28679Y503909D01*
X28637Y503868D01*
X28594Y503795D01*
X28543Y503728D01*
X28523Y503674D01*
X28493Y503623D01*
X28472Y503541D01*
X28442Y503463D01*
X28437Y503404D01*
X28423Y503348D01*
X28426Y503263D01*
X28419Y503179D01*
X28430Y503122D01*
X28432Y503063D01*
X28458Y502983D01*
X28474Y502900D01*
X28501Y502849D01*
X28519Y502793D01*
X28560Y502737D01*
X28605Y502648D01*
X28674Y502576D01*
X28714Y502520D01*
X35751Y495483D01*
X35751Y485592D01*
X28714Y478555D01*
X28679Y478509D01*
X28637Y478468D01*
X28594Y478395D01*
X28543Y478328D01*
X28523Y478274D01*
X28493Y478223D01*
X28472Y478141D01*
X28442Y478063D01*
X28437Y478004D01*
X28423Y477948D01*
X28426Y477863D01*
X28419Y477779D01*
X28430Y477722D01*
X28432Y477663D01*
X28458Y477583D01*
X28474Y477500D01*
X28501Y477449D01*
X28519Y477393D01*
X28560Y477337D01*
X28605Y477248D01*
X28674Y477176D01*
X28714Y477120D01*
X35751Y470083D01*
X35751Y460192D01*
X28714Y453155D01*
X28679Y453109D01*
X28637Y453068D01*
X28594Y452995D01*
X28543Y452928D01*
X28523Y452874D01*
X28493Y452823D01*
X28472Y452741D01*
X28442Y452663D01*
X28437Y452604D01*
X28423Y452548D01*
X28426Y452463D01*
X28419Y452379D01*
X28430Y452322D01*
X28432Y452263D01*
X28458Y452183D01*
X28474Y452100D01*
X28501Y452049D01*
X28519Y451993D01*
X28560Y451937D01*
X28605Y451848D01*
X28674Y451776D01*
X28714Y451720D01*
X35751Y444683D01*
X35751Y434792D01*
X28714Y427755D01*
X28679Y427709D01*
X28637Y427668D01*
X28594Y427595D01*
X28543Y427528D01*
X28523Y427474D01*
X28493Y427423D01*
X28472Y427341D01*
X28442Y427263D01*
X28437Y427204D01*
X28423Y427148D01*
X28426Y427063D01*
X28419Y426979D01*
X28430Y426922D01*
X28432Y426863D01*
X28458Y426783D01*
X28474Y426700D01*
X28501Y426649D01*
X28519Y426593D01*
X28560Y426537D01*
X28605Y426448D01*
X28674Y426376D01*
X28714Y426320D01*
X35751Y419283D01*
X35751Y409392D01*
X28714Y402355D01*
X28679Y402309D01*
X28637Y402268D01*
X28594Y402195D01*
X28543Y402128D01*
X28523Y402074D01*
X28493Y402023D01*
X28472Y401941D01*
X28442Y401863D01*
X28437Y401804D01*
X28423Y401748D01*
X28426Y401663D01*
X28419Y401579D01*
X28430Y401522D01*
X28432Y401463D01*
X28458Y401383D01*
X28474Y401300D01*
X28501Y401249D01*
X28519Y401193D01*
X28560Y401137D01*
X28605Y401048D01*
X28674Y400976D01*
X28714Y400920D01*
X35751Y393883D01*
X35751Y383992D01*
X28758Y376999D01*
X18867Y376999D01*
G37*
%LPD*%
%LPC*%
G36*
X55753Y27741D02*
X55753Y27741D01*
X47549Y29940D01*
X40193Y34187D01*
X34187Y40193D01*
X29940Y47549D01*
X27741Y55753D01*
X27741Y64247D01*
X29940Y72451D01*
X34187Y79807D01*
X40193Y85813D01*
X47549Y90060D01*
X55753Y92259D01*
X64247Y92259D01*
X72451Y90060D01*
X79807Y85813D01*
X85813Y79807D01*
X90060Y72451D01*
X92259Y64247D01*
X92259Y55753D01*
X90060Y47549D01*
X85813Y40193D01*
X79807Y34187D01*
X72451Y29940D01*
X64247Y27741D01*
X55753Y27741D01*
G37*
%LPD*%
%LPC*%
G36*
X495753Y27741D02*
X495753Y27741D01*
X487549Y29940D01*
X480193Y34187D01*
X474187Y40193D01*
X469940Y47549D01*
X467741Y55753D01*
X467741Y64247D01*
X469940Y72451D01*
X474187Y79807D01*
X480193Y85813D01*
X487549Y90060D01*
X495753Y92259D01*
X504247Y92259D01*
X512451Y90060D01*
X519807Y85813D01*
X525813Y79807D01*
X530060Y72451D01*
X532259Y64247D01*
X532259Y55753D01*
X530060Y47549D01*
X525813Y40193D01*
X519807Y34187D01*
X512451Y29940D01*
X504247Y27741D01*
X495753Y27741D01*
G37*
%LPD*%
%LPC*%
G36*
X495753Y682741D02*
X495753Y682741D01*
X487549Y684940D01*
X480193Y689187D01*
X474187Y695193D01*
X469940Y702549D01*
X467741Y710753D01*
X467741Y719247D01*
X469940Y727451D01*
X474187Y734807D01*
X480193Y740813D01*
X487549Y745060D01*
X495753Y747259D01*
X504247Y747259D01*
X512451Y745060D01*
X519807Y740813D01*
X525813Y734807D01*
X530060Y727451D01*
X532259Y719247D01*
X532259Y710753D01*
X530060Y702549D01*
X525813Y695193D01*
X519807Y689187D01*
X512451Y684940D01*
X504247Y682741D01*
X495753Y682741D01*
G37*
%LPD*%
%LPC*%
G36*
X55753Y682741D02*
X55753Y682741D01*
X47549Y684940D01*
X40193Y689187D01*
X34187Y695193D01*
X29940Y702549D01*
X27741Y710753D01*
X27741Y719247D01*
X29940Y727451D01*
X34187Y734807D01*
X40193Y740813D01*
X47549Y745060D01*
X55753Y747259D01*
X64247Y747259D01*
X72451Y745060D01*
X79807Y740813D01*
X85813Y734807D01*
X90060Y727451D01*
X92259Y719247D01*
X92259Y710753D01*
X90060Y702549D01*
X85813Y695193D01*
X79807Y689187D01*
X72451Y684940D01*
X64247Y682741D01*
X55753Y682741D01*
G37*
%LPD*%
%LPC*%
G36*
X525245Y321119D02*
X525245Y321119D01*
X522366Y322311D01*
X522336Y322319D01*
X522308Y322333D01*
X522231Y322346D01*
X522091Y322382D01*
X522026Y322381D01*
X521977Y322389D01*
X425512Y322389D01*
X425482Y322384D01*
X425451Y322387D01*
X425374Y322369D01*
X425231Y322349D01*
X425172Y322323D01*
X425124Y322311D01*
X423471Y321627D01*
X405204Y321627D01*
X401470Y323174D01*
X398612Y326032D01*
X397065Y329766D01*
X397065Y333809D01*
X398612Y337543D01*
X401470Y340401D01*
X405204Y341948D01*
X423471Y341948D01*
X425124Y341264D01*
X425154Y341256D01*
X425181Y341242D01*
X425259Y341229D01*
X425399Y341193D01*
X425463Y341194D01*
X425512Y341186D01*
X521977Y341186D01*
X522008Y341191D01*
X522039Y341188D01*
X522115Y341206D01*
X522259Y341226D01*
X522318Y341252D01*
X522366Y341264D01*
X525245Y342456D01*
X544730Y342456D01*
X548651Y340832D01*
X551652Y337831D01*
X553276Y333910D01*
X553276Y329665D01*
X551652Y325744D01*
X548651Y322743D01*
X544730Y321119D01*
X525245Y321119D01*
G37*
%LPD*%
%LPC*%
G36*
X249410Y405637D02*
X249410Y405637D01*
X246796Y406720D01*
X244795Y408721D01*
X243712Y411335D01*
X243712Y423671D01*
X243700Y423757D01*
X243697Y423845D01*
X243680Y423897D01*
X243672Y423952D01*
X243637Y424032D01*
X243610Y424115D01*
X243582Y424155D01*
X243556Y424212D01*
X243460Y424325D01*
X243415Y424389D01*
X238445Y429358D01*
X238377Y429410D01*
X238314Y429469D01*
X238263Y429495D01*
X238218Y429529D01*
X238138Y429560D01*
X238061Y429599D01*
X238006Y429610D01*
X237952Y429631D01*
X237867Y429638D01*
X237782Y429654D01*
X237726Y429649D01*
X237669Y429654D01*
X237585Y429637D01*
X237499Y429630D01*
X237446Y429609D01*
X237390Y429598D01*
X237314Y429559D01*
X237234Y429528D01*
X237188Y429493D01*
X237138Y429467D01*
X237076Y429408D01*
X237007Y429356D01*
X236973Y429311D01*
X236932Y429271D01*
X236888Y429197D01*
X236837Y429128D01*
X236817Y429075D01*
X236788Y429026D01*
X236767Y428943D01*
X236737Y428862D01*
X236732Y428806D01*
X236718Y428751D01*
X236721Y428665D01*
X236714Y428579D01*
X236725Y428531D01*
X236727Y428466D01*
X236772Y428329D01*
X236789Y428252D01*
X237982Y425373D01*
X237982Y421558D01*
X236522Y418034D01*
X233825Y415337D01*
X230300Y413877D01*
X213406Y413877D01*
X209881Y415337D01*
X207184Y418034D01*
X205724Y421558D01*
X205724Y425373D01*
X207184Y428897D01*
X209881Y431595D01*
X210987Y432053D01*
X211013Y432068D01*
X211041Y432076D01*
X211135Y432140D01*
X211232Y432197D01*
X211252Y432218D01*
X211277Y432235D01*
X211350Y432322D01*
X211427Y432404D01*
X211441Y432430D01*
X211460Y432452D01*
X211506Y432556D01*
X211558Y432657D01*
X211563Y432685D01*
X211575Y432712D01*
X211591Y432824D01*
X211613Y432935D01*
X211610Y432965D01*
X211614Y432994D01*
X211598Y433106D01*
X211588Y433219D01*
X211578Y433246D01*
X211574Y433275D01*
X211527Y433378D01*
X211486Y433484D01*
X211469Y433508D01*
X211456Y433534D01*
X211383Y433620D01*
X211315Y433711D01*
X211291Y433728D01*
X211272Y433751D01*
X211206Y433792D01*
X211087Y433881D01*
X211028Y433903D01*
X210987Y433929D01*
X209882Y434387D01*
X207184Y437084D01*
X205724Y440608D01*
X205724Y444423D01*
X207184Y447947D01*
X209881Y450645D01*
X213406Y452104D01*
X215241Y452104D01*
X215327Y452116D01*
X215412Y452119D01*
X215467Y452136D01*
X215523Y452144D01*
X215601Y452179D01*
X215683Y452205D01*
X215731Y452237D01*
X215782Y452260D01*
X215848Y452316D01*
X215919Y452364D01*
X215956Y452407D01*
X215999Y452444D01*
X216047Y452516D01*
X216102Y452581D01*
X216125Y452633D01*
X216157Y452681D01*
X216183Y452763D01*
X216218Y452841D01*
X216226Y452897D01*
X216243Y452952D01*
X216245Y453038D01*
X216257Y453123D01*
X216249Y453179D01*
X216250Y453236D01*
X216228Y453319D01*
X216216Y453404D01*
X216193Y453456D01*
X216178Y453511D01*
X216134Y453585D01*
X216099Y453663D01*
X216062Y453706D01*
X216033Y453755D01*
X215970Y453814D01*
X215915Y453880D01*
X215873Y453906D01*
X215826Y453950D01*
X215697Y454016D01*
X215630Y454058D01*
X214609Y454480D01*
X195205Y473884D01*
X195136Y473937D01*
X195072Y473997D01*
X195022Y474022D01*
X194978Y474055D01*
X194896Y474086D01*
X194819Y474126D01*
X194771Y474134D01*
X194712Y474157D01*
X194565Y474169D01*
X194487Y474182D01*
X193904Y474182D01*
X191393Y475222D01*
X189472Y477143D01*
X188432Y479654D01*
X188432Y482371D01*
X189472Y484882D01*
X191393Y486803D01*
X193904Y487843D01*
X196621Y487843D01*
X199132Y486803D01*
X201053Y484882D01*
X202093Y482371D01*
X202093Y481788D01*
X202105Y481701D01*
X202108Y481614D01*
X202125Y481561D01*
X202133Y481506D01*
X202169Y481426D01*
X202196Y481343D01*
X202224Y481304D01*
X202249Y481247D01*
X202345Y481133D01*
X202391Y481070D01*
X219295Y464166D01*
X219364Y464113D01*
X219428Y464053D01*
X219478Y464028D01*
X219522Y463995D01*
X219604Y463964D01*
X219681Y463924D01*
X219729Y463916D01*
X219788Y463893D01*
X219935Y463881D01*
X220013Y463868D01*
X236300Y463868D01*
X236387Y463880D01*
X236474Y463883D01*
X236527Y463900D01*
X236582Y463908D01*
X236661Y463944D01*
X236745Y463971D01*
X236784Y463999D01*
X236841Y464024D01*
X236954Y464120D01*
X237018Y464166D01*
X237431Y464578D01*
X239941Y465618D01*
X242659Y465618D01*
X245169Y464578D01*
X247091Y462657D01*
X248131Y460146D01*
X248131Y457429D01*
X247091Y454918D01*
X245169Y452997D01*
X242659Y451957D01*
X239941Y451957D01*
X237431Y452997D01*
X237018Y453409D01*
X236948Y453462D01*
X236884Y453522D01*
X236835Y453547D01*
X236791Y453580D01*
X236709Y453611D01*
X236631Y453651D01*
X236584Y453659D01*
X236525Y453682D01*
X236377Y453694D01*
X236300Y453707D01*
X231536Y453707D01*
X231451Y453695D01*
X231365Y453692D01*
X231311Y453675D01*
X231254Y453667D01*
X231176Y453632D01*
X231094Y453606D01*
X231047Y453574D01*
X230995Y453551D01*
X230929Y453495D01*
X230858Y453447D01*
X230821Y453404D01*
X230778Y453367D01*
X230730Y453295D01*
X230675Y453230D01*
X230652Y453178D01*
X230620Y453130D01*
X230594Y453048D01*
X230560Y452970D01*
X230552Y452914D01*
X230535Y452859D01*
X230532Y452773D01*
X230521Y452688D01*
X230529Y452632D01*
X230527Y452575D01*
X230549Y452492D01*
X230561Y452407D01*
X230585Y452355D01*
X230599Y452300D01*
X230643Y452226D01*
X230678Y452148D01*
X230715Y452105D01*
X230744Y452056D01*
X230807Y451997D01*
X230863Y451932D01*
X230905Y451905D01*
X230952Y451861D01*
X231081Y451795D01*
X231147Y451754D01*
X233825Y450645D01*
X234544Y449926D01*
X234613Y449873D01*
X234677Y449813D01*
X234727Y449788D01*
X234771Y449755D01*
X234852Y449724D01*
X234930Y449684D01*
X234978Y449676D01*
X235036Y449654D01*
X235184Y449641D01*
X235261Y449628D01*
X236762Y449628D01*
X239376Y448545D01*
X256855Y431067D01*
X257938Y428452D01*
X257938Y411335D01*
X256855Y408721D01*
X254854Y406720D01*
X252240Y405637D01*
X249410Y405637D01*
G37*
%LPD*%
%LPC*%
G36*
X324079Y191607D02*
X324079Y191607D01*
X321568Y192647D01*
X319647Y194568D01*
X318607Y197079D01*
X318607Y199796D01*
X319647Y202307D01*
X321568Y204228D01*
X324079Y205268D01*
X326796Y205268D01*
X329307Y204228D01*
X330228Y203308D01*
X330297Y203255D01*
X330361Y203195D01*
X330411Y203170D01*
X330455Y203137D01*
X330536Y203106D01*
X330614Y203066D01*
X330662Y203058D01*
X330720Y203035D01*
X330868Y203023D01*
X330945Y203010D01*
X337410Y203010D01*
X337497Y203022D01*
X337584Y203025D01*
X337637Y203042D01*
X337692Y203050D01*
X337772Y203086D01*
X337855Y203113D01*
X337894Y203141D01*
X337951Y203166D01*
X338065Y203262D01*
X338128Y203308D01*
X345967Y211147D01*
X346020Y211217D01*
X346080Y211280D01*
X346105Y211330D01*
X346138Y211374D01*
X346169Y211456D01*
X346209Y211534D01*
X346217Y211581D01*
X346240Y211640D01*
X346252Y211787D01*
X346265Y211865D01*
X346265Y222092D01*
X346253Y222178D01*
X346250Y222263D01*
X346233Y222318D01*
X346225Y222374D01*
X346190Y222452D01*
X346164Y222534D01*
X346132Y222581D01*
X346109Y222633D01*
X346053Y222699D01*
X346005Y222770D01*
X345962Y222807D01*
X345925Y222850D01*
X345854Y222898D01*
X345788Y222953D01*
X345736Y222976D01*
X345688Y223008D01*
X345606Y223034D01*
X345528Y223069D01*
X345472Y223077D01*
X345417Y223094D01*
X345331Y223096D01*
X345246Y223108D01*
X345190Y223100D01*
X345133Y223101D01*
X345050Y223079D01*
X344965Y223067D01*
X344913Y223044D01*
X344858Y223029D01*
X344784Y222985D01*
X344706Y222950D01*
X344663Y222913D01*
X344614Y222884D01*
X344555Y222821D01*
X344490Y222766D01*
X344463Y222724D01*
X344419Y222677D01*
X344353Y222547D01*
X344312Y222481D01*
X343928Y221556D01*
X342007Y219634D01*
X339496Y218594D01*
X336779Y218594D01*
X334268Y219634D01*
X333095Y220807D01*
X333003Y220876D01*
X332916Y220950D01*
X332890Y220961D01*
X332868Y220978D01*
X332761Y221019D01*
X332656Y221066D01*
X332628Y221069D01*
X332602Y221079D01*
X332488Y221089D01*
X332374Y221105D01*
X332347Y221101D01*
X332319Y221103D01*
X332207Y221080D01*
X332093Y221064D01*
X332068Y221052D01*
X332040Y221047D01*
X331938Y220994D01*
X331834Y220947D01*
X331813Y220929D01*
X331788Y220916D01*
X331705Y220837D01*
X331617Y220762D01*
X331604Y220741D01*
X331582Y220720D01*
X331447Y220490D01*
X331439Y220478D01*
X331228Y219968D01*
X329307Y218047D01*
X326796Y217007D01*
X324079Y217007D01*
X321568Y218047D01*
X319647Y219968D01*
X318607Y222479D01*
X318607Y225196D01*
X319647Y227707D01*
X320567Y228628D01*
X320620Y228697D01*
X320680Y228761D01*
X320705Y228811D01*
X320738Y228855D01*
X320769Y228936D01*
X320809Y229014D01*
X320817Y229062D01*
X320840Y229120D01*
X320852Y229268D01*
X320865Y229345D01*
X320865Y270182D01*
X323072Y272389D01*
X323089Y272412D01*
X323111Y272430D01*
X323143Y272478D01*
X323184Y272522D01*
X323210Y272572D01*
X323243Y272616D01*
X323254Y272645D01*
X323268Y272666D01*
X323285Y272719D01*
X323314Y272776D01*
X323322Y272823D01*
X323344Y272882D01*
X323347Y272915D01*
X323354Y272937D01*
X323356Y273028D01*
X323356Y273029D01*
X323369Y273107D01*
X323369Y274409D01*
X324409Y276919D01*
X326331Y278841D01*
X328841Y279881D01*
X331559Y279881D01*
X334069Y278841D01*
X335991Y276919D01*
X337031Y274409D01*
X337031Y271691D01*
X335991Y269181D01*
X334069Y267259D01*
X331559Y266219D01*
X331025Y266219D01*
X330968Y266211D01*
X330909Y266213D01*
X330828Y266191D01*
X330744Y266179D01*
X330691Y266156D01*
X330634Y266141D01*
X330562Y266098D01*
X330485Y266063D01*
X330440Y266025D01*
X330390Y265996D01*
X330332Y265934D01*
X330268Y265880D01*
X330235Y265831D01*
X330195Y265788D01*
X330157Y265713D01*
X330110Y265643D01*
X330092Y265587D01*
X330066Y265535D01*
X330054Y265467D01*
X330024Y265372D01*
X330022Y265272D01*
X330010Y265204D01*
X330010Y250983D01*
X330022Y250897D01*
X330025Y250812D01*
X330042Y250757D01*
X330050Y250701D01*
X330085Y250623D01*
X330111Y250541D01*
X330143Y250494D01*
X330166Y250442D01*
X330222Y250376D01*
X330270Y250305D01*
X330313Y250268D01*
X330350Y250225D01*
X330421Y250177D01*
X330487Y250122D01*
X330539Y250099D01*
X330587Y250067D01*
X330669Y250041D01*
X330747Y250006D01*
X330803Y249998D01*
X330858Y249981D01*
X330944Y249979D01*
X331029Y249967D01*
X331085Y249975D01*
X331142Y249974D01*
X331225Y249996D01*
X331310Y250008D01*
X331362Y250031D01*
X331417Y250046D01*
X331491Y250090D01*
X331569Y250125D01*
X331612Y250162D01*
X331661Y250191D01*
X331720Y250254D01*
X331785Y250309D01*
X331812Y250351D01*
X331856Y250398D01*
X331922Y250528D01*
X331963Y250594D01*
X332347Y251519D01*
X334268Y253441D01*
X336779Y254481D01*
X339496Y254481D01*
X342007Y253441D01*
X343770Y251678D01*
X343816Y251643D01*
X343857Y251600D01*
X343929Y251558D01*
X343997Y251507D01*
X344051Y251486D01*
X344102Y251457D01*
X344183Y251436D01*
X344262Y251406D01*
X344321Y251401D01*
X344377Y251387D01*
X344462Y251389D01*
X344546Y251382D01*
X344603Y251394D01*
X344662Y251396D01*
X344742Y251422D01*
X344824Y251438D01*
X344876Y251465D01*
X344932Y251483D01*
X344988Y251523D01*
X345077Y251569D01*
X345149Y251638D01*
X345205Y251678D01*
X346968Y253441D01*
X349479Y254481D01*
X352196Y254481D01*
X354707Y253441D01*
X356628Y251519D01*
X357668Y249009D01*
X357668Y246291D01*
X356628Y243781D01*
X355708Y242860D01*
X355655Y242790D01*
X355595Y242726D01*
X355570Y242677D01*
X355537Y242633D01*
X355506Y242551D01*
X355466Y242473D01*
X355458Y242426D01*
X355435Y242367D01*
X355423Y242219D01*
X355410Y242142D01*
X355410Y207656D01*
X341619Y193865D01*
X330945Y193865D01*
X330859Y193853D01*
X330771Y193850D01*
X330719Y193833D01*
X330664Y193825D01*
X330584Y193789D01*
X330501Y193762D01*
X330462Y193734D01*
X330405Y193709D01*
X330291Y193613D01*
X330228Y193567D01*
X329307Y192647D01*
X326796Y191607D01*
X324079Y191607D01*
G37*
%LPD*%
%LPC*%
G36*
X283980Y484949D02*
X283980Y484949D01*
X276986Y491942D01*
X276986Y501833D01*
X284023Y508870D01*
X284058Y508916D01*
X284101Y508957D01*
X284143Y509029D01*
X284194Y509097D01*
X284215Y509151D01*
X284244Y509202D01*
X284265Y509284D01*
X284295Y509362D01*
X284300Y509421D01*
X284315Y509477D01*
X284312Y509562D01*
X284319Y509646D01*
X284307Y509703D01*
X284306Y509762D01*
X284280Y509842D01*
X284263Y509924D01*
X284236Y509976D01*
X284218Y510032D01*
X284178Y510088D01*
X284132Y510177D01*
X284063Y510249D01*
X284023Y510305D01*
X276986Y517342D01*
X276986Y527233D01*
X284023Y534270D01*
X284058Y534316D01*
X284101Y534357D01*
X284143Y534429D01*
X284194Y534497D01*
X284215Y534551D01*
X284244Y534602D01*
X284265Y534684D01*
X284295Y534762D01*
X284300Y534821D01*
X284315Y534877D01*
X284312Y534962D01*
X284319Y535046D01*
X284307Y535103D01*
X284306Y535162D01*
X284280Y535242D01*
X284263Y535324D01*
X284236Y535376D01*
X284218Y535432D01*
X284178Y535488D01*
X284132Y535577D01*
X284063Y535649D01*
X284045Y535675D01*
X284045Y535676D01*
X284044Y535676D01*
X284023Y535705D01*
X276986Y542742D01*
X276986Y552633D01*
X284023Y559670D01*
X284058Y559716D01*
X284101Y559757D01*
X284143Y559829D01*
X284194Y559897D01*
X284215Y559951D01*
X284244Y560002D01*
X284265Y560084D01*
X284295Y560162D01*
X284300Y560221D01*
X284315Y560277D01*
X284312Y560362D01*
X284319Y560446D01*
X284307Y560503D01*
X284306Y560562D01*
X284280Y560642D01*
X284263Y560724D01*
X284236Y560776D01*
X284218Y560832D01*
X284178Y560888D01*
X284132Y560977D01*
X284076Y561036D01*
X284063Y561057D01*
X284047Y561072D01*
X284023Y561105D01*
X276986Y568142D01*
X276986Y578033D01*
X283980Y585026D01*
X293870Y585026D01*
X300864Y578033D01*
X300864Y568142D01*
X293827Y561105D01*
X293792Y561059D01*
X293749Y561018D01*
X293707Y560945D01*
X293656Y560878D01*
X293635Y560824D01*
X293606Y560773D01*
X293585Y560691D01*
X293555Y560613D01*
X293550Y560554D01*
X293535Y560498D01*
X293538Y560413D01*
X293531Y560329D01*
X293543Y560272D01*
X293544Y560213D01*
X293570Y560133D01*
X293587Y560050D01*
X293614Y559999D01*
X293632Y559943D01*
X293672Y559887D01*
X293718Y559798D01*
X293787Y559726D01*
X293827Y559670D01*
X300864Y552633D01*
X300864Y542742D01*
X293827Y535705D01*
X293792Y535659D01*
X293749Y535618D01*
X293707Y535545D01*
X293656Y535478D01*
X293635Y535424D01*
X293606Y535373D01*
X293585Y535291D01*
X293555Y535213D01*
X293550Y535154D01*
X293535Y535098D01*
X293538Y535013D01*
X293531Y534929D01*
X293543Y534872D01*
X293544Y534813D01*
X293570Y534733D01*
X293587Y534650D01*
X293614Y534599D01*
X293632Y534543D01*
X293672Y534487D01*
X293718Y534398D01*
X293787Y534326D01*
X293827Y534270D01*
X300864Y527233D01*
X300864Y517342D01*
X293827Y510305D01*
X293792Y510259D01*
X293749Y510218D01*
X293707Y510145D01*
X293656Y510078D01*
X293635Y510024D01*
X293606Y509973D01*
X293585Y509891D01*
X293555Y509813D01*
X293550Y509754D01*
X293535Y509698D01*
X293538Y509613D01*
X293531Y509529D01*
X293543Y509472D01*
X293544Y509413D01*
X293570Y509333D01*
X293587Y509250D01*
X293614Y509199D01*
X293632Y509143D01*
X293672Y509087D01*
X293718Y508998D01*
X293787Y508926D01*
X293827Y508870D01*
X300864Y501833D01*
X300864Y491942D01*
X293870Y484949D01*
X283980Y484949D01*
G37*
%LPD*%
%LPC*%
G36*
X422608Y715835D02*
X422608Y715835D01*
X417356Y718010D01*
X413337Y722029D01*
X411162Y727281D01*
X411162Y755444D01*
X413337Y760696D01*
X417356Y764715D01*
X422608Y766890D01*
X428292Y766890D01*
X433544Y764715D01*
X437563Y760696D01*
X439738Y755444D01*
X439738Y727281D01*
X437563Y722029D01*
X433544Y718010D01*
X428292Y715835D01*
X422608Y715835D01*
G37*
%LPD*%
%LPC*%
G36*
X371808Y715835D02*
X371808Y715835D01*
X366556Y718010D01*
X362537Y722029D01*
X360362Y727281D01*
X360362Y755444D01*
X362537Y760696D01*
X366556Y764715D01*
X371808Y766890D01*
X377492Y766890D01*
X382744Y764715D01*
X386763Y760696D01*
X388938Y755444D01*
X388938Y727281D01*
X386763Y722029D01*
X382744Y718010D01*
X377492Y715835D01*
X371808Y715835D01*
G37*
%LPD*%
%LPC*%
G36*
X321008Y715835D02*
X321008Y715835D01*
X315756Y718010D01*
X311737Y722029D01*
X309562Y727281D01*
X309562Y755444D01*
X311737Y760696D01*
X315756Y764715D01*
X321008Y766890D01*
X326692Y766890D01*
X331944Y764715D01*
X335963Y760696D01*
X338138Y755444D01*
X338138Y727281D01*
X335963Y722029D01*
X331944Y718010D01*
X326692Y715835D01*
X321008Y715835D01*
G37*
%LPD*%
%LPC*%
G36*
X398635Y72262D02*
X398635Y72262D01*
X396021Y73345D01*
X375176Y94190D01*
X375106Y94242D01*
X375042Y94302D01*
X374993Y94328D01*
X374949Y94361D01*
X374867Y94392D01*
X374789Y94432D01*
X374742Y94440D01*
X374683Y94462D01*
X374536Y94474D01*
X374458Y94487D01*
X335135Y94487D01*
X332521Y95570D01*
X330520Y97571D01*
X329437Y100185D01*
X329437Y103015D01*
X330520Y105629D01*
X332521Y107630D01*
X335135Y108713D01*
X379240Y108713D01*
X381854Y107630D01*
X406080Y83404D01*
X407163Y80790D01*
X407163Y77960D01*
X406080Y75346D01*
X404079Y73345D01*
X401465Y72262D01*
X398635Y72262D01*
G37*
%LPD*%
%LPC*%
G36*
X420219Y7746D02*
X420219Y7746D01*
X415248Y9806D01*
X411443Y13610D01*
X409384Y18582D01*
X409384Y44918D01*
X411443Y49890D01*
X415248Y53694D01*
X420219Y55754D01*
X425601Y55754D01*
X430572Y53694D01*
X434377Y49890D01*
X436436Y44918D01*
X436436Y18582D01*
X434377Y13610D01*
X430572Y9806D01*
X425601Y7746D01*
X420219Y7746D01*
G37*
%LPD*%
%LPC*%
G36*
X365609Y7746D02*
X365609Y7746D01*
X360638Y9806D01*
X356833Y13610D01*
X354774Y18582D01*
X354774Y44918D01*
X356833Y49890D01*
X360638Y53694D01*
X365609Y55754D01*
X370991Y55754D01*
X375962Y53694D01*
X379767Y49890D01*
X381826Y44918D01*
X381826Y18582D01*
X379767Y13610D01*
X375962Y9806D01*
X370991Y7746D01*
X365609Y7746D01*
G37*
%LPD*%
%LPC*%
G36*
X310999Y7746D02*
X310999Y7746D01*
X306028Y9806D01*
X302223Y13610D01*
X300164Y18582D01*
X300164Y44918D01*
X302223Y49890D01*
X306028Y53694D01*
X310999Y55754D01*
X316381Y55754D01*
X321352Y53694D01*
X325157Y49890D01*
X327216Y44918D01*
X327216Y18582D01*
X325157Y13610D01*
X321352Y9806D01*
X316381Y7746D01*
X310999Y7746D01*
G37*
%LPD*%
%LPC*%
G36*
X325126Y301601D02*
X325126Y301601D01*
X321616Y303055D01*
X318930Y305741D01*
X317476Y309251D01*
X317476Y313049D01*
X318930Y316559D01*
X321616Y319245D01*
X321792Y319318D01*
X321818Y319333D01*
X321848Y319343D01*
X321912Y319388D01*
X322036Y319462D01*
X322081Y319509D01*
X322121Y319538D01*
X342338Y339755D01*
X345793Y341186D01*
X361074Y341186D01*
X361105Y341191D01*
X361135Y341188D01*
X361212Y341206D01*
X361356Y341226D01*
X361414Y341252D01*
X361463Y341264D01*
X361638Y341336D01*
X365437Y341336D01*
X368946Y339882D01*
X371632Y337196D01*
X373086Y333687D01*
X373086Y329888D01*
X371632Y326379D01*
X368946Y323693D01*
X365437Y322239D01*
X361638Y322239D01*
X361463Y322311D01*
X361433Y322319D01*
X361405Y322333D01*
X361328Y322346D01*
X361187Y322382D01*
X361123Y322381D01*
X361074Y322389D01*
X351976Y322389D01*
X351889Y322377D01*
X351802Y322374D01*
X351749Y322357D01*
X351695Y322349D01*
X351615Y322313D01*
X351532Y322286D01*
X351492Y322258D01*
X351435Y322233D01*
X351322Y322137D01*
X351258Y322091D01*
X335413Y306246D01*
X335394Y306221D01*
X335371Y306201D01*
X335329Y306134D01*
X335242Y306019D01*
X335219Y305959D01*
X335193Y305917D01*
X335120Y305741D01*
X332434Y303055D01*
X328924Y301601D01*
X325126Y301601D01*
G37*
%LPD*%
%LPC*%
G36*
X138472Y94554D02*
X138472Y94554D01*
X134947Y96014D01*
X123001Y107960D01*
X121541Y111484D01*
X121541Y115299D01*
X123001Y118823D01*
X125698Y121520D01*
X129223Y122980D01*
X133037Y122980D01*
X134143Y122522D01*
X134172Y122515D01*
X134198Y122501D01*
X134309Y122479D01*
X134419Y122451D01*
X134448Y122452D01*
X134477Y122446D01*
X134590Y122456D01*
X134703Y122459D01*
X134731Y122468D01*
X134760Y122471D01*
X134866Y122511D01*
X134974Y122546D01*
X134998Y122562D01*
X135025Y122573D01*
X135116Y122641D01*
X135210Y122704D01*
X135229Y122727D01*
X135252Y122744D01*
X135320Y122835D01*
X135393Y122922D01*
X135405Y122949D01*
X135422Y122972D01*
X135462Y123078D01*
X135508Y123182D01*
X135512Y123211D01*
X135523Y123238D01*
X135532Y123351D01*
X135547Y123463D01*
X135543Y123492D01*
X135545Y123522D01*
X135528Y123598D01*
X135507Y123745D01*
X135481Y123802D01*
X135470Y123849D01*
X135012Y124955D01*
X135012Y128769D01*
X136472Y132294D01*
X139169Y134991D01*
X142693Y136451D01*
X146508Y136451D01*
X150032Y134991D01*
X161978Y123045D01*
X163438Y119520D01*
X163438Y115706D01*
X161978Y112181D01*
X159281Y109484D01*
X155757Y108024D01*
X151942Y108024D01*
X150836Y108482D01*
X150808Y108490D01*
X150782Y108503D01*
X150671Y108525D01*
X150561Y108553D01*
X150532Y108553D01*
X150503Y108558D01*
X150390Y108548D01*
X150277Y108545D01*
X150249Y108536D01*
X150220Y108534D01*
X150114Y108493D01*
X150006Y108459D01*
X149982Y108442D01*
X149954Y108432D01*
X149864Y108363D01*
X149770Y108300D01*
X149751Y108278D01*
X149728Y108260D01*
X149660Y108169D01*
X149587Y108083D01*
X149575Y108056D01*
X149557Y108032D01*
X149517Y107926D01*
X149471Y107823D01*
X149467Y107794D01*
X149457Y107766D01*
X149448Y107653D01*
X149432Y107541D01*
X149437Y107512D01*
X149434Y107483D01*
X149452Y107406D01*
X149473Y107260D01*
X149499Y107203D01*
X149510Y107156D01*
X149968Y106050D01*
X149968Y102235D01*
X148508Y98711D01*
X145811Y96014D01*
X142286Y94554D01*
X138472Y94554D01*
G37*
%LPD*%
%LPC*%
G36*
X316788Y667164D02*
X316788Y667164D01*
X306801Y677151D01*
X306801Y691274D01*
X316788Y701261D01*
X330912Y701261D01*
X340899Y691274D01*
X340899Y677151D01*
X330912Y667164D01*
X316788Y667164D01*
G37*
%LPD*%
%LPC*%
G36*
X61201Y148051D02*
X61201Y148051D01*
X51214Y158038D01*
X51214Y172162D01*
X61201Y182149D01*
X75324Y182149D01*
X85311Y172162D01*
X85311Y158038D01*
X75324Y148051D01*
X61201Y148051D01*
G37*
%LPD*%
%LPC*%
G36*
X316788Y616364D02*
X316788Y616364D01*
X306801Y626351D01*
X306801Y640474D01*
X316788Y650461D01*
X330912Y650461D01*
X340899Y640474D01*
X340899Y626351D01*
X330912Y616364D01*
X316788Y616364D01*
G37*
%LPD*%
%LPC*%
G36*
X18867Y580199D02*
X18867Y580199D01*
X11874Y587192D01*
X11874Y597083D01*
X18911Y604120D01*
X18946Y604166D01*
X18988Y604207D01*
X19031Y604279D01*
X19082Y604347D01*
X19102Y604401D01*
X19132Y604452D01*
X19153Y604534D01*
X19183Y604612D01*
X19188Y604671D01*
X19202Y604727D01*
X19199Y604812D01*
X19206Y604896D01*
X19195Y604953D01*
X19193Y605012D01*
X19167Y605092D01*
X19151Y605174D01*
X19124Y605226D01*
X19106Y605282D01*
X19065Y605338D01*
X19020Y605427D01*
X18951Y605499D01*
X18911Y605555D01*
X11874Y612592D01*
X11874Y622483D01*
X18867Y629476D01*
X28758Y629476D01*
X35751Y622483D01*
X35751Y612592D01*
X28714Y605555D01*
X28679Y605509D01*
X28637Y605468D01*
X28594Y605395D01*
X28543Y605328D01*
X28523Y605274D01*
X28493Y605223D01*
X28472Y605141D01*
X28442Y605063D01*
X28437Y605004D01*
X28423Y604948D01*
X28426Y604863D01*
X28419Y604779D01*
X28430Y604722D01*
X28432Y604663D01*
X28458Y604583D01*
X28474Y604500D01*
X28501Y604449D01*
X28519Y604393D01*
X28560Y604337D01*
X28605Y604248D01*
X28674Y604176D01*
X28714Y604120D01*
X35751Y597083D01*
X35751Y587192D01*
X28758Y580199D01*
X18867Y580199D01*
G37*
%LPD*%
%LPC*%
G36*
X269762Y413439D02*
X269762Y413439D01*
X266238Y414899D01*
X263540Y417596D01*
X262081Y421121D01*
X262081Y424935D01*
X263540Y428460D01*
X266238Y431157D01*
X269762Y432617D01*
X281950Y432617D01*
X281979Y432621D01*
X282008Y432619D01*
X282119Y432641D01*
X282232Y432657D01*
X282258Y432669D01*
X282287Y432674D01*
X282388Y432727D01*
X282491Y432773D01*
X282513Y432792D01*
X282539Y432805D01*
X282622Y432883D01*
X282708Y432957D01*
X282724Y432981D01*
X282746Y433001D01*
X282803Y433099D01*
X282866Y433193D01*
X282874Y433221D01*
X282889Y433247D01*
X282917Y433356D01*
X282951Y433464D01*
X282952Y433494D01*
X282959Y433522D01*
X282956Y433635D01*
X282959Y433748D01*
X282951Y433777D01*
X282950Y433806D01*
X282915Y433914D01*
X282887Y434024D01*
X282872Y434049D01*
X282863Y434077D01*
X282817Y434141D01*
X282742Y434268D01*
X282696Y434311D01*
X282668Y434350D01*
X281944Y435074D01*
X280904Y437585D01*
X280904Y440302D01*
X281944Y442813D01*
X282356Y443226D01*
X282409Y443296D01*
X282469Y443359D01*
X282494Y443409D01*
X282527Y443453D01*
X282558Y443535D01*
X282598Y443613D01*
X282606Y443660D01*
X282628Y443719D01*
X282641Y443866D01*
X282654Y443944D01*
X282654Y454978D01*
X282641Y455065D01*
X282639Y455152D01*
X282622Y455205D01*
X282614Y455260D01*
X282578Y455340D01*
X282551Y455423D01*
X282523Y455462D01*
X282498Y455519D01*
X282402Y455632D01*
X282356Y455696D01*
X281944Y456109D01*
X280904Y458619D01*
X280904Y461337D01*
X281944Y463847D01*
X283865Y465769D01*
X286376Y466809D01*
X289093Y466809D01*
X291604Y465769D01*
X293525Y463847D01*
X294565Y461337D01*
X294565Y458619D01*
X293525Y456109D01*
X293112Y455696D01*
X293060Y455626D01*
X293000Y455562D01*
X292975Y455513D01*
X292942Y455469D01*
X292910Y455387D01*
X292871Y455309D01*
X292863Y455262D01*
X292840Y455203D01*
X292828Y455056D01*
X292815Y454978D01*
X292815Y443944D01*
X292827Y443857D01*
X292830Y443770D01*
X292847Y443717D01*
X292855Y443662D01*
X292891Y443582D01*
X292918Y443499D01*
X292946Y443460D01*
X292971Y443403D01*
X293067Y443289D01*
X293112Y443226D01*
X293525Y442813D01*
X294565Y440302D01*
X294565Y437585D01*
X293525Y435074D01*
X291604Y433153D01*
X290590Y432733D01*
X290491Y432675D01*
X290389Y432622D01*
X290369Y432603D01*
X290345Y432589D01*
X290267Y432505D01*
X290183Y432426D01*
X290169Y432402D01*
X290150Y432382D01*
X290098Y432280D01*
X290039Y432181D01*
X290033Y432154D01*
X290020Y432129D01*
X289998Y432016D01*
X289969Y431905D01*
X289970Y431878D01*
X289965Y431850D01*
X289975Y431736D01*
X289978Y431621D01*
X289987Y431595D01*
X289989Y431567D01*
X290031Y431460D01*
X290066Y431351D01*
X290080Y431330D01*
X290091Y431302D01*
X290252Y431089D01*
X290261Y431077D01*
X292878Y428460D01*
X294338Y424935D01*
X294338Y421121D01*
X292878Y417596D01*
X290181Y414899D01*
X286657Y413439D01*
X269762Y413439D01*
G37*
%LPD*%
%LPC*%
G36*
X201720Y664003D02*
X201720Y664003D01*
X197519Y665743D01*
X194303Y668959D01*
X192563Y673160D01*
X192563Y694471D01*
X194303Y698673D01*
X197519Y701888D01*
X201720Y703628D01*
X206267Y703628D01*
X210469Y701888D01*
X213684Y698673D01*
X215424Y694471D01*
X215424Y673160D01*
X213684Y668959D01*
X210469Y665743D01*
X206267Y664003D01*
X201720Y664003D01*
G37*
%LPD*%
%LPC*%
G36*
X157270Y727503D02*
X157270Y727503D01*
X153069Y729243D01*
X149853Y732459D01*
X148113Y736660D01*
X148113Y757971D01*
X149853Y762173D01*
X153069Y765388D01*
X157270Y767128D01*
X161817Y767128D01*
X166019Y765388D01*
X169234Y762173D01*
X170974Y757971D01*
X170974Y736660D01*
X169234Y732459D01*
X166019Y729243D01*
X161817Y727503D01*
X157270Y727503D01*
G37*
%LPD*%
%LPC*%
G36*
X201720Y727503D02*
X201720Y727503D01*
X197519Y729243D01*
X194303Y732459D01*
X192563Y736660D01*
X192563Y757971D01*
X194303Y762173D01*
X197519Y765388D01*
X201720Y767128D01*
X206267Y767128D01*
X210469Y765388D01*
X213684Y762173D01*
X215424Y757971D01*
X215424Y736660D01*
X213684Y732459D01*
X210469Y729243D01*
X206267Y727503D01*
X201720Y727503D01*
G37*
%LPD*%
%LPC*%
G36*
X237511Y593375D02*
X237511Y593375D01*
X233590Y594999D01*
X230589Y598000D01*
X228964Y601922D01*
X228964Y606166D01*
X230589Y610087D01*
X233590Y613088D01*
X237511Y614712D01*
X256995Y614712D01*
X260917Y613088D01*
X263918Y610087D01*
X265542Y606166D01*
X265542Y601922D01*
X263918Y598000D01*
X260917Y594999D01*
X256995Y593375D01*
X237511Y593375D01*
G37*
%LPD*%
%LPC*%
G36*
X525245Y295719D02*
X525245Y295719D01*
X521324Y297343D01*
X518323Y300344D01*
X516699Y304265D01*
X516699Y308510D01*
X518323Y312431D01*
X521324Y315432D01*
X525245Y317056D01*
X544730Y317056D01*
X548651Y315432D01*
X551652Y312431D01*
X553276Y308510D01*
X553276Y304265D01*
X551652Y300344D01*
X548651Y297343D01*
X544730Y295719D01*
X525245Y295719D01*
G37*
%LPD*%
%LPC*%
G36*
X260133Y283019D02*
X260133Y283019D01*
X256212Y284643D01*
X253211Y287644D01*
X251586Y291565D01*
X251586Y295810D01*
X253211Y299731D01*
X256212Y302732D01*
X260133Y304356D01*
X279617Y304356D01*
X283538Y302732D01*
X286539Y299731D01*
X288164Y295810D01*
X288164Y291565D01*
X286539Y287644D01*
X283538Y284643D01*
X279617Y283019D01*
X260133Y283019D01*
G37*
%LPD*%
%LPC*%
G36*
X237511Y618775D02*
X237511Y618775D01*
X233590Y620399D01*
X230589Y623400D01*
X228964Y627322D01*
X228964Y631566D01*
X230589Y635487D01*
X233590Y638488D01*
X237511Y640112D01*
X256995Y640112D01*
X260917Y638488D01*
X263918Y635487D01*
X265542Y631566D01*
X265542Y627322D01*
X263918Y623400D01*
X260917Y620399D01*
X256995Y618775D01*
X237511Y618775D01*
G37*
%LPD*%
%LPC*%
G36*
X237511Y644175D02*
X237511Y644175D01*
X233590Y645799D01*
X230589Y648800D01*
X228964Y652722D01*
X228964Y656966D01*
X230589Y660887D01*
X233590Y663888D01*
X237511Y665512D01*
X256995Y665512D01*
X260917Y663888D01*
X263918Y660887D01*
X265542Y656966D01*
X265542Y652722D01*
X263918Y648800D01*
X260917Y645799D01*
X256995Y644175D01*
X237511Y644175D01*
G37*
%LPD*%
%LPC*%
G36*
X237511Y669575D02*
X237511Y669575D01*
X233590Y671199D01*
X230589Y674200D01*
X228964Y678122D01*
X228964Y682366D01*
X230589Y686287D01*
X233590Y689288D01*
X237511Y690912D01*
X256995Y690912D01*
X260917Y689288D01*
X263918Y686287D01*
X265542Y682366D01*
X265542Y678122D01*
X263918Y674200D01*
X260917Y671199D01*
X256995Y669575D01*
X237511Y669575D01*
G37*
%LPD*%
%LPC*%
G36*
X525245Y346519D02*
X525245Y346519D01*
X521324Y348143D01*
X518323Y351144D01*
X516699Y355065D01*
X516699Y359310D01*
X518323Y363231D01*
X521324Y366232D01*
X525245Y367856D01*
X544730Y367856D01*
X548651Y366232D01*
X551652Y363231D01*
X553276Y359310D01*
X553276Y355065D01*
X551652Y351144D01*
X548651Y348143D01*
X544730Y346519D01*
X525245Y346519D01*
G37*
%LPD*%
%LPC*%
G36*
X260133Y333819D02*
X260133Y333819D01*
X256212Y335443D01*
X253211Y338444D01*
X251586Y342365D01*
X251586Y346610D01*
X253211Y350531D01*
X256212Y353532D01*
X260133Y355156D01*
X279617Y355156D01*
X283538Y353532D01*
X286539Y350531D01*
X288164Y346610D01*
X288164Y342365D01*
X286539Y338444D01*
X283538Y335443D01*
X279617Y333819D01*
X260133Y333819D01*
G37*
%LPD*%
%LPC*%
G36*
X476646Y509904D02*
X476646Y509904D01*
X471511Y512031D01*
X467581Y515961D01*
X465454Y521096D01*
X465454Y526654D01*
X467581Y531789D01*
X471511Y535719D01*
X476646Y537846D01*
X482204Y537846D01*
X487339Y535719D01*
X491269Y531789D01*
X493396Y526654D01*
X493396Y521096D01*
X491269Y515961D01*
X487339Y512031D01*
X482204Y509904D01*
X476646Y509904D01*
G37*
%LPD*%
%LPC*%
G36*
X309791Y380916D02*
X309791Y380916D01*
X307281Y381956D01*
X305359Y383878D01*
X304319Y386388D01*
X304319Y389106D01*
X305359Y391616D01*
X306677Y392934D01*
X306729Y393004D01*
X306789Y393067D01*
X306814Y393117D01*
X306848Y393161D01*
X306879Y393243D01*
X306919Y393321D01*
X306927Y393368D01*
X306949Y393427D01*
X306961Y393574D01*
X306974Y393652D01*
X306974Y429467D01*
X306966Y429523D01*
X306967Y429570D01*
X306961Y429597D01*
X306959Y429641D01*
X306942Y429694D01*
X306934Y429749D01*
X306902Y429821D01*
X306896Y429845D01*
X306890Y429854D01*
X306872Y429912D01*
X306844Y429951D01*
X306818Y430008D01*
X306754Y430084D01*
X306750Y430090D01*
X306744Y430096D01*
X306722Y430121D01*
X306677Y430185D01*
X305756Y431106D01*
X304716Y433616D01*
X304716Y436334D01*
X305756Y438844D01*
X307678Y440766D01*
X310188Y441806D01*
X312906Y441806D01*
X315416Y440766D01*
X317338Y438844D01*
X318378Y436334D01*
X318378Y433616D01*
X317338Y431106D01*
X316417Y430185D01*
X316365Y430115D01*
X316305Y430051D01*
X316279Y430002D01*
X316246Y429958D01*
X316224Y429899D01*
X316219Y429893D01*
X316213Y429872D01*
X316175Y429798D01*
X316167Y429751D01*
X316145Y429692D01*
X316141Y429645D01*
X316134Y429622D01*
X316131Y429538D01*
X316120Y429467D01*
X316120Y393279D01*
X316124Y393248D01*
X316122Y393216D01*
X316144Y393107D01*
X316159Y392997D01*
X316172Y392969D01*
X316179Y392938D01*
X316217Y392869D01*
X316276Y392738D01*
X316313Y392694D01*
X316315Y392643D01*
X316319Y392501D01*
X316319Y392500D01*
X316319Y392499D01*
X316363Y392365D01*
X316406Y392230D01*
X316407Y392229D01*
X316407Y392228D01*
X316413Y392220D01*
X316565Y391994D01*
X316588Y391975D01*
X316602Y391955D01*
X316941Y391616D01*
X317981Y389106D01*
X317981Y386388D01*
X316941Y383878D01*
X315019Y381956D01*
X312509Y380916D01*
X309791Y380916D01*
G37*
%LPD*%
%LPC*%
G36*
X171679Y299557D02*
X171679Y299557D01*
X169168Y300597D01*
X167247Y302518D01*
X166207Y305029D01*
X166207Y307746D01*
X167247Y310257D01*
X169168Y312178D01*
X171679Y313218D01*
X174396Y313218D01*
X175982Y312562D01*
X176012Y312554D01*
X176039Y312540D01*
X176117Y312527D01*
X176257Y312491D01*
X176321Y312492D01*
X176370Y312484D01*
X201455Y312484D01*
X201485Y312489D01*
X201516Y312486D01*
X201593Y312504D01*
X201736Y312524D01*
X201795Y312550D01*
X201843Y312562D01*
X203429Y313218D01*
X206146Y313218D01*
X208657Y312178D01*
X210578Y310257D01*
X211618Y307746D01*
X211618Y305029D01*
X210578Y302518D01*
X208657Y300597D01*
X206146Y299557D01*
X203429Y299557D01*
X201843Y300213D01*
X201813Y300221D01*
X201786Y300235D01*
X201708Y300248D01*
X201568Y300284D01*
X201504Y300283D01*
X201455Y300291D01*
X176370Y300291D01*
X176340Y300286D01*
X176309Y300289D01*
X176232Y300271D01*
X176089Y300251D01*
X176030Y300225D01*
X175982Y300213D01*
X174396Y299557D01*
X171679Y299557D01*
G37*
%LPD*%
%LPC*%
G36*
X230836Y18732D02*
X230836Y18732D01*
X226168Y20665D01*
X222595Y24238D01*
X220662Y28906D01*
X220662Y33959D01*
X222595Y38627D01*
X226168Y42200D01*
X230836Y44133D01*
X235889Y44133D01*
X240557Y42200D01*
X244130Y38627D01*
X246063Y33959D01*
X246063Y28906D01*
X244130Y24238D01*
X240557Y20665D01*
X235889Y18732D01*
X230836Y18732D01*
G37*
%LPD*%
%LPC*%
G36*
X293916Y220182D02*
X293916Y220182D01*
X291406Y221222D01*
X289484Y223143D01*
X288444Y225654D01*
X288444Y228371D01*
X289484Y230882D01*
X289897Y231294D01*
X289949Y231364D01*
X290009Y231428D01*
X290035Y231477D01*
X290068Y231522D01*
X290099Y231603D01*
X290139Y231681D01*
X290147Y231729D01*
X290169Y231787D01*
X290181Y231935D01*
X290194Y232012D01*
X290194Y242650D01*
X290186Y242708D01*
X290188Y242764D01*
X290180Y242792D01*
X290179Y242824D01*
X290162Y242877D01*
X290154Y242932D01*
X290129Y242988D01*
X290116Y243039D01*
X290102Y243062D01*
X290092Y243095D01*
X290064Y243134D01*
X290038Y243191D01*
X289996Y243241D01*
X289971Y243284D01*
X289930Y243322D01*
X289897Y243368D01*
X289484Y243781D01*
X288444Y246291D01*
X288444Y249009D01*
X289484Y251519D01*
X291406Y253441D01*
X293916Y254481D01*
X296634Y254481D01*
X299144Y253441D01*
X301066Y251519D01*
X302106Y249009D01*
X302106Y246291D01*
X301066Y243781D01*
X300653Y243368D01*
X300631Y243338D01*
X300613Y243323D01*
X300586Y243283D01*
X300541Y243234D01*
X300515Y243185D01*
X300482Y243141D01*
X300470Y243108D01*
X300455Y243087D01*
X300440Y243037D01*
X300411Y242981D01*
X300403Y242934D01*
X300381Y242875D01*
X300378Y242843D01*
X300370Y242816D01*
X300367Y242719D01*
X300356Y242650D01*
X300356Y232012D01*
X300368Y231926D01*
X300371Y231838D01*
X300388Y231786D01*
X300396Y231731D01*
X300431Y231651D01*
X300458Y231568D01*
X300486Y231529D01*
X300512Y231471D01*
X300608Y231358D01*
X300653Y231294D01*
X301066Y230882D01*
X302106Y228371D01*
X302106Y225654D01*
X301066Y223143D01*
X299144Y221222D01*
X296634Y220182D01*
X293916Y220182D01*
G37*
%LPD*%
D10*
X323850Y684213D03*
X323850Y633413D03*
D11*
X273050Y730123D02*
X273050Y752602D01*
X323850Y752602D02*
X323850Y730123D01*
X374650Y730123D02*
X374650Y752602D01*
X425450Y752602D02*
X425450Y730123D01*
D12*
X479425Y523875D03*
D13*
X403225Y523875D03*
D14*
X233363Y66993D03*
D15*
X233363Y31433D03*
D16*
X271669Y423028D02*
X284749Y423028D01*
X284749Y408028D02*
X271669Y408028D01*
D17*
X407226Y331788D02*
X421450Y331788D01*
X421450Y306388D02*
X407226Y306388D01*
D18*
X527368Y357188D02*
X542608Y357188D01*
X542608Y331788D02*
X527368Y331788D01*
X527368Y306388D02*
X542608Y306388D01*
X277495Y293688D02*
X262255Y293688D01*
X262255Y319088D02*
X277495Y319088D01*
X277495Y344488D02*
X262255Y344488D01*
D16*
X144601Y126862D02*
X153849Y117613D01*
X140379Y104143D02*
X131130Y113392D01*
X158071Y140332D02*
X167320Y131083D01*
X215313Y423466D02*
X228393Y423466D01*
X228393Y404416D02*
X215313Y404416D01*
X215313Y442516D02*
X228393Y442516D01*
D10*
X68263Y215900D03*
X68263Y165100D03*
D18*
X239633Y680244D02*
X254873Y680244D01*
X254873Y654844D02*
X239633Y654844D01*
X239633Y629444D02*
X254873Y629444D01*
X254873Y604044D02*
X239633Y604044D01*
X239633Y578644D02*
X254873Y578644D01*
D19*
X422910Y42228D02*
X422910Y21273D01*
X368300Y21273D02*
X368300Y42228D01*
X313690Y42228D02*
X313690Y21273D01*
D20*
X159544Y675434D02*
X159544Y692198D01*
X159544Y738934D02*
X159544Y755698D01*
X203994Y692198D02*
X203994Y675434D01*
X203994Y738934D02*
X203994Y755698D01*
D21*
X288925Y496888D03*
X288925Y522288D03*
X288925Y547688D03*
X288925Y573088D03*
D22*
X60000Y60000D03*
X60000Y715000D03*
X500000Y715000D03*
X500000Y60000D03*
D21*
X23813Y363538D03*
X23813Y388938D03*
X23813Y414338D03*
X23813Y439738D03*
X23813Y465138D03*
X23813Y490538D03*
X23813Y515938D03*
X23813Y541338D03*
X23813Y592138D03*
X23813Y617538D03*
X23813Y642938D03*
D23*
X338138Y247650D03*
D24*
X338138Y225425D01*
D23*
X338138Y225425D03*
X173038Y306388D03*
D25*
X204788Y306388D01*
D23*
X204788Y306388D03*
D26*
X414338Y331788D02*
X534988Y331788D01*
D27*
X327025Y311150D03*
D26*
X347663Y331788D01*
X363538Y331788D01*
D27*
X363538Y331788D03*
D23*
X152797Y541338D03*
X112713Y490538D03*
X153988Y458788D03*
X100013Y406400D03*
X128588Y406400D03*
X195263Y501650D03*
X303213Y366713D03*
X298450Y401638D03*
X365125Y366713D03*
X334963Y414338D03*
X376238Y417513D03*
X139700Y309563D03*
X80963Y334963D03*
X20638Y301625D03*
X36513Y247650D03*
X58738Y247650D03*
X117475Y268288D03*
X128588Y234950D03*
X177800Y192088D03*
X268288Y214313D03*
X371475Y211138D03*
X365125Y153988D03*
X442913Y163513D03*
X409575Y280988D03*
X409575Y93663D03*
X252413Y98425D03*
X215900Y87313D03*
X171847Y601663D03*
X141684Y654050D03*
X508000Y284163D03*
X527050Y401638D03*
X298450Y273050D03*
X69850Y463550D03*
X392113Y387350D03*
X242888Y498475D03*
X325438Y198438D03*
D28*
X339725Y198438D01*
X350838Y209550D02*
X350838Y247650D01*
D23*
X350838Y247650D03*
D28*
X350838Y209550D02*
X339725Y198438D01*
D23*
X336550Y101600D03*
D29*
X377825Y101600D01*
X400050Y79375D01*
D23*
X400050Y79375D03*
X325438Y223838D03*
D28*
X325438Y268288D01*
X330200Y273050D01*
D23*
X330200Y273050D03*
X295275Y227013D03*
D24*
X295275Y247650D01*
D23*
X295275Y247650D03*
X195263Y481013D03*
D24*
X217488Y458788D01*
X241300Y458788D01*
D23*
X241300Y458788D03*
X311150Y387747D03*
D28*
X311547Y391319D01*
X311547Y434975D01*
D23*
X311547Y434975D03*
X287734Y459978D03*
D24*
X287734Y438944D01*
D23*
X287734Y438944D03*
D29*
X273050Y347663D02*
X269875Y344488D01*
X235347Y442516D02*
X221853Y442516D01*
X250825Y427038D02*
X250825Y412750D01*
D23*
X250825Y412750D03*
D29*
X250825Y427038D02*
X235347Y442516D01*
M02*
