G04 EAGLE Gerber X2 export*
%TF.Part,Single*%
%TF.FileFunction,Copper,L1,Top,Mixed*%
%TF.FilePolarity,Positive*%
%TF.GenerationSoftware,Autodesk,EAGLE,8.6.3*%
%TF.CreationDate,2019-07-12T16:26:13Z*%
G75*
%MOMM*%
%FSLAX34Y34*%
%LPD*%
%AMOC8*
5,1,8,0,0,1.08239X$1,22.5*%
G01*
%ADD10P,3.030692X8X22.500000*%
%ADD11C,2.247900*%
%ADD12C,2.184400*%
%ADD13P,2.364373X8X292.500000*%
%ADD14P,2.089446X8X112.500000*%
%ADD15C,1.930400*%
%ADD16R,1.300000X1.500000*%
%ADD17R,1.500000X1.300000*%
%ADD18C,1.308000*%
%ADD19R,1.803000X1.600000*%
%ADD20C,1.422400*%
%ADD21R,2.200000X1.800000*%
%ADD22R,1.400000X1.000000*%
%ADD23R,1.800000X2.200000*%
%ADD24R,1.000000X1.400000*%
%ADD25C,1.524000*%
%ADD26R,0.635000X1.422400*%
%ADD27R,0.304800X0.990600*%
%ADD28R,1.422400X0.635000*%
%ADD29R,2.000000X2.400000*%
%ADD30R,1.300000X1.600000*%
%ADD31R,1.600000X1.300000*%
%ADD32R,3.600000X3.250000*%
%ADD33C,2.095500*%
%ADD34C,1.676400*%
%ADD35R,0.500000X1.500000*%
%ADD36R,1.500000X0.500000*%
%ADD37R,1.400000X0.600000*%
%ADD38P,1.924489X8X202.500000*%
%ADD39C,5.842000*%
%ADD40C,0.406400*%
%ADD41C,0.609600*%
%ADD42C,2.540000*%
%ADD43C,1.270000*%
%ADD44C,0.812800*%
%ADD45C,0.756400*%
%ADD46C,0.304800*%
%ADD47C,1.300000*%
%ADD48C,0.203200*%

G36*
X327083Y3057D02*
X327083Y3057D01*
X327141Y3055D01*
X327223Y3077D01*
X327307Y3089D01*
X327360Y3112D01*
X327416Y3127D01*
X327489Y3170D01*
X327566Y3205D01*
X327611Y3243D01*
X327661Y3272D01*
X327719Y3334D01*
X327783Y3388D01*
X327815Y3437D01*
X327855Y3480D01*
X327894Y3555D01*
X327941Y3625D01*
X327958Y3681D01*
X327985Y3733D01*
X327996Y3801D01*
X328026Y3896D01*
X328029Y3996D01*
X328040Y4064D01*
X328040Y85725D01*
X328032Y85783D01*
X328034Y85841D01*
X328012Y85923D01*
X328000Y86007D01*
X327977Y86060D01*
X327962Y86116D01*
X327919Y86189D01*
X327884Y86266D01*
X327846Y86311D01*
X327817Y86361D01*
X327755Y86419D01*
X327701Y86483D01*
X327652Y86515D01*
X327609Y86555D01*
X327534Y86594D01*
X327464Y86641D01*
X327408Y86658D01*
X327356Y86685D01*
X327288Y86696D01*
X327193Y86726D01*
X327093Y86729D01*
X327025Y86740D01*
X279400Y86740D01*
X279313Y86728D01*
X279226Y86725D01*
X279173Y86708D01*
X279119Y86700D01*
X279039Y86665D01*
X278955Y86638D01*
X278916Y86610D01*
X278859Y86584D01*
X278746Y86488D01*
X278682Y86443D01*
X242467Y50228D01*
X224258Y50228D01*
X199155Y75330D01*
X199086Y75383D01*
X199022Y75443D01*
X198972Y75468D01*
X198928Y75501D01*
X198847Y75532D01*
X198769Y75572D01*
X198721Y75580D01*
X198663Y75603D01*
X198515Y75615D01*
X198438Y75628D01*
X179808Y75628D01*
X94678Y160758D01*
X94678Y190500D01*
X94670Y190558D01*
X94671Y190616D01*
X94650Y190698D01*
X94638Y190782D01*
X94614Y190835D01*
X94599Y190891D01*
X94556Y190964D01*
X94522Y191041D01*
X94484Y191086D01*
X94454Y191136D01*
X94392Y191194D01*
X94338Y191258D01*
X94289Y191290D01*
X94247Y191330D01*
X94172Y191369D01*
X94101Y191416D01*
X94046Y191433D01*
X93994Y191460D01*
X93926Y191471D01*
X93830Y191501D01*
X93731Y191504D01*
X93663Y191515D01*
X44450Y191515D01*
X44392Y191507D01*
X44334Y191509D01*
X44252Y191487D01*
X44169Y191475D01*
X44115Y191452D01*
X44059Y191437D01*
X43986Y191394D01*
X43909Y191359D01*
X43864Y191321D01*
X43814Y191292D01*
X43756Y191230D01*
X43692Y191176D01*
X43660Y191127D01*
X43620Y191084D01*
X43581Y191009D01*
X43535Y190939D01*
X43517Y190883D01*
X43490Y190831D01*
X43479Y190763D01*
X43449Y190668D01*
X43446Y190568D01*
X43435Y190500D01*
X43435Y136525D01*
X43447Y136438D01*
X43450Y136351D01*
X43467Y136298D01*
X43475Y136244D01*
X43510Y136164D01*
X43537Y136080D01*
X43565Y136041D01*
X43591Y135984D01*
X43687Y135871D01*
X43732Y135807D01*
X176193Y3346D01*
X176263Y3294D01*
X176327Y3234D01*
X176376Y3208D01*
X176420Y3175D01*
X176502Y3144D01*
X176580Y3104D01*
X176628Y3096D01*
X176686Y3074D01*
X176834Y3062D01*
X176911Y3049D01*
X327025Y3049D01*
X327083Y3057D01*
G37*
D10*
X323850Y684213D03*
X323850Y633413D03*
D11*
X273050Y730123D02*
X273050Y752602D01*
X323850Y752602D02*
X323850Y730123D01*
X374650Y730123D02*
X374650Y752602D01*
X425450Y752602D02*
X425450Y730123D01*
D12*
X479425Y523875D03*
D13*
X403225Y523875D03*
D14*
X233363Y66993D03*
D15*
X233363Y31433D03*
D16*
X312738Y128588D03*
X293688Y128588D03*
D17*
X334963Y182563D03*
X334963Y163513D03*
D16*
X201613Y165100D03*
X220663Y165100D03*
X156766Y655241D03*
X175816Y655241D03*
X127397Y655241D03*
X108347Y655241D03*
X162719Y412750D03*
X143669Y412750D03*
D17*
X256778Y448072D03*
X256778Y467122D03*
D16*
X522288Y284163D03*
X541338Y284163D03*
D18*
X284749Y423028D02*
X271669Y423028D01*
X271669Y408028D02*
X284749Y408028D01*
D17*
X367109Y449263D03*
X367109Y430213D03*
D19*
X391716Y401638D03*
X391716Y433388D03*
D17*
X36513Y279400D03*
X36513Y260350D03*
D16*
X158750Y323850D03*
X139700Y323850D03*
D17*
X36513Y320675D03*
X36513Y301625D03*
X177800Y231775D03*
X177800Y212725D03*
X238125Y120650D03*
X238125Y101600D03*
D20*
X407226Y331788D02*
X421450Y331788D01*
X421450Y306388D02*
X407226Y306388D01*
D16*
X409575Y266700D03*
X428625Y266700D03*
D17*
X423863Y112713D03*
X423863Y93663D03*
D16*
X266700Y273050D03*
X285750Y273050D03*
X269875Y366713D03*
X288925Y366713D03*
X339725Y211138D03*
X358775Y211138D03*
G36*
X278905Y85714D02*
X288097Y76522D01*
X277491Y65916D01*
X268299Y75108D01*
X278905Y85714D01*
G37*
G36*
X265434Y99184D02*
X274626Y89992D01*
X264020Y79386D01*
X254828Y88578D01*
X265434Y99184D01*
G37*
D21*
X495300Y306288D03*
X495300Y357288D03*
D22*
X363538Y233363D03*
X388938Y242888D03*
X388938Y223838D03*
D21*
X309563Y293588D03*
X309563Y344588D03*
D23*
X368400Y74613D03*
X317400Y74613D03*
D21*
X128588Y166588D03*
X128588Y217588D03*
D24*
X265113Y127000D03*
X255588Y152400D03*
X274638Y152400D03*
D25*
X527368Y357188D02*
X542608Y357188D01*
X542608Y331788D02*
X527368Y331788D01*
X527368Y306388D02*
X542608Y306388D01*
D26*
X444500Y187325D03*
X431800Y187325D03*
X419100Y187325D03*
X406400Y187325D03*
X444500Y244475D03*
X431800Y244475D03*
X419100Y244475D03*
X406400Y244475D03*
D25*
X277495Y293688D02*
X262255Y293688D01*
X262255Y319088D02*
X277495Y319088D01*
X277495Y344488D02*
X262255Y344488D01*
D18*
X144601Y126862D02*
X153849Y117613D01*
X140379Y104143D02*
X131130Y113392D01*
X158071Y140332D02*
X167320Y131083D01*
X215313Y423466D02*
X228393Y423466D01*
X228393Y404416D02*
X215313Y404416D01*
X215313Y442516D02*
X228393Y442516D01*
D27*
X347716Y460581D03*
X341216Y460581D03*
X334716Y460581D03*
X328216Y460581D03*
X321716Y460581D03*
X315216Y460581D03*
X308716Y460581D03*
X308716Y402225D03*
X315216Y402225D03*
X321716Y402225D03*
X328216Y402225D03*
X334716Y402225D03*
X341216Y402225D03*
X347716Y402225D03*
D28*
X158750Y306388D03*
X158750Y293688D03*
X158750Y280988D03*
X158750Y268288D03*
X101600Y306388D03*
X101600Y293688D03*
X101600Y280988D03*
X101600Y268288D03*
D10*
X68263Y215900D03*
X68263Y165100D03*
D25*
X239633Y680244D02*
X254873Y680244D01*
X254873Y654844D02*
X239633Y654844D01*
X239633Y629444D02*
X254873Y629444D01*
X254873Y604044D02*
X239633Y604044D01*
X239633Y578644D02*
X254873Y578644D01*
D29*
X122081Y628253D03*
X162081Y628253D03*
D30*
X499588Y381000D03*
X519588Y381000D03*
D31*
X338138Y123350D03*
X338138Y143350D03*
D30*
X201138Y187325D03*
X221138Y187325D03*
X184072Y621109D03*
X204072Y621109D03*
D31*
X364331Y400525D03*
X364331Y380525D03*
X80963Y259875D03*
X80963Y279875D03*
X58738Y279875D03*
X58738Y259875D03*
X80963Y301150D03*
X80963Y321150D03*
X58738Y301150D03*
X58738Y321150D03*
D30*
X221138Y209550D03*
X201138Y209550D03*
X221138Y231775D03*
X201138Y231775D03*
D31*
X542925Y380525D03*
X542925Y400525D03*
D30*
X235425Y142875D03*
X215425Y142875D03*
D31*
X215900Y121125D03*
X215900Y101125D03*
D32*
X474663Y235150D03*
X474663Y196650D03*
D30*
X430688Y163513D03*
X410688Y163513D03*
X389413Y266700D03*
X369413Y266700D03*
X293213Y152400D03*
X313213Y152400D03*
G36*
X182569Y104581D02*
X173376Y95388D01*
X162063Y106701D01*
X171256Y115894D01*
X182569Y104581D01*
G37*
G36*
X196712Y118724D02*
X187519Y109531D01*
X176206Y120844D01*
X185399Y130037D01*
X196712Y118724D01*
G37*
D31*
X387350Y166213D03*
X387350Y186213D03*
X365125Y186213D03*
X365125Y166213D03*
D33*
X422910Y42228D02*
X422910Y21273D01*
X368300Y21273D02*
X368300Y42228D01*
X313690Y42228D02*
X313690Y21273D01*
D24*
X112713Y384175D03*
X122238Y358775D03*
X103188Y358775D03*
X217488Y277813D03*
X227013Y252413D03*
X207963Y252413D03*
D34*
X159544Y675434D02*
X159544Y692198D01*
X159544Y738934D02*
X159544Y755698D01*
X203994Y692198D02*
X203994Y675434D01*
X203994Y738934D02*
X203994Y755698D01*
D35*
X193988Y557666D03*
X185988Y557666D03*
X177988Y557666D03*
X169988Y557666D03*
X161988Y557666D03*
X153988Y557666D03*
X145988Y557666D03*
X137988Y557666D03*
X129988Y557666D03*
X121988Y557666D03*
X113988Y557666D03*
D36*
X95988Y539666D03*
X95988Y531666D03*
X95988Y523666D03*
X95988Y515666D03*
X95988Y507666D03*
X95988Y499666D03*
X95988Y491666D03*
X95988Y483666D03*
X95988Y475666D03*
X95988Y467666D03*
X95988Y459666D03*
D35*
X113988Y441666D03*
X121988Y441666D03*
X129988Y441666D03*
X137988Y441666D03*
X145988Y441666D03*
X153988Y441666D03*
X161988Y441666D03*
X169988Y441666D03*
X177988Y441666D03*
X185988Y441666D03*
X193988Y441666D03*
D36*
X211988Y459666D03*
X211988Y467666D03*
X211988Y475666D03*
X211988Y483666D03*
X211988Y491666D03*
X211988Y499666D03*
X211988Y507666D03*
X211988Y515666D03*
X211988Y523666D03*
X211988Y531666D03*
X211988Y539666D03*
D17*
X158353Y578644D03*
X158353Y597694D03*
X69850Y495697D03*
X69850Y476647D03*
D16*
X230188Y483791D03*
X249238Y483791D03*
X119856Y422275D03*
X100806Y422275D03*
D37*
X311575Y173038D03*
X311575Y185738D03*
X311575Y198438D03*
X311575Y211138D03*
X311575Y223838D03*
X311575Y236538D03*
X311575Y249238D03*
X253575Y249238D03*
X253575Y236538D03*
X253575Y223838D03*
X253575Y211138D03*
X253575Y198438D03*
X253575Y185738D03*
X253575Y173038D03*
D38*
X288925Y496888D03*
X288925Y522288D03*
X288925Y547688D03*
X288925Y573088D03*
D31*
X103188Y321788D03*
X103188Y341788D03*
D39*
X60000Y60000D03*
X60000Y715000D03*
X500000Y715000D03*
X500000Y60000D03*
D38*
X23813Y363538D03*
X23813Y388938D03*
X23813Y414338D03*
X23813Y439738D03*
X23813Y465138D03*
X23813Y490538D03*
X23813Y515938D03*
X23813Y541338D03*
X23813Y592138D03*
X23813Y617538D03*
X23813Y642938D03*
D31*
X342503Y498950D03*
X342503Y478950D03*
D40*
X431800Y244475D02*
X444500Y244475D01*
X431800Y244475D02*
X431800Y263525D01*
X428625Y266700D01*
D41*
X444500Y244475D02*
X465338Y244475D01*
X474663Y235150D01*
D42*
X471488Y266700D02*
X458788Y279400D01*
X471488Y266700D02*
X471488Y238325D01*
X474663Y235150D01*
X458788Y279400D02*
X458788Y306388D01*
D43*
X495300Y306288D02*
X534888Y306288D01*
X534988Y306388D01*
D44*
X541338Y300038D01*
X541338Y284163D01*
D43*
X495300Y306288D02*
X495200Y306388D01*
X458788Y306388D01*
D42*
X458788Y420688D01*
X479425Y441325D01*
X479425Y523875D01*
X425450Y577850D02*
X425450Y741363D01*
X425450Y577850D02*
X479425Y523875D01*
D44*
X282575Y293688D02*
X269875Y293688D01*
D40*
X311575Y211138D02*
X339725Y211138D01*
D45*
X338138Y247650D03*
X338138Y225425D03*
D46*
X158750Y323850D02*
X157163Y325438D01*
D41*
X158750Y323850D02*
X158750Y306388D01*
X173038Y306388D01*
D45*
X173038Y306388D03*
D44*
X269875Y293688D02*
X309463Y293688D01*
X309563Y293588D01*
X499588Y361575D02*
X499588Y381000D01*
X499588Y361575D02*
X495300Y357288D01*
D43*
X495300Y344488D01*
X508000Y331788D02*
X534988Y331788D01*
X508000Y331788D02*
X495300Y344488D01*
D40*
X338138Y225425D02*
X338138Y212725D01*
X339725Y211138D01*
X338138Y247650D02*
X334963Y247650D01*
X309463Y273150D02*
X309463Y293688D01*
X309463Y273150D02*
X334963Y247650D01*
D44*
X266700Y273050D02*
X266700Y290513D01*
X269875Y293688D01*
D45*
X204788Y306388D03*
D41*
X217488Y293688D01*
X217488Y277813D01*
D43*
X309563Y293588D02*
X327025Y311050D01*
D44*
X327025Y311150D01*
D47*
X327025Y311150D03*
X363538Y331788D03*
D43*
X414338Y331788D01*
D41*
X269875Y293688D02*
X217488Y293688D01*
D42*
X403225Y119063D02*
X442913Y119063D01*
X368300Y74513D02*
X368300Y31750D01*
X368300Y74513D02*
X368400Y74613D01*
X368400Y84238D01*
X403225Y119063D01*
D44*
X417513Y119063D02*
X423863Y112713D01*
X417513Y119063D02*
X403225Y119063D01*
D41*
X444500Y187325D02*
X465338Y187325D01*
X474663Y196650D01*
D42*
X474663Y150813D02*
X442913Y119063D01*
X474663Y150813D02*
X474663Y196650D01*
D45*
X152797Y541338D03*
D40*
X153988Y542528D02*
X153988Y557666D01*
X153988Y542528D02*
X152797Y541338D01*
D45*
X112713Y490538D03*
D40*
X111584Y491666D02*
X95988Y491666D01*
X111584Y491666D02*
X112713Y490538D01*
D45*
X153988Y458788D03*
D40*
X153988Y441666D01*
D45*
X100013Y406400D03*
X128588Y406400D03*
D44*
X137319Y406400D01*
X143669Y412750D01*
D45*
X195263Y501650D03*
D40*
X197247Y499666D01*
X211988Y499666D01*
D44*
X254000Y468313D02*
X260350Y468313D01*
X256778Y467122D01*
X249238Y473075D02*
X249238Y483791D01*
X249238Y473075D02*
X254000Y468313D01*
D45*
X303213Y366713D03*
X298450Y401638D03*
D44*
X303213Y366713D02*
X288925Y366713D01*
D46*
X299038Y402225D02*
X308716Y402225D01*
X299038Y402225D02*
X298450Y401638D01*
D45*
X365125Y366713D03*
X334963Y414338D03*
D46*
X334716Y414091D02*
X334716Y402225D01*
X334716Y414091D02*
X334963Y414338D01*
D45*
X376238Y417513D03*
X139700Y309563D03*
D44*
X139700Y323850D01*
D45*
X80963Y334963D03*
D44*
X80963Y321150D01*
D45*
X20638Y301625D03*
D44*
X36513Y301625D01*
D45*
X36513Y247650D03*
X58738Y247650D03*
D44*
X36513Y247650D02*
X36513Y260350D01*
X58738Y259875D02*
X58738Y247650D01*
D45*
X117475Y268288D03*
D41*
X101600Y268288D01*
D45*
X128588Y234950D03*
D44*
X128588Y217588D01*
X180975Y209550D02*
X201138Y209550D01*
X180975Y209550D02*
X177800Y212725D01*
D45*
X177800Y192088D03*
D44*
X177800Y212725D01*
D45*
X268288Y214313D03*
D41*
X265113Y211138D02*
X253575Y211138D01*
X265113Y211138D02*
X268288Y214313D01*
D45*
X371475Y211138D03*
D44*
X358775Y211138D01*
D45*
X365125Y153988D03*
D44*
X365125Y166213D01*
D45*
X442913Y163513D03*
D44*
X430688Y163513D01*
D45*
X409575Y280988D03*
D44*
X409575Y266700D01*
D41*
X406400Y263525D02*
X406400Y244475D01*
X406400Y263525D02*
X409575Y266700D01*
D45*
X409575Y93663D03*
D44*
X423863Y93663D01*
D45*
X252413Y98425D03*
D44*
X249238Y101600D02*
X238125Y101600D01*
X249238Y101600D02*
X252413Y98425D01*
X261552Y89285D01*
X264727Y89285D01*
D45*
X215900Y87313D03*
D44*
X215900Y101125D01*
X170534Y135708D02*
X162695Y135708D01*
X170534Y135708D02*
X186459Y119784D01*
D45*
X171847Y601663D03*
D44*
X162322Y601663D02*
X158353Y597694D01*
X162322Y601663D02*
X171847Y601663D01*
D45*
X141684Y654050D03*
D44*
X128588Y654050D02*
X127397Y655241D01*
X128588Y654050D02*
X141684Y654050D01*
X155575Y654050D02*
X156766Y655241D01*
X155575Y654050D02*
X141684Y654050D01*
D45*
X508000Y284163D03*
D44*
X522288Y284163D01*
D45*
X527050Y401638D03*
D44*
X541813Y401638D02*
X542925Y400525D01*
X541813Y401638D02*
X527050Y401638D01*
D45*
X298450Y273050D03*
D44*
X285750Y273050D01*
X100806Y422275D02*
X100013Y421481D01*
X100013Y406400D01*
D45*
X69850Y463550D03*
D44*
X69850Y476647D01*
X365125Y379731D02*
X365125Y366713D01*
X365125Y379731D02*
X364331Y380525D01*
D45*
X392113Y387350D03*
D44*
X392113Y401241D01*
X391716Y401638D01*
X367109Y426641D02*
X367109Y430213D01*
X367109Y426641D02*
X376238Y417513D01*
D45*
X242888Y498475D03*
D44*
X249238Y492125D01*
X249238Y483791D01*
D40*
X406400Y187325D02*
X405925Y186850D01*
X406400Y187325D02*
X406400Y164625D01*
X410688Y163513D01*
X406400Y187325D02*
X406400Y219075D01*
D46*
X388938Y223838D02*
X381000Y223838D01*
X376238Y228600D01*
D40*
X389413Y262413D02*
X389413Y266700D01*
D46*
X376238Y249238D02*
X376238Y228600D01*
X376238Y249238D02*
X389413Y262413D01*
D40*
X388938Y223838D02*
X401638Y223838D01*
X406400Y219075D01*
X311575Y236538D02*
X284163Y236538D01*
X271463Y223838D02*
X253575Y223838D01*
X271463Y223838D02*
X284163Y236538D01*
D46*
X225900Y190500D02*
X221138Y187325D01*
X239713Y223838D02*
X253575Y223838D01*
X230188Y190500D02*
X225900Y190500D01*
X230188Y190500D02*
X234950Y195263D01*
X234950Y219075D01*
X239713Y223838D01*
X363538Y233363D02*
X363538Y234950D01*
X363538Y260825D01*
X369413Y266700D01*
D40*
X361950Y236538D02*
X363538Y234950D01*
X361950Y236538D02*
X311575Y236538D01*
D46*
X311575Y198438D02*
X325438Y198438D01*
D45*
X325438Y198438D03*
X350838Y247650D03*
D46*
X350838Y368300D01*
X347716Y371422D01*
X347716Y402225D01*
D40*
X311575Y173038D02*
X311625Y172988D01*
X311575Y173038D02*
X314325Y173038D01*
X314325Y153513D02*
X313213Y152400D01*
X314325Y153513D02*
X314325Y173038D01*
X313163Y171450D02*
X311575Y173038D01*
X316338Y168275D01*
X330200Y168275D01*
X334963Y163513D01*
D44*
X293213Y152400D02*
X274638Y152400D01*
D40*
X292100Y151925D02*
X293213Y152400D01*
D45*
X336550Y101600D03*
X400050Y79375D03*
D44*
X422910Y56515D01*
X422910Y31750D01*
X293213Y129063D02*
X293213Y152400D01*
D40*
X293213Y129063D02*
X293688Y128588D01*
D44*
X293688Y114300D02*
X306388Y101600D01*
X293688Y114300D02*
X293688Y128588D01*
X306388Y101600D02*
X336550Y101600D01*
X165821Y105641D02*
X149225Y122238D01*
X165821Y105641D02*
X172316Y105641D01*
D40*
X387350Y134938D02*
X387350Y166213D01*
D43*
X313690Y70903D02*
X313690Y31750D01*
X313690Y70903D02*
X317400Y74613D01*
D40*
X327025Y74613D01*
X387350Y134938D01*
D43*
X128588Y166588D02*
X69750Y166588D01*
X68263Y165100D01*
D44*
X92075Y188913D01*
X92075Y248763D02*
X80963Y259875D01*
X92075Y248763D02*
X92075Y188913D01*
D40*
X349250Y185738D02*
X349250Y153988D01*
D44*
X365125Y186213D02*
X387350Y186213D01*
D40*
X365125Y186213D02*
X364650Y185738D01*
D44*
X349250Y185738D01*
D40*
X341788Y146525D02*
X338138Y143350D01*
X341788Y146525D02*
X349250Y153988D01*
X334169Y183356D02*
X331788Y185738D01*
X334169Y183356D02*
X334963Y182563D01*
X331788Y185738D02*
X311575Y185738D01*
D44*
X336550Y185738D02*
X349250Y185738D01*
D40*
X336550Y185738D02*
X334169Y183356D01*
D46*
X325438Y223838D02*
X311575Y223838D01*
D45*
X325438Y223838D03*
X330200Y273050D03*
D46*
X341313Y284163D02*
X341313Y365125D01*
X321716Y384722D01*
X321716Y402225D01*
X341313Y284163D02*
X330200Y273050D01*
D40*
X312738Y128588D02*
X314800Y123350D01*
D44*
X338138Y123350D01*
D40*
X265113Y127000D02*
X265113Y165100D01*
X268288Y168275D01*
X268288Y193675D01*
X265113Y196850D01*
X263525Y198438D01*
X253575Y198438D01*
X265113Y196850D02*
X295275Y227013D01*
D45*
X295275Y227013D03*
X295275Y247650D03*
D40*
X296863Y249238D01*
X311575Y249238D01*
D46*
X225425Y169863D02*
X220663Y165100D01*
X249238Y198438D02*
X253575Y198438D01*
X230188Y169863D02*
X225425Y169863D01*
X230188Y169863D02*
X236538Y176213D01*
X236538Y185738D01*
X249238Y198438D01*
X201138Y187325D02*
X201613Y185263D01*
D44*
X201613Y165100D01*
D40*
X193988Y557666D02*
X193988Y567447D01*
X230584Y604044D01*
X247253Y604044D01*
D46*
X321716Y581572D02*
X321716Y460581D01*
X321716Y581572D02*
X299244Y604044D01*
X247253Y604044D01*
D40*
X211988Y483666D02*
X197916Y483666D01*
X195263Y481013D01*
D45*
X195263Y481013D03*
X241300Y458788D03*
D48*
X242491Y457597D01*
X271859Y457597D01*
X334716Y460581D02*
X334716Y452984D01*
X277416Y452041D02*
X271859Y457597D01*
X277416Y452041D02*
X333772Y452041D01*
X334716Y452984D01*
X334716Y460581D02*
X334716Y471163D01*
X342503Y478950D01*
D40*
X177988Y557666D02*
X177988Y572084D01*
X217488Y611584D01*
X217488Y649288D02*
X223044Y654844D01*
X217488Y649288D02*
X217488Y611584D01*
X223044Y654844D02*
X247253Y654844D01*
D46*
X257969Y654844D01*
X328216Y584597D02*
X328216Y460581D01*
X328216Y584597D02*
X257969Y654844D01*
X315216Y402225D02*
X315216Y391813D01*
X311150Y387747D01*
D45*
X311150Y387747D03*
X311547Y434975D03*
D40*
X251556Y507666D02*
X211988Y507666D01*
D45*
X287734Y459978D03*
X287734Y438944D03*
D40*
X291703Y434975D01*
X311547Y434975D01*
D46*
X338138Y434975D01*
D40*
X287734Y459978D02*
X287734Y471488D01*
X251556Y507666D01*
D46*
X364331Y408781D02*
X364331Y400525D01*
X364331Y408781D02*
X338138Y434975D01*
X197247Y456406D02*
X163909Y456406D01*
X161988Y454484D01*
X161988Y441666D01*
D40*
X161988Y413481D01*
X162719Y412750D01*
D46*
X341216Y409478D02*
X341216Y402225D01*
X341216Y409478D02*
X344488Y412750D01*
X344488Y417513D01*
X339725Y422275D01*
X325438Y422275D01*
X328216Y409972D02*
X328216Y402225D01*
X325438Y412750D02*
X325438Y422275D01*
X325438Y412750D02*
X328216Y409972D01*
X201613Y452041D02*
X197247Y456406D01*
X201613Y452041D02*
X201613Y431800D01*
X209947Y423466D01*
X221853Y423466D01*
D40*
X277772Y423466D01*
X278209Y423028D01*
D46*
X278963Y422275D01*
X325438Y422275D01*
D40*
X145988Y441666D02*
X145988Y477775D01*
X161988Y499666D02*
X161988Y557666D01*
X161988Y499666D02*
X161988Y493775D01*
X160338Y492125D01*
X145988Y477775D01*
X161988Y499666D02*
X95988Y499666D01*
X160338Y492125D02*
X160797Y491666D01*
X211988Y491666D01*
X161988Y557666D02*
X161988Y578309D01*
X161988Y578959D02*
X158353Y578644D01*
X161988Y578959D02*
X161988Y578309D01*
X184072Y600394D02*
X184072Y621109D01*
X184072Y600394D02*
X161988Y578309D01*
X212050Y491728D02*
X211988Y491666D01*
D44*
X269875Y366713D02*
X269875Y344488D01*
X309463Y344488D01*
X309563Y344588D01*
D40*
X222313Y491666D02*
X211988Y491666D01*
X222313Y491666D02*
X230188Y483791D01*
D44*
X230188Y448469D01*
D40*
X124619Y427038D02*
X119856Y422275D01*
X142875Y427038D02*
X145988Y430150D01*
X145988Y441666D01*
X142875Y427038D02*
X124619Y427038D01*
D44*
X221853Y442516D02*
X224234Y442516D01*
X230188Y448469D01*
X227409Y448072D02*
X221853Y442516D01*
D45*
X250825Y412750D03*
D40*
X69850Y495697D02*
X60722Y495697D01*
X69850Y495697D02*
X73819Y499666D01*
X95988Y499666D01*
D44*
X250825Y412750D02*
X250825Y385763D01*
X269875Y366713D01*
X375841Y449263D02*
X391716Y433388D01*
X375841Y449263D02*
X367109Y449263D01*
D46*
X363538Y447278D01*
X347663Y447278D01*
X347716Y448919D02*
X347716Y460581D01*
X347716Y448919D02*
X347663Y447278D01*
X257572Y447278D01*
X256778Y448072D01*
D44*
X230584Y448072D01*
X230188Y448469D01*
D41*
X112713Y404813D02*
X112713Y384175D01*
X117475Y419894D02*
X119856Y422275D01*
X117475Y409575D02*
X112713Y404813D01*
X117475Y409575D02*
X117475Y419894D01*
D40*
X52388Y487363D02*
X60722Y495697D01*
X52388Y487363D02*
X52388Y461963D01*
X30163Y439738D01*
X23813Y439738D01*
X342503Y498950D02*
X355125Y498950D01*
X367109Y486966D02*
X367109Y449263D01*
X367109Y486966D02*
X355125Y498950D01*
D41*
X158750Y268288D02*
X134938Y268288D01*
X122238Y280988D02*
X101600Y280988D01*
X122238Y280988D02*
X134938Y268288D01*
X101600Y280988D02*
X82075Y280988D01*
D40*
X80963Y279875D01*
D44*
X58738Y279875D01*
X36988Y279875D01*
X36513Y279400D01*
D41*
X122238Y303213D02*
X122238Y358775D01*
X112713Y293688D02*
X101600Y293688D01*
X112713Y293688D02*
X122238Y303213D01*
D44*
X80963Y301150D02*
X58738Y301150D01*
D41*
X80963Y301150D02*
X88425Y293688D01*
X101600Y293688D01*
D40*
X177800Y246063D02*
X193675Y261938D01*
X177800Y246063D02*
X177800Y231775D01*
D44*
X201138Y231775D01*
D40*
X193675Y441353D02*
X193988Y441666D01*
X193675Y441353D02*
X193675Y261938D01*
D46*
X215425Y142875D02*
X215900Y142400D01*
D44*
X215900Y121125D01*
X237650Y121125D01*
D46*
X238125Y120650D01*
D40*
X161925Y242888D02*
X185738Y266700D01*
X192088Y142875D02*
X215425Y142875D01*
X161925Y173038D02*
X161925Y242888D01*
X161925Y173038D02*
X192088Y142875D01*
X185738Y441416D02*
X185988Y441666D01*
X185738Y441416D02*
X185738Y266700D01*
D44*
X221138Y231775D02*
X221138Y209550D01*
D46*
X221138Y231775D02*
X225900Y236538D01*
X253575Y236538D01*
X227013Y237650D02*
X221138Y231775D01*
D44*
X227013Y237650D02*
X227013Y252413D01*
D46*
X207963Y252413D02*
X207963Y261938D01*
X211138Y265113D01*
X250825Y249238D02*
X253575Y249238D01*
X234950Y265113D02*
X211138Y265113D01*
X234950Y265113D02*
X250825Y249238D01*
D41*
X158750Y280988D02*
X158750Y293688D01*
D40*
X177988Y392300D02*
X177988Y441666D01*
D46*
X61438Y320675D02*
X58738Y321150D01*
D40*
X82550Y371475D02*
X157163Y371475D01*
X177988Y392300D01*
X58738Y347663D02*
X58738Y321150D01*
X58738Y347663D02*
X82550Y371475D01*
D44*
X58738Y321150D02*
X58263Y320675D01*
X36513Y320675D01*
D42*
X323850Y684213D02*
X323850Y741363D01*
X323850Y633413D02*
X352425Y633413D01*
X374650Y655638D01*
X374650Y741363D01*
D44*
X542925Y365125D02*
X534988Y357188D01*
X542925Y365125D02*
X542925Y380525D01*
X520063Y380525D02*
X519588Y381000D01*
X520063Y380525D02*
X542925Y380525D01*
D40*
X162081Y628253D02*
X145988Y612159D01*
X145988Y557666D01*
D44*
X162081Y628253D02*
X175816Y641988D01*
X175816Y655241D01*
D40*
X137988Y612347D02*
X122081Y628253D01*
X137988Y612347D02*
X137988Y557666D01*
D44*
X122081Y628253D02*
X108347Y641988D01*
X108347Y655241D01*
D40*
X185988Y570163D02*
X185988Y557666D01*
X185988Y570163D02*
X225425Y609600D01*
X229394Y629444D02*
X247253Y629444D01*
X225425Y625475D02*
X225425Y609600D01*
X225425Y625475D02*
X229394Y629444D01*
D48*
X169988Y575197D02*
X169988Y557666D01*
X169988Y575197D02*
X204072Y609281D01*
X204072Y621109D01*
D40*
X204072Y682625D01*
X204072Y683738D01*
X203994Y683816D01*
X206453Y680244D02*
X247253Y680244D01*
X206453Y680244D02*
X204072Y682625D01*
X121988Y568178D02*
X121988Y557666D01*
X121988Y568178D02*
X98028Y592138D01*
X23813Y592138D01*
X23813Y617538D02*
X87313Y617538D01*
X129988Y574863D02*
X129988Y557666D01*
X129988Y574863D02*
X87313Y617538D01*
X95988Y531666D02*
X33484Y531666D01*
X23813Y541338D01*
X86791Y483666D02*
X95988Y483666D01*
X86791Y483666D02*
X82550Y479425D01*
X82550Y454025D01*
X42863Y414338D02*
X23813Y414338D01*
X42863Y414338D02*
X82550Y454025D01*
X95988Y475666D02*
X108534Y475666D01*
X109538Y474663D01*
X109538Y455613D01*
X42863Y388938D02*
X23813Y388938D01*
X42863Y388938D02*
X109538Y455613D01*
X253575Y175788D02*
X253575Y173038D01*
X253575Y175788D02*
X253575Y185738D01*
D46*
X235425Y157638D02*
X235425Y142875D01*
X235425Y157638D02*
X253575Y175788D01*
D40*
X95988Y507666D02*
X53641Y507666D01*
X41275Y495300D02*
X41275Y473075D01*
X33338Y465138D01*
X23813Y465138D01*
X41275Y495300D02*
X53641Y507666D01*
X48941Y515666D02*
X95988Y515666D01*
X48941Y515666D02*
X23813Y490538D01*
X31541Y523666D02*
X95988Y523666D01*
X31541Y523666D02*
X23813Y515938D01*
X285750Y573088D02*
X288925Y573088D01*
X252328Y539666D02*
X211988Y539666D01*
X252328Y539666D02*
X285750Y573088D01*
X212134Y531813D02*
X211988Y531666D01*
X279400Y547688D02*
X288925Y547688D01*
X263525Y531813D02*
X212134Y531813D01*
X263525Y531813D02*
X279400Y547688D01*
X287547Y523666D02*
X211988Y523666D01*
X287547Y523666D02*
X288925Y522288D01*
X288925Y496888D02*
X279400Y496888D01*
X260622Y515666D02*
X211988Y515666D01*
X260622Y515666D02*
X279400Y496888D01*
D41*
X103188Y307975D02*
X101600Y306388D01*
X103188Y307975D02*
X103188Y321788D01*
D44*
X103188Y341788D02*
X103188Y358775D01*
M02*
