M48
;GenerationSoftware,Autodesk,EAGLE,8.6.3*%
;CreationDate,2019-07-12T15:56:26Z*%
FMAT,2
ICI,OFF
METRIC,TZ,000.000
T10C0.350
T9C0.600
T8C0.800
T7C0.813
T6C1.000
T5C1.016
T4C1.300
T3C1.397
T2C1.499
T1C3.000
%
G90
M71
T1
X6000Y71500
X6000Y6000
X50000Y6000
X50000Y71500
T2
X42545Y74136
X37465Y74136
X32385Y74136
X27305Y74136
T3
X31369Y3175
X36830Y3175
X42291Y3175
T4
X6826Y16510
X6826Y21590
X32385Y68421
X32385Y63341
T5
X24725Y57864
X28892Y49689
X28892Y52229
X28892Y54769
X28892Y57309
X2381Y36354
X2381Y38894
X2381Y41434
X2381Y43974
X2381Y46514
X2381Y49054
X2381Y51594
X2381Y54134
X2381Y59214
X53499Y33179
X2381Y61754
X2381Y64294
X24725Y62944
X53499Y35719
X53499Y30639
X26987Y29369
X26987Y31909
X26987Y34449
X24725Y68024
X24725Y65484
X24725Y60404
T6
X15954Y68382
X15954Y74732
X20399Y68382
X20399Y74732
T7
X23336Y3143
X23336Y6699
T8
X22185Y44252
X40323Y52387
X27821Y42303
X27821Y40803
X41434Y33179
X41434Y30639
X47942Y52387
X14922Y12224
X13575Y10877
X16270Y13571
X22185Y42347
X22185Y40442
T9
X32702Y31115
X36354Y33179
T10
X2064Y30162
X3651Y24765
X5874Y24765
X11747Y26829
X12859Y23495
X17780Y19209
X26829Y21431
X37148Y21114
X36513Y15399
X40958Y28099
X40958Y9366
X25241Y9843
X21590Y8731
X17185Y60166
X14168Y65405
X50800Y28416
X52705Y40164
X10001Y40640
X6985Y46355
X39211Y38735
X32544Y19844
X31115Y38775
X24130Y45879
X33814Y24765
X33814Y22542
X19526Y48101
X29845Y27305
X17304Y30639
X29527Y24765
X29527Y22701
X33020Y27305
X20479Y30639
X15280Y54134
X11271Y49054
X15399Y45879
X12859Y40640
X19526Y50165
X24289Y46831
X25082Y41275
X29845Y40164
X32544Y22384
X40005Y7937
X35084Y24765
X33655Y10160
X44291Y16351
X28773Y45998
X31155Y43498
X30321Y36671
X36513Y36671
X33496Y41434
X37624Y41751
X13970Y30956
X8096Y33496
X28773Y43894
M30