G04 EAGLE Gerber X2 export*
%TF.Part,Single*%
%TF.FileFunction,Paste,Top*%
%TF.FilePolarity,Positive*%
%TF.GenerationSoftware,Autodesk,EAGLE,8.6.3*%
%TF.CreationDate,2019-07-12T16:31:33Z*%
G75*
%MOMM*%
%FSLAX34Y34*%
%LPD*%
%AMOC8*
5,1,8,0,0,1.08239X$1,22.5*%
G01*
%ADD10R,1.300000X1.500000*%
%ADD11R,1.500000X1.300000*%
%ADD12R,1.803000X1.600000*%
%ADD13R,2.200000X1.800000*%
%ADD14R,1.400000X1.000000*%
%ADD15R,1.800000X2.200000*%
%ADD16R,1.000000X1.400000*%
%ADD17R,0.635000X1.422400*%
%ADD18R,0.304800X0.990600*%
%ADD19R,1.422400X0.635000*%
%ADD20R,2.000000X2.400000*%
%ADD21R,1.300000X1.600000*%
%ADD22R,1.600000X1.300000*%
%ADD23R,3.600000X3.250000*%
%ADD24R,0.500000X1.500000*%
%ADD25R,1.500000X0.500000*%
%ADD26R,1.400000X0.600000*%


D10*
X312738Y128588D03*
X293688Y128588D03*
D11*
X334963Y182563D03*
X334963Y163513D03*
D10*
X201613Y165100D03*
X220663Y165100D03*
X156766Y655241D03*
X175816Y655241D03*
X127397Y655241D03*
X108347Y655241D03*
X162719Y412750D03*
X143669Y412750D03*
D11*
X256778Y448072D03*
X256778Y467122D03*
D10*
X522288Y284163D03*
X541338Y284163D03*
D11*
X367109Y449263D03*
X367109Y430213D03*
D12*
X391716Y401638D03*
X391716Y433388D03*
D11*
X36513Y279400D03*
X36513Y260350D03*
D10*
X158750Y323850D03*
X139700Y323850D03*
D11*
X36513Y320675D03*
X36513Y301625D03*
X177800Y231775D03*
X177800Y212725D03*
X238125Y120650D03*
X238125Y101600D03*
D10*
X409575Y266700D03*
X428625Y266700D03*
D11*
X423863Y112713D03*
X423863Y93663D03*
D10*
X266700Y273050D03*
X285750Y273050D03*
X269875Y366713D03*
X288925Y366713D03*
X339725Y211138D03*
X358775Y211138D03*
G36*
X278905Y85714D02*
X288097Y76522D01*
X277491Y65916D01*
X268299Y75108D01*
X278905Y85714D01*
G37*
G36*
X265434Y99184D02*
X274626Y89992D01*
X264020Y79386D01*
X254828Y88578D01*
X265434Y99184D01*
G37*
D13*
X495300Y306288D03*
X495300Y357288D03*
D14*
X363538Y233363D03*
X388938Y242888D03*
X388938Y223838D03*
D13*
X309563Y293588D03*
X309563Y344588D03*
D15*
X368400Y74613D03*
X317400Y74613D03*
D13*
X128588Y166588D03*
X128588Y217588D03*
D16*
X265113Y127000D03*
X255588Y152400D03*
X274638Y152400D03*
D17*
X444500Y187325D03*
X431800Y187325D03*
X419100Y187325D03*
X406400Y187325D03*
X444500Y244475D03*
X431800Y244475D03*
X419100Y244475D03*
X406400Y244475D03*
D18*
X347716Y460581D03*
X341216Y460581D03*
X334716Y460581D03*
X328216Y460581D03*
X321716Y460581D03*
X315216Y460581D03*
X308716Y460581D03*
X308716Y402225D03*
X315216Y402225D03*
X321716Y402225D03*
X328216Y402225D03*
X334716Y402225D03*
X341216Y402225D03*
X347716Y402225D03*
D19*
X158750Y306388D03*
X158750Y293688D03*
X158750Y280988D03*
X158750Y268288D03*
X101600Y306388D03*
X101600Y293688D03*
X101600Y280988D03*
X101600Y268288D03*
D20*
X122081Y628253D03*
X162081Y628253D03*
D21*
X499588Y381000D03*
X519588Y381000D03*
D22*
X338138Y123350D03*
X338138Y143350D03*
D21*
X201138Y187325D03*
X221138Y187325D03*
X184072Y621109D03*
X204072Y621109D03*
D22*
X364331Y400525D03*
X364331Y380525D03*
X80963Y259875D03*
X80963Y279875D03*
X58738Y279875D03*
X58738Y259875D03*
X80963Y301150D03*
X80963Y321150D03*
X58738Y301150D03*
X58738Y321150D03*
D21*
X221138Y209550D03*
X201138Y209550D03*
X221138Y231775D03*
X201138Y231775D03*
D22*
X542925Y380525D03*
X542925Y400525D03*
D21*
X235425Y142875D03*
X215425Y142875D03*
D22*
X215900Y121125D03*
X215900Y101125D03*
D23*
X474663Y235150D03*
X474663Y196650D03*
D21*
X430688Y163513D03*
X410688Y163513D03*
X389413Y266700D03*
X369413Y266700D03*
X293213Y152400D03*
X313213Y152400D03*
G36*
X182569Y104581D02*
X173376Y95388D01*
X162063Y106701D01*
X171256Y115894D01*
X182569Y104581D01*
G37*
G36*
X196712Y118724D02*
X187519Y109531D01*
X176206Y120844D01*
X185399Y130037D01*
X196712Y118724D01*
G37*
D22*
X387350Y166213D03*
X387350Y186213D03*
X365125Y186213D03*
X365125Y166213D03*
D16*
X112713Y384175D03*
X122238Y358775D03*
X103188Y358775D03*
X217488Y277813D03*
X227013Y252413D03*
X207963Y252413D03*
D24*
X193988Y557666D03*
X185988Y557666D03*
X177988Y557666D03*
X169988Y557666D03*
X161988Y557666D03*
X153988Y557666D03*
X145988Y557666D03*
X137988Y557666D03*
X129988Y557666D03*
X121988Y557666D03*
X113988Y557666D03*
D25*
X95988Y539666D03*
X95988Y531666D03*
X95988Y523666D03*
X95988Y515666D03*
X95988Y507666D03*
X95988Y499666D03*
X95988Y491666D03*
X95988Y483666D03*
X95988Y475666D03*
X95988Y467666D03*
X95988Y459666D03*
D24*
X113988Y441666D03*
X121988Y441666D03*
X129988Y441666D03*
X137988Y441666D03*
X145988Y441666D03*
X153988Y441666D03*
X161988Y441666D03*
X169988Y441666D03*
X177988Y441666D03*
X185988Y441666D03*
X193988Y441666D03*
D25*
X211988Y459666D03*
X211988Y467666D03*
X211988Y475666D03*
X211988Y483666D03*
X211988Y491666D03*
X211988Y499666D03*
X211988Y507666D03*
X211988Y515666D03*
X211988Y523666D03*
X211988Y531666D03*
X211988Y539666D03*
D11*
X158353Y578644D03*
X158353Y597694D03*
X69850Y495697D03*
X69850Y476647D03*
D10*
X230188Y483791D03*
X249238Y483791D03*
X119856Y422275D03*
X100806Y422275D03*
D26*
X311575Y173038D03*
X311575Y185738D03*
X311575Y198438D03*
X311575Y211138D03*
X311575Y223838D03*
X311575Y236538D03*
X311575Y249238D03*
X253575Y249238D03*
X253575Y236538D03*
X253575Y223838D03*
X253575Y211138D03*
X253575Y198438D03*
X253575Y185738D03*
X253575Y173038D03*
D22*
X103188Y321788D03*
X103188Y341788D03*
X342503Y498950D03*
X342503Y478950D03*
M02*
