G04 EAGLE Gerber X2 export*
%TF.Part,Single*%
%TF.FileFunction,Soldermask,Bot,1*%
%TF.FilePolarity,Negative*%
%TF.GenerationSoftware,Autodesk,EAGLE,8.6.3*%
%TF.CreationDate,2019-07-12T16:26:13Z*%
G75*
%MOMM*%
%FSLAX34Y34*%
%LPD*%
%AMOC8*
5,1,8,0,0,1.08239X$1,22.5*%
G01*
%ADD10P,3.250634X8X22.500000*%
%ADD11C,2.451100*%
%ADD12C,2.387600*%
%ADD13P,2.584314X8X292.500000*%
%ADD14P,2.309387X8X112.500000*%
%ADD15C,2.133600*%
%ADD16C,1.511200*%
%ADD17C,1.625600*%
%ADD18C,1.727200*%
%ADD19C,2.298700*%
%ADD20C,1.879600*%
%ADD21P,2.144431X8X202.500000*%
%ADD22C,6.045200*%
%ADD23C,0.959600*%
%ADD24C,1.503200*%


D10*
X323850Y684213D03*
X323850Y633413D03*
D11*
X273050Y730123D02*
X273050Y752602D01*
X323850Y752602D02*
X323850Y730123D01*
X374650Y730123D02*
X374650Y752602D01*
X425450Y752602D02*
X425450Y730123D01*
D12*
X479425Y523875D03*
D13*
X403225Y523875D03*
D14*
X233363Y66993D03*
D15*
X233363Y31433D03*
D16*
X271669Y423028D02*
X284749Y423028D01*
X284749Y408028D02*
X271669Y408028D01*
D17*
X407226Y331788D02*
X421450Y331788D01*
X421450Y306388D02*
X407226Y306388D01*
D18*
X527368Y357188D02*
X542608Y357188D01*
X542608Y331788D02*
X527368Y331788D01*
X527368Y306388D02*
X542608Y306388D01*
X277495Y293688D02*
X262255Y293688D01*
X262255Y319088D02*
X277495Y319088D01*
X277495Y344488D02*
X262255Y344488D01*
D16*
X144601Y126862D02*
X153849Y117613D01*
X140379Y104143D02*
X131130Y113392D01*
X158071Y140332D02*
X167320Y131083D01*
X215313Y423466D02*
X228393Y423466D01*
X228393Y404416D02*
X215313Y404416D01*
X215313Y442516D02*
X228393Y442516D01*
D10*
X68263Y215900D03*
X68263Y165100D03*
D18*
X239633Y680244D02*
X254873Y680244D01*
X254873Y654844D02*
X239633Y654844D01*
X239633Y629444D02*
X254873Y629444D01*
X254873Y604044D02*
X239633Y604044D01*
X239633Y578644D02*
X254873Y578644D01*
D19*
X422910Y42228D02*
X422910Y21273D01*
X368300Y21273D02*
X368300Y42228D01*
X313690Y42228D02*
X313690Y21273D01*
D20*
X159544Y675434D02*
X159544Y692198D01*
X159544Y738934D02*
X159544Y755698D01*
X203994Y692198D02*
X203994Y675434D01*
X203994Y738934D02*
X203994Y755698D01*
D21*
X288925Y496888D03*
X288925Y522288D03*
X288925Y547688D03*
X288925Y573088D03*
D22*
X60000Y60000D03*
X60000Y715000D03*
X500000Y715000D03*
X500000Y60000D03*
D21*
X23813Y363538D03*
X23813Y388938D03*
X23813Y414338D03*
X23813Y439738D03*
X23813Y465138D03*
X23813Y490538D03*
X23813Y515938D03*
X23813Y541338D03*
X23813Y592138D03*
X23813Y617538D03*
X23813Y642938D03*
D23*
X338138Y247650D03*
X338138Y225425D03*
X173038Y306388D03*
X204788Y306388D03*
D24*
X327025Y311150D03*
X363538Y331788D03*
D23*
X152797Y541338D03*
X112713Y490538D03*
X153988Y458788D03*
X100013Y406400D03*
X128588Y406400D03*
X195263Y501650D03*
X303213Y366713D03*
X298450Y401638D03*
X365125Y366713D03*
X334963Y414338D03*
X376238Y417513D03*
X139700Y309563D03*
X80963Y334963D03*
X20638Y301625D03*
X36513Y247650D03*
X58738Y247650D03*
X117475Y268288D03*
X128588Y234950D03*
X177800Y192088D03*
X268288Y214313D03*
X371475Y211138D03*
X365125Y153988D03*
X442913Y163513D03*
X409575Y280988D03*
X409575Y93663D03*
X252413Y98425D03*
X215900Y87313D03*
X171847Y601663D03*
X141684Y654050D03*
X508000Y284163D03*
X527050Y401638D03*
X298450Y273050D03*
X69850Y463550D03*
X392113Y387350D03*
X242888Y498475D03*
X325438Y198438D03*
X350838Y247650D03*
X336550Y101600D03*
X400050Y79375D03*
X325438Y223838D03*
X330200Y273050D03*
X295275Y227013D03*
X295275Y247650D03*
X195263Y481013D03*
X241300Y458788D03*
X311150Y387747D03*
X311547Y434975D03*
X287734Y459978D03*
X287734Y438944D03*
X250825Y412750D03*
M02*
