G04 EAGLE Gerber X2 export*
%TF.Part,Single*%
%TF.FileFunction,Copper,L2,Bot,Mixed*%
%TF.FilePolarity,Positive*%
%TF.GenerationSoftware,Autodesk,EAGLE,8.6.3*%
%TF.CreationDate,2021-05-18T20:18:47Z*%
G75*
%MOMM*%
%FSLAX34Y34*%
%LPD*%
%AMOC8*
5,1,8,0,0,1.08239X$1,22.5*%
G01*
%ADD10P,2.089446X8X112.500000*%
%ADD11C,1.930400*%
%ADD12C,1.000000*%
%ADD13C,1.270000*%
%ADD14P,3.030692X8X202.500000*%
%ADD15C,1.676400*%
%ADD16C,1.524000*%
%ADD17C,1.778000*%
%ADD18C,2.095500*%
%ADD19P,1.948302X8X202.500000*%
%ADD20P,1.924489X8X112.500000*%
%ADD21P,1.924489X8X22.500000*%
%ADD22C,6.451600*%
%ADD23P,1.649562X8X112.500000*%
%ADD24P,1.484606X8X202.500000*%
%ADD25P,3.247170X8X22.500000*%
%ADD26P,1.924489X8X202.500000*%
%ADD27P,4.123906X8X22.500000*%
%ADD28P,3.680126X8X22.500000*%
%ADD29C,2.247900*%
%ADD30C,2.540000*%
%ADD31C,2.184400*%
%ADD32P,2.364373X8X202.500000*%
%ADD33C,1.422400*%
%ADD34C,2.300000*%
%ADD35C,0.756400*%
%ADD36C,0.406400*%
%ADD37C,0.203200*%
%ADD38C,0.812800*%
%ADD39C,0.609600*%
%ADD40C,0.508000*%

G36*
X754066Y991615D02*
X754066Y991615D01*
X754006Y991607D01*
X753946Y991609D01*
X753866Y991588D01*
X753785Y991576D01*
X753729Y991552D01*
X753671Y991537D01*
X753600Y991495D01*
X753525Y991461D01*
X753479Y991422D01*
X753427Y991392D01*
X753370Y991331D01*
X753307Y991278D01*
X753274Y991228D01*
X753232Y991184D01*
X753195Y991111D01*
X753149Y991042D01*
X753130Y990985D01*
X753103Y990931D01*
X753092Y990864D01*
X753062Y990772D01*
X753059Y990669D01*
X753047Y990600D01*
X753047Y901700D01*
X753055Y901644D01*
X753054Y901596D01*
X753054Y901595D01*
X753054Y901584D01*
X753075Y901502D01*
X753087Y901419D01*
X753111Y901365D01*
X753126Y901309D01*
X753169Y901236D01*
X753203Y901159D01*
X753241Y901114D01*
X753271Y901064D01*
X753333Y901006D01*
X753387Y900942D01*
X753436Y900910D01*
X753478Y900870D01*
X753553Y900831D01*
X753624Y900785D01*
X753679Y900767D01*
X753731Y900740D01*
X753799Y900729D01*
X753895Y900699D01*
X753994Y900696D01*
X754063Y900685D01*
X924497Y900685D01*
X924497Y608013D01*
X924510Y607926D01*
X924512Y607838D01*
X924529Y607786D01*
X924537Y607731D01*
X924573Y607651D01*
X924600Y607568D01*
X924628Y607529D01*
X924653Y607472D01*
X924749Y607358D01*
X924795Y607295D01*
X1051795Y480295D01*
X1051864Y480242D01*
X1051928Y480182D01*
X1051978Y480157D01*
X1052022Y480124D01*
X1052104Y480093D01*
X1052181Y480053D01*
X1052229Y480045D01*
X1052287Y480023D01*
X1052435Y480010D01*
X1052513Y479997D01*
X1181672Y479997D01*
X1181672Y403225D01*
X1181680Y403167D01*
X1181679Y403109D01*
X1181700Y403027D01*
X1181712Y402944D01*
X1181736Y402890D01*
X1181751Y402834D01*
X1181794Y402761D01*
X1181828Y402684D01*
X1181866Y402639D01*
X1181896Y402589D01*
X1181958Y402531D01*
X1182012Y402467D01*
X1182061Y402435D01*
X1182103Y402395D01*
X1182178Y402356D01*
X1182249Y402310D01*
X1182304Y402292D01*
X1182356Y402265D01*
X1182424Y402254D01*
X1182520Y402224D01*
X1182619Y402221D01*
X1182688Y402210D01*
X1319213Y402210D01*
X1319270Y402218D01*
X1319329Y402216D01*
X1319410Y402238D01*
X1319494Y402250D01*
X1319547Y402274D01*
X1319604Y402288D01*
X1319676Y402331D01*
X1319753Y402366D01*
X1319798Y402404D01*
X1319848Y402434D01*
X1319906Y402495D01*
X1319970Y402550D01*
X1320003Y402598D01*
X1320043Y402641D01*
X1320081Y402716D01*
X1320128Y402786D01*
X1320146Y402842D01*
X1320172Y402894D01*
X1320184Y402962D01*
X1320214Y403057D01*
X1320216Y403157D01*
X1320228Y403225D01*
X1320228Y815797D01*
X1512260Y815797D01*
X1512260Y613613D01*
X1512268Y613555D01*
X1512266Y613496D01*
X1512288Y613415D01*
X1512300Y613331D01*
X1512324Y613278D01*
X1512338Y613221D01*
X1512381Y613149D01*
X1512416Y613072D01*
X1512454Y613027D01*
X1512484Y612977D01*
X1512545Y612919D01*
X1512600Y612855D01*
X1512648Y612822D01*
X1512691Y612782D01*
X1512766Y612744D01*
X1512836Y612697D01*
X1512892Y612679D01*
X1512944Y612653D01*
X1513012Y612641D01*
X1513107Y612611D01*
X1513207Y612609D01*
X1513275Y612597D01*
X1787081Y612597D01*
X1805829Y592286D01*
X1805912Y592218D01*
X1805991Y592145D01*
X1806022Y592129D01*
X1806049Y592107D01*
X1806148Y592064D01*
X1806244Y592015D01*
X1806275Y592010D01*
X1806311Y591995D01*
X1806522Y591969D01*
X1806575Y591960D01*
X1905000Y591960D01*
X1905058Y591968D01*
X1905116Y591966D01*
X1905198Y591988D01*
X1905282Y592000D01*
X1905335Y592024D01*
X1905391Y592038D01*
X1905464Y592081D01*
X1905541Y592116D01*
X1905586Y592154D01*
X1905636Y592184D01*
X1905694Y592245D01*
X1905758Y592300D01*
X1905790Y592348D01*
X1905830Y592391D01*
X1905869Y592466D01*
X1905916Y592536D01*
X1905933Y592592D01*
X1905960Y592644D01*
X1905971Y592712D01*
X1906001Y592807D01*
X1906004Y592907D01*
X1906015Y592975D01*
X1906015Y641172D01*
X2012950Y641172D01*
X2013008Y641180D01*
X2013066Y641179D01*
X2013148Y641200D01*
X2013232Y641212D01*
X2013285Y641236D01*
X2013341Y641251D01*
X2013414Y641294D01*
X2013491Y641328D01*
X2013536Y641366D01*
X2013586Y641396D01*
X2013644Y641458D01*
X2013708Y641512D01*
X2013740Y641561D01*
X2013780Y641603D01*
X2013819Y641678D01*
X2013866Y641749D01*
X2013883Y641804D01*
X2013910Y641856D01*
X2013921Y641924D01*
X2013951Y642020D01*
X2013954Y642119D01*
X2013965Y642188D01*
X2013965Y989850D01*
X2013957Y989908D01*
X2013959Y989966D01*
X2013937Y990048D01*
X2013925Y990132D01*
X2013902Y990185D01*
X2013887Y990241D01*
X2013844Y990314D01*
X2013809Y990391D01*
X2013771Y990436D01*
X2013742Y990486D01*
X2013680Y990544D01*
X2013626Y990608D01*
X2013577Y990640D01*
X2013534Y990680D01*
X2013459Y990719D01*
X2013389Y990766D01*
X2013333Y990783D01*
X2013281Y990810D01*
X2013213Y990821D01*
X2013118Y990851D01*
X2013018Y990854D01*
X2012950Y990865D01*
X957266Y990865D01*
X754066Y991615D01*
G37*
G36*
X1989195Y14118D02*
X1989195Y14118D01*
X1989254Y14116D01*
X1989335Y14138D01*
X1989419Y14150D01*
X1989472Y14174D01*
X1989529Y14188D01*
X1989601Y14231D01*
X1989678Y14266D01*
X1989723Y14304D01*
X1989773Y14334D01*
X1989831Y14395D01*
X1989895Y14450D01*
X1989928Y14498D01*
X1989968Y14541D01*
X1990006Y14616D01*
X1990053Y14686D01*
X1990071Y14742D01*
X1990097Y14794D01*
X1990109Y14862D01*
X1990139Y14957D01*
X1990141Y15057D01*
X1990153Y15125D01*
X1990153Y365963D01*
X1990145Y366020D01*
X1990146Y366079D01*
X1990125Y366160D01*
X1990113Y366244D01*
X1990089Y366297D01*
X1990074Y366354D01*
X1990031Y366426D01*
X1989997Y366503D01*
X1989959Y366548D01*
X1989929Y366598D01*
X1989867Y366656D01*
X1989813Y366720D01*
X1989764Y366753D01*
X1989722Y366793D01*
X1989647Y366831D01*
X1989576Y366878D01*
X1989521Y366896D01*
X1989469Y366922D01*
X1989401Y366934D01*
X1989305Y366964D01*
X1989206Y366966D01*
X1989138Y366978D01*
X1963165Y366978D01*
X1963165Y427875D01*
X1963157Y427933D01*
X1963159Y427991D01*
X1963137Y428073D01*
X1963125Y428157D01*
X1963102Y428210D01*
X1963087Y428266D01*
X1963044Y428339D01*
X1963009Y428416D01*
X1962971Y428461D01*
X1962942Y428511D01*
X1962880Y428569D01*
X1962826Y428633D01*
X1962777Y428665D01*
X1962734Y428705D01*
X1962659Y428744D01*
X1962589Y428791D01*
X1962533Y428808D01*
X1962481Y428835D01*
X1962413Y428846D01*
X1962318Y428876D01*
X1962218Y428879D01*
X1962150Y428890D01*
X1950465Y428890D01*
X1950465Y542175D01*
X1950453Y542262D01*
X1950450Y542349D01*
X1950433Y542402D01*
X1950425Y542457D01*
X1950390Y542536D01*
X1950363Y542620D01*
X1950335Y542659D01*
X1950309Y542716D01*
X1950213Y542829D01*
X1950168Y542893D01*
X1907305Y585755D01*
X1907236Y585808D01*
X1907172Y585868D01*
X1907122Y585893D01*
X1907078Y585926D01*
X1906997Y585957D01*
X1906919Y585997D01*
X1906871Y586005D01*
X1906813Y586028D01*
X1906665Y586040D01*
X1906588Y586053D01*
X1803821Y586053D01*
X1783480Y606393D01*
X1783411Y606445D01*
X1783347Y606505D01*
X1783297Y606531D01*
X1783253Y606564D01*
X1783172Y606595D01*
X1783094Y606635D01*
X1783046Y606643D01*
X1782988Y606665D01*
X1782840Y606677D01*
X1782763Y606690D01*
X1513275Y606690D01*
X1513217Y606682D01*
X1513159Y606684D01*
X1513077Y606662D01*
X1512994Y606650D01*
X1512940Y606627D01*
X1512884Y606612D01*
X1512811Y606569D01*
X1512734Y606534D01*
X1512689Y606496D01*
X1512639Y606467D01*
X1512581Y606405D01*
X1512517Y606351D01*
X1512485Y606302D01*
X1512445Y606259D01*
X1512406Y606184D01*
X1512360Y606114D01*
X1512342Y606058D01*
X1512315Y606006D01*
X1512304Y605938D01*
X1512274Y605843D01*
X1512271Y605743D01*
X1512260Y605675D01*
X1512260Y505275D01*
X1512272Y505188D01*
X1512275Y505101D01*
X1512292Y505048D01*
X1512300Y504994D01*
X1512335Y504914D01*
X1512362Y504830D01*
X1512390Y504791D01*
X1512416Y504734D01*
X1512512Y504621D01*
X1512557Y504557D01*
X1638875Y378239D01*
X1639260Y314006D01*
X1639268Y313952D01*
X1639266Y313896D01*
X1639289Y313812D01*
X1639301Y313725D01*
X1639324Y313675D01*
X1639338Y313621D01*
X1639383Y313546D01*
X1639419Y313466D01*
X1639455Y313424D01*
X1639484Y313377D01*
X1639547Y313317D01*
X1639604Y313251D01*
X1639650Y313220D01*
X1639691Y313182D01*
X1639769Y313142D01*
X1639842Y313094D01*
X1639895Y313078D01*
X1639944Y313053D01*
X1640014Y313041D01*
X1640113Y313010D01*
X1640209Y313008D01*
X1640275Y312997D01*
X1884800Y312997D01*
X1884887Y313010D01*
X1884974Y313012D01*
X1885027Y313029D01*
X1885082Y313037D01*
X1885161Y313073D01*
X1885245Y313100D01*
X1885284Y313128D01*
X1885341Y313153D01*
X1885454Y313249D01*
X1885518Y313295D01*
X1937171Y364947D01*
X1945412Y364947D01*
X1887117Y306653D01*
X1597413Y306653D01*
X1597355Y306645D01*
X1597296Y306646D01*
X1597215Y306625D01*
X1597131Y306613D01*
X1597078Y306589D01*
X1597021Y306574D01*
X1596949Y306531D01*
X1596872Y306497D01*
X1596827Y306459D01*
X1596777Y306429D01*
X1596719Y306367D01*
X1596655Y306313D01*
X1596622Y306264D01*
X1596582Y306222D01*
X1596544Y306147D01*
X1596497Y306076D01*
X1596479Y306021D01*
X1596453Y305969D01*
X1596441Y305901D01*
X1596411Y305805D01*
X1596409Y305706D01*
X1596397Y305638D01*
X1596397Y64338D01*
X1596405Y64280D01*
X1596404Y64221D01*
X1596425Y64140D01*
X1596437Y64056D01*
X1596461Y64003D01*
X1596476Y63946D01*
X1596519Y63874D01*
X1596553Y63797D01*
X1596591Y63752D01*
X1596621Y63702D01*
X1596683Y63644D01*
X1596737Y63580D01*
X1596786Y63547D01*
X1596828Y63507D01*
X1596903Y63469D01*
X1596974Y63422D01*
X1597029Y63404D01*
X1597081Y63378D01*
X1597149Y63366D01*
X1597245Y63336D01*
X1597344Y63334D01*
X1597413Y63322D01*
X1764285Y63322D01*
X1764285Y15125D01*
X1764293Y15067D01*
X1764291Y15009D01*
X1764313Y14927D01*
X1764325Y14844D01*
X1764349Y14790D01*
X1764363Y14734D01*
X1764406Y14661D01*
X1764441Y14584D01*
X1764479Y14539D01*
X1764509Y14489D01*
X1764570Y14431D01*
X1764625Y14367D01*
X1764673Y14335D01*
X1764716Y14295D01*
X1764791Y14256D01*
X1764861Y14210D01*
X1764917Y14192D01*
X1764969Y14165D01*
X1765037Y14154D01*
X1765132Y14124D01*
X1765232Y14121D01*
X1765300Y14110D01*
X1989138Y14110D01*
X1989195Y14118D01*
G37*
%LPC*%
G36*
X1654348Y674762D02*
X1654348Y674762D01*
X1651733Y675845D01*
X1649733Y677846D01*
X1648650Y680460D01*
X1648650Y713885D01*
X1648638Y713972D01*
X1648635Y714059D01*
X1648618Y714112D01*
X1648610Y714167D01*
X1648574Y714247D01*
X1648547Y714330D01*
X1648519Y714369D01*
X1648494Y714426D01*
X1648398Y714539D01*
X1648352Y714603D01*
X1636989Y725967D01*
X1635442Y729701D01*
X1635442Y832497D01*
X1635434Y832555D01*
X1635435Y832613D01*
X1635414Y832695D01*
X1635402Y832779D01*
X1635378Y832832D01*
X1635363Y832888D01*
X1635320Y832961D01*
X1635286Y833038D01*
X1635248Y833083D01*
X1635218Y833133D01*
X1635156Y833191D01*
X1635102Y833255D01*
X1635053Y833287D01*
X1635011Y833327D01*
X1634936Y833366D01*
X1634865Y833413D01*
X1634810Y833430D01*
X1634758Y833457D01*
X1634690Y833468D01*
X1634594Y833498D01*
X1634495Y833501D01*
X1634427Y833512D01*
X1625773Y833512D01*
X1623158Y834595D01*
X1621158Y836596D01*
X1620075Y839210D01*
X1620075Y897602D01*
X1621158Y900217D01*
X1623158Y902217D01*
X1625773Y903300D01*
X1665115Y903300D01*
X1667729Y902217D01*
X1669730Y900217D01*
X1670813Y897602D01*
X1670813Y839210D01*
X1669730Y836596D01*
X1667729Y834595D01*
X1665115Y833512D01*
X1656778Y833512D01*
X1656721Y833504D01*
X1656662Y833506D01*
X1656581Y833484D01*
X1656497Y833472D01*
X1656444Y833449D01*
X1656387Y833434D01*
X1656315Y833391D01*
X1656238Y833356D01*
X1656193Y833318D01*
X1656143Y833289D01*
X1656085Y833227D01*
X1656021Y833173D01*
X1655988Y833124D01*
X1655948Y833081D01*
X1655910Y833006D01*
X1655863Y832936D01*
X1655845Y832880D01*
X1655819Y832828D01*
X1655807Y832760D01*
X1655777Y832665D01*
X1655775Y832565D01*
X1655763Y832497D01*
X1655763Y737628D01*
X1655771Y737570D01*
X1655770Y737512D01*
X1655791Y737430D01*
X1655803Y737346D01*
X1655827Y737293D01*
X1655842Y737237D01*
X1655885Y737164D01*
X1655919Y737087D01*
X1655957Y737042D01*
X1655987Y736992D01*
X1656049Y736934D01*
X1656103Y736870D01*
X1656152Y736838D01*
X1656194Y736798D01*
X1656269Y736759D01*
X1656340Y736712D01*
X1656395Y736695D01*
X1656447Y736668D01*
X1656515Y736657D01*
X1656611Y736627D01*
X1656710Y736624D01*
X1656778Y736613D01*
X1739727Y736613D01*
X1742342Y735530D01*
X1744342Y733529D01*
X1745425Y730915D01*
X1745425Y680460D01*
X1744342Y677846D01*
X1742342Y675845D01*
X1739727Y674762D01*
X1654348Y674762D01*
G37*
%LPD*%
G36*
X131815Y391942D02*
X131815Y391942D01*
X131867Y391940D01*
X131955Y391962D01*
X132044Y391975D01*
X132092Y391996D01*
X132143Y392009D01*
X132221Y392054D01*
X132303Y392091D01*
X132344Y392125D01*
X132389Y392151D01*
X132452Y392216D01*
X132520Y392275D01*
X132550Y392318D01*
X132586Y392356D01*
X132628Y392436D01*
X132678Y392511D01*
X132694Y392561D01*
X132718Y392608D01*
X132731Y392679D01*
X132764Y392782D01*
X132766Y392874D01*
X132778Y392938D01*
X134365Y529463D01*
X134357Y529527D01*
X134359Y529591D01*
X134339Y529667D01*
X134329Y529745D01*
X134303Y529804D01*
X134287Y529866D01*
X134247Y529934D01*
X134215Y530006D01*
X134174Y530055D01*
X134142Y530111D01*
X134084Y530165D01*
X134034Y530225D01*
X133981Y530261D01*
X133934Y530305D01*
X133864Y530341D01*
X133800Y530385D01*
X133738Y530405D01*
X133681Y530435D01*
X133617Y530446D01*
X133529Y530474D01*
X133421Y530478D01*
X133350Y530490D01*
X66675Y530490D01*
X66617Y530482D01*
X66559Y530484D01*
X66477Y530462D01*
X66394Y530450D01*
X66340Y530427D01*
X66284Y530412D01*
X66211Y530369D01*
X66134Y530334D01*
X66089Y530296D01*
X66039Y530267D01*
X65981Y530205D01*
X65917Y530151D01*
X65885Y530102D01*
X65845Y530059D01*
X65806Y529984D01*
X65760Y529914D01*
X65742Y529858D01*
X65715Y529806D01*
X65704Y529738D01*
X65674Y529643D01*
X65671Y529543D01*
X65660Y529475D01*
X65660Y392950D01*
X65668Y392892D01*
X65666Y392834D01*
X65688Y392752D01*
X65700Y392669D01*
X65724Y392615D01*
X65738Y392559D01*
X65781Y392486D01*
X65816Y392409D01*
X65854Y392364D01*
X65884Y392314D01*
X65945Y392256D01*
X66000Y392192D01*
X66048Y392160D01*
X66091Y392120D01*
X66166Y392081D01*
X66236Y392035D01*
X66292Y392017D01*
X66344Y391990D01*
X66412Y391979D01*
X66507Y391949D01*
X66607Y391946D01*
X66675Y391935D01*
X131763Y391935D01*
X131815Y391942D01*
G37*
G36*
X131815Y682455D02*
X131815Y682455D01*
X131867Y682453D01*
X131955Y682474D01*
X132044Y682487D01*
X132092Y682509D01*
X132143Y682521D01*
X132221Y682566D01*
X132303Y682603D01*
X132344Y682637D01*
X132389Y682664D01*
X132452Y682729D01*
X132520Y682787D01*
X132550Y682831D01*
X132586Y682869D01*
X132628Y682948D01*
X132678Y683024D01*
X132694Y683074D01*
X132718Y683120D01*
X132731Y683192D01*
X132764Y683295D01*
X132766Y683386D01*
X132778Y683451D01*
X134365Y819976D01*
X134357Y820040D01*
X134359Y820104D01*
X134339Y820180D01*
X134329Y820258D01*
X134303Y820317D01*
X134287Y820379D01*
X134247Y820446D01*
X134215Y820518D01*
X134174Y820568D01*
X134142Y820623D01*
X134084Y820677D01*
X134034Y820738D01*
X133981Y820774D01*
X133934Y820818D01*
X133864Y820854D01*
X133800Y820898D01*
X133738Y820918D01*
X133681Y820947D01*
X133617Y820958D01*
X133529Y820987D01*
X133421Y820991D01*
X133350Y821003D01*
X66675Y821003D01*
X66617Y820995D01*
X66559Y820996D01*
X66477Y820975D01*
X66394Y820963D01*
X66340Y820939D01*
X66284Y820924D01*
X66211Y820881D01*
X66134Y820847D01*
X66089Y820809D01*
X66039Y820779D01*
X65981Y820717D01*
X65917Y820663D01*
X65885Y820614D01*
X65845Y820572D01*
X65806Y820497D01*
X65760Y820426D01*
X65742Y820371D01*
X65715Y820319D01*
X65704Y820251D01*
X65674Y820155D01*
X65671Y820056D01*
X65660Y819988D01*
X65660Y683463D01*
X65668Y683405D01*
X65666Y683346D01*
X65688Y683265D01*
X65700Y683181D01*
X65724Y683128D01*
X65738Y683071D01*
X65781Y682999D01*
X65816Y682922D01*
X65854Y682877D01*
X65884Y682827D01*
X65945Y682769D01*
X66000Y682705D01*
X66048Y682672D01*
X66091Y682632D01*
X66166Y682594D01*
X66236Y682547D01*
X66292Y682529D01*
X66344Y682503D01*
X66412Y682491D01*
X66507Y682461D01*
X66607Y682459D01*
X66675Y682447D01*
X131763Y682447D01*
X131815Y682455D01*
G37*
%LPC*%
G36*
X1094552Y649108D02*
X1094552Y649108D01*
X1089510Y651197D01*
X1085652Y655055D01*
X1083563Y660097D01*
X1083563Y665553D01*
X1085652Y670595D01*
X1089510Y674453D01*
X1089832Y674587D01*
X1089858Y674602D01*
X1089886Y674611D01*
X1089980Y674674D01*
X1090077Y674731D01*
X1090097Y674753D01*
X1090122Y674769D01*
X1090195Y674856D01*
X1090272Y674938D01*
X1090286Y674964D01*
X1090305Y674987D01*
X1090351Y675090D01*
X1090403Y675191D01*
X1090408Y675220D01*
X1090420Y675247D01*
X1090436Y675359D01*
X1090458Y675470D01*
X1090455Y675499D01*
X1090459Y675528D01*
X1090443Y675640D01*
X1090433Y675753D01*
X1090423Y675781D01*
X1090419Y675809D01*
X1090372Y675913D01*
X1090331Y676018D01*
X1090314Y676042D01*
X1090301Y676069D01*
X1090228Y676155D01*
X1090160Y676245D01*
X1090136Y676263D01*
X1090117Y676285D01*
X1090051Y676327D01*
X1089932Y676415D01*
X1089873Y676437D01*
X1089833Y676463D01*
X1089510Y676597D01*
X1085652Y680455D01*
X1083563Y685497D01*
X1083563Y690953D01*
X1085652Y695995D01*
X1089510Y699853D01*
X1089832Y699987D01*
X1089858Y700002D01*
X1089886Y700011D01*
X1089980Y700074D01*
X1090077Y700131D01*
X1090097Y700153D01*
X1090122Y700169D01*
X1090195Y700256D01*
X1090272Y700338D01*
X1090286Y700364D01*
X1090305Y700387D01*
X1090351Y700490D01*
X1090403Y700591D01*
X1090408Y700620D01*
X1090420Y700647D01*
X1090436Y700759D01*
X1090458Y700870D01*
X1090455Y700899D01*
X1090459Y700928D01*
X1090443Y701040D01*
X1090433Y701153D01*
X1090423Y701181D01*
X1090419Y701209D01*
X1090372Y701313D01*
X1090331Y701418D01*
X1090314Y701442D01*
X1090301Y701469D01*
X1090228Y701555D01*
X1090160Y701645D01*
X1090136Y701663D01*
X1090117Y701685D01*
X1090051Y701727D01*
X1089932Y701815D01*
X1089873Y701837D01*
X1089833Y701863D01*
X1089510Y701997D01*
X1085652Y705855D01*
X1083563Y710897D01*
X1083563Y716353D01*
X1085652Y721395D01*
X1089510Y725253D01*
X1094552Y727342D01*
X1115248Y727342D01*
X1120290Y725253D01*
X1124148Y721395D01*
X1126237Y716353D01*
X1126237Y710897D01*
X1124148Y705855D01*
X1120290Y701997D01*
X1119967Y701863D01*
X1119942Y701848D01*
X1119914Y701839D01*
X1119820Y701776D01*
X1119723Y701718D01*
X1119702Y701697D01*
X1119678Y701681D01*
X1119605Y701594D01*
X1119527Y701512D01*
X1119514Y701486D01*
X1119495Y701463D01*
X1119449Y701360D01*
X1119397Y701259D01*
X1119392Y701230D01*
X1119380Y701203D01*
X1119364Y701091D01*
X1119342Y700980D01*
X1119345Y700951D01*
X1119341Y700922D01*
X1119357Y700810D01*
X1119367Y700697D01*
X1119377Y700670D01*
X1119381Y700640D01*
X1119428Y700537D01*
X1119469Y700432D01*
X1119486Y700408D01*
X1119499Y700381D01*
X1119572Y700295D01*
X1119640Y700205D01*
X1119664Y700187D01*
X1119683Y700165D01*
X1119749Y700123D01*
X1119868Y700035D01*
X1119927Y700013D01*
X1119968Y699987D01*
X1120290Y699853D01*
X1124148Y695995D01*
X1126237Y690953D01*
X1126237Y685497D01*
X1124148Y680455D01*
X1120290Y676597D01*
X1119967Y676463D01*
X1119942Y676448D01*
X1119914Y676439D01*
X1119820Y676376D01*
X1119723Y676318D01*
X1119702Y676297D01*
X1119678Y676281D01*
X1119605Y676194D01*
X1119527Y676112D01*
X1119514Y676086D01*
X1119495Y676063D01*
X1119449Y675960D01*
X1119397Y675859D01*
X1119392Y675830D01*
X1119380Y675803D01*
X1119364Y675691D01*
X1119342Y675580D01*
X1119345Y675551D01*
X1119341Y675522D01*
X1119357Y675410D01*
X1119367Y675297D01*
X1119377Y675270D01*
X1119381Y675240D01*
X1119428Y675137D01*
X1119469Y675032D01*
X1119486Y675008D01*
X1119499Y674981D01*
X1119572Y674895D01*
X1119640Y674805D01*
X1119664Y674787D01*
X1119683Y674765D01*
X1119749Y674723D01*
X1119868Y674635D01*
X1119927Y674613D01*
X1119968Y674587D01*
X1120290Y674453D01*
X1124148Y670595D01*
X1126237Y665553D01*
X1126237Y660097D01*
X1124148Y655055D01*
X1120290Y651197D01*
X1115248Y649108D01*
X1094552Y649108D01*
G37*
%LPD*%
%LPC*%
G36*
X1919384Y660428D02*
X1919384Y660428D01*
X1910541Y669272D01*
X1910541Y681985D01*
X1910549Y682007D01*
X1910562Y682156D01*
X1910575Y682233D01*
X1910575Y694217D01*
X1910563Y694304D01*
X1910560Y694392D01*
X1910543Y694444D01*
X1910541Y694458D01*
X1910541Y707385D01*
X1910549Y707407D01*
X1910559Y707526D01*
X1910561Y707530D01*
X1910561Y707549D01*
X1910562Y707556D01*
X1910575Y707633D01*
X1910575Y719617D01*
X1910563Y719704D01*
X1910560Y719792D01*
X1910543Y719844D01*
X1910541Y719858D01*
X1910541Y732578D01*
X1919384Y741422D01*
X1931891Y741422D01*
X1940734Y732578D01*
X1940734Y719865D01*
X1940726Y719843D01*
X1940713Y719694D01*
X1940700Y719617D01*
X1940700Y707633D01*
X1940707Y707585D01*
X1940707Y707582D01*
X1940708Y707578D01*
X1940712Y707546D01*
X1940715Y707458D01*
X1940732Y707406D01*
X1940734Y707392D01*
X1940734Y694465D01*
X1940726Y694443D01*
X1940713Y694294D01*
X1940700Y694217D01*
X1940700Y682233D01*
X1940712Y682146D01*
X1940715Y682058D01*
X1940732Y682006D01*
X1940734Y681992D01*
X1940734Y669272D01*
X1931891Y660428D01*
X1919384Y660428D01*
G37*
%LPD*%
%LPC*%
G36*
X879202Y916824D02*
X879202Y916824D01*
X872830Y919464D01*
X867953Y924340D01*
X865314Y930712D01*
X865314Y960088D01*
X867953Y966460D01*
X872830Y971336D01*
X879202Y973976D01*
X886098Y973976D01*
X892470Y971336D01*
X897347Y966460D01*
X899986Y960088D01*
X899986Y930712D01*
X897347Y924340D01*
X892470Y919464D01*
X886098Y916824D01*
X879202Y916824D01*
G37*
%LPD*%
%LPC*%
G36*
X828402Y916824D02*
X828402Y916824D01*
X822030Y919464D01*
X817153Y924340D01*
X814514Y930712D01*
X814514Y960088D01*
X817153Y966460D01*
X822030Y971336D01*
X828402Y973976D01*
X835298Y973976D01*
X841670Y971336D01*
X846547Y966460D01*
X849186Y960088D01*
X849186Y930712D01*
X846547Y924340D01*
X841670Y919464D01*
X835298Y916824D01*
X828402Y916824D01*
G37*
%LPD*%
%LPC*%
G36*
X930002Y916824D02*
X930002Y916824D01*
X923630Y919464D01*
X918753Y924340D01*
X916114Y930712D01*
X916114Y960088D01*
X918753Y966460D01*
X923630Y971336D01*
X930002Y973976D01*
X936898Y973976D01*
X943270Y971336D01*
X948147Y966460D01*
X950786Y960088D01*
X950786Y930712D01*
X948147Y924340D01*
X943270Y919464D01*
X936898Y916824D01*
X930002Y916824D01*
G37*
%LPD*%
%LPC*%
G36*
X1696916Y840561D02*
X1696916Y840561D01*
X1690824Y843084D01*
X1686162Y847746D01*
X1683638Y853838D01*
X1683638Y881387D01*
X1686162Y887479D01*
X1690824Y892141D01*
X1696916Y894664D01*
X1703509Y894664D01*
X1709601Y892141D01*
X1714263Y887479D01*
X1716787Y881387D01*
X1716787Y853838D01*
X1714263Y847746D01*
X1709601Y843084D01*
X1703509Y840561D01*
X1696916Y840561D01*
G37*
%LPD*%
%LPC*%
G36*
X1751526Y840561D02*
X1751526Y840561D01*
X1745434Y843084D01*
X1740772Y847746D01*
X1738248Y853838D01*
X1738248Y881387D01*
X1740772Y887479D01*
X1745434Y892141D01*
X1751526Y894664D01*
X1758119Y894664D01*
X1764211Y892141D01*
X1768873Y887479D01*
X1771397Y881387D01*
X1771397Y853838D01*
X1768873Y847746D01*
X1764211Y843084D01*
X1758119Y840561D01*
X1751526Y840561D01*
G37*
%LPD*%
%LPC*%
G36*
X1493869Y949434D02*
X1493869Y949434D01*
X1493861Y949492D01*
X1493862Y949550D01*
X1493841Y949632D01*
X1493829Y949715D01*
X1493805Y949769D01*
X1493790Y949825D01*
X1493747Y949898D01*
X1493713Y949975D01*
X1493675Y950019D01*
X1493645Y950070D01*
X1493583Y950127D01*
X1493529Y950192D01*
X1493480Y950224D01*
X1493438Y950264D01*
X1493363Y950303D01*
X1493292Y950349D01*
X1493237Y950367D01*
X1493185Y950394D01*
X1493116Y950405D01*
X1493021Y950435D01*
X1492922Y950438D01*
X1492853Y950449D01*
X1491837Y950449D01*
X1491837Y950451D01*
X1492853Y950451D01*
X1492911Y950459D01*
X1492970Y950458D01*
X1493051Y950479D01*
X1493135Y950491D01*
X1493188Y950515D01*
X1493245Y950529D01*
X1493317Y950572D01*
X1493394Y950607D01*
X1493439Y950645D01*
X1493489Y950675D01*
X1493547Y950736D01*
X1493611Y950791D01*
X1493644Y950839D01*
X1493684Y950882D01*
X1493722Y950957D01*
X1493769Y951027D01*
X1493787Y951083D01*
X1493813Y951135D01*
X1493825Y951203D01*
X1493855Y951298D01*
X1493857Y951398D01*
X1493869Y951466D01*
X1493869Y985217D01*
X1496950Y984914D01*
X1500303Y984247D01*
X1503575Y983254D01*
X1506734Y981946D01*
X1509749Y980334D01*
X1512260Y978656D01*
X1512260Y922244D01*
X1509749Y920566D01*
X1506734Y918954D01*
X1503575Y917646D01*
X1500303Y916653D01*
X1496950Y915986D01*
X1493869Y915683D01*
X1493869Y949434D01*
G37*
%LPD*%
%LPC*%
G36*
X1749699Y343483D02*
X1749699Y343483D01*
X1747271Y344488D01*
X1745413Y346346D01*
X1744408Y348774D01*
X1744408Y351401D01*
X1745413Y353829D01*
X1756820Y365236D01*
X1756821Y365236D01*
X1758821Y367237D01*
X1761249Y368242D01*
X1805551Y368242D01*
X1805581Y368247D01*
X1805612Y368244D01*
X1805689Y368262D01*
X1805832Y368282D01*
X1805891Y368308D01*
X1805939Y368320D01*
X1808013Y369178D01*
X1821012Y369178D01*
X1823784Y368030D01*
X1825905Y365909D01*
X1827053Y363137D01*
X1827053Y360138D01*
X1825905Y357366D01*
X1823784Y355245D01*
X1821012Y354097D01*
X1808013Y354097D01*
X1805939Y354955D01*
X1805909Y354963D01*
X1805882Y354977D01*
X1805805Y354990D01*
X1805664Y355026D01*
X1805600Y355025D01*
X1805551Y355033D01*
X1765719Y355033D01*
X1765632Y355021D01*
X1765545Y355018D01*
X1765492Y355001D01*
X1765437Y354993D01*
X1765357Y354957D01*
X1765274Y354930D01*
X1765235Y354902D01*
X1765178Y354877D01*
X1765065Y354781D01*
X1765001Y354735D01*
X1754754Y344488D01*
X1752326Y343483D01*
X1749699Y343483D01*
G37*
%LPD*%
%LPC*%
G36*
X1226314Y536396D02*
X1226314Y536396D01*
X1221273Y538484D01*
X1217414Y542343D01*
X1215326Y547384D01*
X1215326Y552841D01*
X1217414Y557882D01*
X1221273Y561741D01*
X1226314Y563829D01*
X1247011Y563829D01*
X1252052Y561741D01*
X1255911Y557882D01*
X1257999Y552841D01*
X1257999Y547384D01*
X1255911Y542343D01*
X1252052Y538484D01*
X1247011Y536396D01*
X1226314Y536396D01*
G37*
%LPD*%
%LPC*%
G36*
X1226314Y485596D02*
X1226314Y485596D01*
X1221273Y487684D01*
X1217414Y491543D01*
X1215326Y496584D01*
X1215326Y502041D01*
X1217414Y507082D01*
X1221273Y510941D01*
X1226314Y513029D01*
X1247011Y513029D01*
X1252052Y510941D01*
X1255911Y507082D01*
X1257999Y502041D01*
X1257999Y496584D01*
X1255911Y491543D01*
X1252052Y487684D01*
X1247011Y485596D01*
X1226314Y485596D01*
G37*
%LPD*%
%LPC*%
G36*
X1846082Y333259D02*
X1846082Y333259D01*
X1842814Y334613D01*
X1840313Y337114D01*
X1838959Y340382D01*
X1838959Y343918D01*
X1840313Y347186D01*
X1842814Y349687D01*
X1845348Y350737D01*
X1845374Y350752D01*
X1845402Y350761D01*
X1845496Y350824D01*
X1845593Y350882D01*
X1845613Y350903D01*
X1845638Y350919D01*
X1845711Y351006D01*
X1845788Y351088D01*
X1845802Y351114D01*
X1845821Y351137D01*
X1845867Y351240D01*
X1845919Y351341D01*
X1845924Y351370D01*
X1845936Y351397D01*
X1845952Y351509D01*
X1845974Y351620D01*
X1845971Y351649D01*
X1845975Y351678D01*
X1845959Y351790D01*
X1845949Y351903D01*
X1845939Y351930D01*
X1845934Y351960D01*
X1845888Y352063D01*
X1845847Y352168D01*
X1845829Y352192D01*
X1845817Y352219D01*
X1845744Y352305D01*
X1845675Y352395D01*
X1845652Y352413D01*
X1845633Y352435D01*
X1845566Y352477D01*
X1845448Y352565D01*
X1845389Y352587D01*
X1845348Y352613D01*
X1842814Y353663D01*
X1840313Y356164D01*
X1838959Y359432D01*
X1838959Y362968D01*
X1840313Y366236D01*
X1842814Y368737D01*
X1846082Y370091D01*
X1862318Y370091D01*
X1865586Y368737D01*
X1868087Y366236D01*
X1869441Y362968D01*
X1869441Y359432D01*
X1868087Y356164D01*
X1865586Y353663D01*
X1863052Y352613D01*
X1863026Y352598D01*
X1862998Y352589D01*
X1862904Y352526D01*
X1862807Y352468D01*
X1862787Y352447D01*
X1862762Y352431D01*
X1862689Y352344D01*
X1862612Y352262D01*
X1862598Y352236D01*
X1862579Y352213D01*
X1862533Y352110D01*
X1862481Y352009D01*
X1862476Y351980D01*
X1862464Y351953D01*
X1862448Y351841D01*
X1862426Y351730D01*
X1862429Y351701D01*
X1862425Y351672D01*
X1862441Y351560D01*
X1862451Y351447D01*
X1862461Y351420D01*
X1862466Y351391D01*
X1862512Y351287D01*
X1862553Y351182D01*
X1862571Y351158D01*
X1862583Y351131D01*
X1862656Y351045D01*
X1862724Y350955D01*
X1862748Y350937D01*
X1862767Y350915D01*
X1862834Y350873D01*
X1862952Y350785D01*
X1863011Y350763D01*
X1863052Y350737D01*
X1865586Y349687D01*
X1868087Y347186D01*
X1869441Y343918D01*
X1869441Y340382D01*
X1868087Y337114D01*
X1865586Y334613D01*
X1862318Y333259D01*
X1846082Y333259D01*
G37*
%LPD*%
%LPC*%
G36*
X1195173Y665491D02*
X1195173Y665491D01*
X1190318Y667502D01*
X1186603Y671218D01*
X1184592Y676073D01*
X1184592Y681327D01*
X1186603Y686182D01*
X1190318Y689898D01*
X1195173Y691909D01*
X1214652Y691909D01*
X1219507Y689898D01*
X1223222Y686182D01*
X1225233Y681327D01*
X1225233Y676073D01*
X1223222Y671218D01*
X1219507Y667502D01*
X1214652Y665491D01*
X1195173Y665491D01*
G37*
%LPD*%
%LPC*%
G36*
X1637042Y439015D02*
X1637042Y439015D01*
X1634718Y439977D01*
X1632940Y441756D01*
X1631977Y444080D01*
X1631977Y446595D01*
X1632940Y448919D01*
X1634718Y450698D01*
X1637042Y451660D01*
X1639558Y451660D01*
X1641882Y450698D01*
X1642372Y450208D01*
X1642441Y450155D01*
X1642505Y450095D01*
X1642555Y450070D01*
X1642599Y450037D01*
X1642681Y450006D01*
X1642758Y449966D01*
X1642806Y449958D01*
X1642864Y449935D01*
X1643012Y449923D01*
X1643090Y449910D01*
X1651860Y449910D01*
X1651947Y449922D01*
X1652034Y449925D01*
X1652087Y449942D01*
X1652142Y449950D01*
X1652222Y449986D01*
X1652305Y450013D01*
X1652344Y450041D01*
X1652401Y450066D01*
X1652515Y450162D01*
X1652578Y450208D01*
X1696767Y494397D01*
X1696820Y494467D01*
X1696880Y494530D01*
X1696905Y494580D01*
X1696938Y494624D01*
X1696969Y494706D01*
X1697009Y494784D01*
X1697017Y494831D01*
X1697040Y494890D01*
X1697052Y495037D01*
X1697065Y495115D01*
X1697065Y495808D01*
X1698027Y498132D01*
X1699806Y499910D01*
X1702130Y500873D01*
X1704645Y500873D01*
X1706969Y499910D01*
X1708748Y498132D01*
X1709710Y495808D01*
X1709710Y493292D01*
X1708748Y490968D01*
X1706969Y489190D01*
X1704645Y488227D01*
X1703952Y488227D01*
X1703866Y488215D01*
X1703778Y488212D01*
X1703725Y488195D01*
X1703671Y488187D01*
X1703591Y488152D01*
X1703508Y488125D01*
X1703468Y488097D01*
X1703411Y488071D01*
X1703298Y487975D01*
X1703234Y487930D01*
X1656069Y440765D01*
X1643090Y440765D01*
X1643003Y440753D01*
X1642915Y440750D01*
X1642863Y440733D01*
X1642808Y440725D01*
X1642728Y440689D01*
X1642645Y440662D01*
X1642606Y440634D01*
X1642549Y440609D01*
X1642435Y440513D01*
X1642372Y440467D01*
X1641882Y439977D01*
X1639558Y439015D01*
X1637042Y439015D01*
G37*
%LPD*%
%LPC*%
G36*
X1647107Y207339D02*
X1647107Y207339D01*
X1641601Y212844D01*
X1641601Y220631D01*
X1647107Y226136D01*
X1653361Y226136D01*
X1653447Y226148D01*
X1653535Y226151D01*
X1653587Y226168D01*
X1653642Y226176D01*
X1653722Y226212D01*
X1653805Y226239D01*
X1653845Y226267D01*
X1653902Y226292D01*
X1654015Y226388D01*
X1654079Y226434D01*
X1704705Y277060D01*
X1704757Y277130D01*
X1704817Y277194D01*
X1704843Y277243D01*
X1704876Y277287D01*
X1704907Y277369D01*
X1704947Y277447D01*
X1704955Y277494D01*
X1704977Y277553D01*
X1704989Y277700D01*
X1705002Y277778D01*
X1705002Y279908D01*
X1705965Y282232D01*
X1707743Y284010D01*
X1710067Y284973D01*
X1712583Y284973D01*
X1714907Y284010D01*
X1716685Y282232D01*
X1717648Y279908D01*
X1717648Y277392D01*
X1716685Y275068D01*
X1714907Y273290D01*
X1712583Y272327D01*
X1710453Y272327D01*
X1710366Y272315D01*
X1710279Y272312D01*
X1710226Y272295D01*
X1710171Y272287D01*
X1710091Y272252D01*
X1710008Y272225D01*
X1709969Y272197D01*
X1709912Y272171D01*
X1709799Y272075D01*
X1709735Y272030D01*
X1660085Y222380D01*
X1660050Y222333D01*
X1660007Y222293D01*
X1659965Y222220D01*
X1659914Y222153D01*
X1659893Y222098D01*
X1659864Y222048D01*
X1659843Y221966D01*
X1659813Y221887D01*
X1659808Y221829D01*
X1659794Y221772D01*
X1659796Y221688D01*
X1659789Y221604D01*
X1659801Y221547D01*
X1659803Y221488D01*
X1659829Y221408D01*
X1659845Y221325D01*
X1659872Y221273D01*
X1659890Y221218D01*
X1659930Y221161D01*
X1659976Y221073D01*
X1660045Y221000D01*
X1660085Y220944D01*
X1660399Y220631D01*
X1660399Y212844D01*
X1654893Y207339D01*
X1647107Y207339D01*
G37*
%LPD*%
%LPC*%
G36*
X1149140Y826781D02*
X1149140Y826781D01*
X1142885Y829372D01*
X1138097Y834160D01*
X1135506Y840415D01*
X1135506Y847185D01*
X1138097Y853440D01*
X1142885Y858228D01*
X1149140Y860819D01*
X1155910Y860819D01*
X1162165Y858228D01*
X1166953Y853440D01*
X1169544Y847185D01*
X1169544Y840415D01*
X1166953Y834160D01*
X1162165Y829372D01*
X1155910Y826781D01*
X1149140Y826781D01*
G37*
%LPD*%
%LPC*%
G36*
X1066590Y493806D02*
X1066590Y493806D01*
X1060335Y496397D01*
X1055547Y501185D01*
X1052956Y507440D01*
X1052956Y514210D01*
X1055547Y520465D01*
X1060335Y525253D01*
X1066590Y527844D01*
X1073360Y527844D01*
X1079615Y525253D01*
X1084403Y520465D01*
X1086994Y514210D01*
X1086994Y507440D01*
X1084403Y501185D01*
X1079615Y496397D01*
X1073360Y493806D01*
X1066590Y493806D01*
G37*
%LPD*%
%LPC*%
G36*
X1946829Y201814D02*
X1946829Y201814D01*
X1940877Y207766D01*
X1940877Y211923D01*
X1940865Y212009D01*
X1940862Y212097D01*
X1940845Y212149D01*
X1940837Y212204D01*
X1940801Y212284D01*
X1940774Y212367D01*
X1940746Y212407D01*
X1940721Y212464D01*
X1940625Y212577D01*
X1940579Y212641D01*
X1904499Y248721D01*
X1904452Y248756D01*
X1904412Y248799D01*
X1904339Y248842D01*
X1904272Y248892D01*
X1904217Y248913D01*
X1904166Y248943D01*
X1904085Y248963D01*
X1904006Y248993D01*
X1903948Y248998D01*
X1903891Y249013D01*
X1903807Y249010D01*
X1903723Y249017D01*
X1903665Y249005D01*
X1903607Y249004D01*
X1903527Y248978D01*
X1903444Y248961D01*
X1903392Y248934D01*
X1903336Y248916D01*
X1903280Y248876D01*
X1903192Y248830D01*
X1903119Y248761D01*
X1903063Y248721D01*
X1902232Y247890D01*
X1899908Y246927D01*
X1897392Y246927D01*
X1895068Y247890D01*
X1893290Y249668D01*
X1892327Y251992D01*
X1892327Y254508D01*
X1893290Y256832D01*
X1895068Y258610D01*
X1897392Y259573D01*
X1899908Y259573D01*
X1902232Y258610D01*
X1903738Y257104D01*
X1903807Y257052D01*
X1903871Y256992D01*
X1903921Y256966D01*
X1903965Y256933D01*
X1904047Y256902D01*
X1904124Y256862D01*
X1904172Y256854D01*
X1904230Y256832D01*
X1904378Y256820D01*
X1904456Y256807D01*
X1906473Y256807D01*
X1943269Y220011D01*
X1943315Y219976D01*
X1943356Y219934D01*
X1943428Y219891D01*
X1943496Y219840D01*
X1943550Y219820D01*
X1943601Y219790D01*
X1943683Y219769D01*
X1943761Y219739D01*
X1943820Y219734D01*
X1943876Y219720D01*
X1943961Y219723D01*
X1944045Y219716D01*
X1944102Y219727D01*
X1944161Y219729D01*
X1944241Y219755D01*
X1944324Y219772D01*
X1944375Y219798D01*
X1944431Y219816D01*
X1944487Y219857D01*
X1944576Y219903D01*
X1944648Y219971D01*
X1944704Y220011D01*
X1946829Y222136D01*
X1955246Y222136D01*
X1961198Y216184D01*
X1961198Y207766D01*
X1955246Y201814D01*
X1946829Y201814D01*
G37*
%LPD*%
%LPC*%
G36*
X1457070Y952481D02*
X1457070Y952481D01*
X1457374Y955562D01*
X1458041Y958916D01*
X1459033Y962187D01*
X1460342Y965346D01*
X1461954Y968362D01*
X1463853Y971205D01*
X1466022Y973848D01*
X1468440Y976265D01*
X1471083Y978434D01*
X1473926Y980334D01*
X1476941Y981946D01*
X1480100Y983254D01*
X1483372Y984247D01*
X1486725Y984914D01*
X1489806Y985217D01*
X1489806Y952481D01*
X1457070Y952481D01*
G37*
%LPD*%
%LPC*%
G36*
X1486725Y915986D02*
X1486725Y915986D01*
X1483372Y916653D01*
X1480100Y917646D01*
X1476941Y918954D01*
X1473926Y920566D01*
X1471083Y922466D01*
X1468440Y924635D01*
X1466022Y927052D01*
X1463853Y929695D01*
X1461954Y932538D01*
X1460342Y935554D01*
X1459033Y938713D01*
X1458041Y941984D01*
X1457374Y945338D01*
X1457070Y948419D01*
X1489806Y948419D01*
X1489806Y915683D01*
X1486725Y915986D01*
G37*
%LPD*%
%LPC*%
G36*
X1825667Y610246D02*
X1825667Y610246D01*
X1819879Y612644D01*
X1815449Y617074D01*
X1813051Y622862D01*
X1813051Y629128D01*
X1815449Y634916D01*
X1819879Y639346D01*
X1825667Y641744D01*
X1831933Y641744D01*
X1837721Y639346D01*
X1842151Y634916D01*
X1844549Y629128D01*
X1844549Y622862D01*
X1842151Y617074D01*
X1837721Y612644D01*
X1831933Y610246D01*
X1825667Y610246D01*
G37*
%LPD*%
%LPC*%
G36*
X1970184Y711228D02*
X1970184Y711228D01*
X1961341Y720072D01*
X1961341Y732578D01*
X1970184Y741422D01*
X1982691Y741422D01*
X1991534Y732578D01*
X1991534Y720072D01*
X1982691Y711228D01*
X1970184Y711228D01*
G37*
%LPD*%
%LPC*%
G36*
X1672195Y111359D02*
X1672195Y111359D01*
X1668181Y113021D01*
X1665108Y116094D01*
X1663445Y120109D01*
X1663445Y124454D01*
X1665108Y128469D01*
X1668181Y131541D01*
X1672195Y133204D01*
X1693305Y133204D01*
X1697319Y131541D01*
X1700392Y128469D01*
X1702055Y124454D01*
X1702055Y120109D01*
X1700392Y116094D01*
X1697319Y113021D01*
X1693305Y111359D01*
X1672195Y111359D01*
G37*
%LPD*%
%LPC*%
G36*
X1608695Y111359D02*
X1608695Y111359D01*
X1604681Y113021D01*
X1601608Y116094D01*
X1599945Y120109D01*
X1599945Y124454D01*
X1601608Y128469D01*
X1604681Y131541D01*
X1608695Y133204D01*
X1629805Y133204D01*
X1633819Y131541D01*
X1636892Y128469D01*
X1638555Y124454D01*
X1638555Y120109D01*
X1636892Y116094D01*
X1633819Y113021D01*
X1629805Y111359D01*
X1608695Y111359D01*
G37*
%LPD*%
%LPC*%
G36*
X1672195Y66909D02*
X1672195Y66909D01*
X1668181Y68571D01*
X1665108Y71644D01*
X1663445Y75659D01*
X1663445Y80004D01*
X1665108Y84019D01*
X1668181Y87091D01*
X1672195Y88754D01*
X1693305Y88754D01*
X1697319Y87091D01*
X1700392Y84019D01*
X1702055Y80004D01*
X1702055Y75659D01*
X1700392Y71644D01*
X1697319Y68571D01*
X1693305Y66909D01*
X1672195Y66909D01*
G37*
%LPD*%
%LPC*%
G36*
X1284430Y781188D02*
X1284430Y781188D01*
X1275651Y789967D01*
X1275651Y802383D01*
X1284430Y811162D01*
X1296845Y811162D01*
X1305624Y802383D01*
X1305624Y789967D01*
X1296845Y781188D01*
X1284430Y781188D01*
G37*
%LPD*%
%LPC*%
G36*
X984392Y771663D02*
X984392Y771663D01*
X975613Y780442D01*
X975613Y792858D01*
X984392Y801637D01*
X996808Y801637D01*
X1005587Y792858D01*
X1005587Y780442D01*
X996808Y771663D01*
X984392Y771663D01*
G37*
%LPD*%
%LPC*%
G36*
X1284430Y704988D02*
X1284430Y704988D01*
X1275651Y713767D01*
X1275651Y726183D01*
X1284430Y734962D01*
X1296845Y734962D01*
X1305624Y726183D01*
X1305624Y713767D01*
X1296845Y704988D01*
X1284430Y704988D01*
G37*
%LPD*%
%LPC*%
G36*
X1252680Y416063D02*
X1252680Y416063D01*
X1243901Y424842D01*
X1243901Y437258D01*
X1252680Y446037D01*
X1265095Y446037D01*
X1273874Y437258D01*
X1273874Y424842D01*
X1265095Y416063D01*
X1252680Y416063D01*
G37*
%LPD*%
%LPC*%
G36*
X1762455Y389802D02*
X1762455Y389802D01*
X1760131Y390765D01*
X1758352Y392543D01*
X1757390Y394867D01*
X1757390Y397383D01*
X1758352Y399707D01*
X1760131Y401485D01*
X1762455Y402448D01*
X1764970Y402448D01*
X1767294Y401485D01*
X1767784Y400995D01*
X1767854Y400943D01*
X1767918Y400883D01*
X1767967Y400857D01*
X1768011Y400824D01*
X1768093Y400793D01*
X1768171Y400753D01*
X1768219Y400745D01*
X1768277Y400723D01*
X1768425Y400711D01*
X1768502Y400698D01*
X1814485Y400698D01*
X1814572Y400710D01*
X1814660Y400713D01*
X1814712Y400730D01*
X1814767Y400738D01*
X1814847Y400773D01*
X1814930Y400800D01*
X1814969Y400828D01*
X1815026Y400854D01*
X1815140Y400950D01*
X1815203Y400995D01*
X1815693Y401485D01*
X1818017Y402448D01*
X1820533Y402448D01*
X1822857Y401485D01*
X1824635Y399707D01*
X1825598Y397383D01*
X1825598Y394867D01*
X1824635Y392543D01*
X1822857Y390765D01*
X1820533Y389802D01*
X1818017Y389802D01*
X1815693Y390765D01*
X1815203Y391255D01*
X1815134Y391307D01*
X1815070Y391367D01*
X1815020Y391393D01*
X1814976Y391426D01*
X1814894Y391457D01*
X1814817Y391497D01*
X1814769Y391505D01*
X1814711Y391527D01*
X1814563Y391539D01*
X1814485Y391552D01*
X1768502Y391552D01*
X1768415Y391540D01*
X1768328Y391537D01*
X1768275Y391520D01*
X1768221Y391512D01*
X1768141Y391477D01*
X1768057Y391450D01*
X1768018Y391422D01*
X1767961Y391396D01*
X1767848Y391300D01*
X1767784Y391255D01*
X1767294Y390765D01*
X1764970Y389802D01*
X1762455Y389802D01*
G37*
%LPD*%
%LPC*%
G36*
X1822016Y16394D02*
X1822016Y16394D01*
X1818281Y17941D01*
X1815423Y20799D01*
X1813876Y24533D01*
X1813876Y43816D01*
X1815423Y47550D01*
X1818281Y50408D01*
X1822016Y51955D01*
X1826058Y51955D01*
X1829793Y50408D01*
X1832651Y47550D01*
X1834198Y43816D01*
X1834198Y24533D01*
X1832651Y20799D01*
X1829793Y17941D01*
X1826058Y16394D01*
X1822016Y16394D01*
G37*
%LPD*%
%LPC*%
G36*
X1872816Y16394D02*
X1872816Y16394D01*
X1869081Y17941D01*
X1866223Y20799D01*
X1864676Y24533D01*
X1864676Y43816D01*
X1866223Y47550D01*
X1869081Y50408D01*
X1872816Y51955D01*
X1876858Y51955D01*
X1880593Y50408D01*
X1883451Y47550D01*
X1884998Y43816D01*
X1884998Y24533D01*
X1883451Y20799D01*
X1880593Y17941D01*
X1876858Y16394D01*
X1872816Y16394D01*
G37*
%LPD*%
%LPC*%
G36*
X1898216Y16394D02*
X1898216Y16394D01*
X1894481Y17941D01*
X1891623Y20799D01*
X1890076Y24533D01*
X1890076Y43816D01*
X1891623Y47550D01*
X1894481Y50408D01*
X1898216Y51955D01*
X1902258Y51955D01*
X1905993Y50408D01*
X1908851Y47550D01*
X1910398Y43816D01*
X1910398Y24533D01*
X1908851Y20799D01*
X1905993Y17941D01*
X1902258Y16394D01*
X1898216Y16394D01*
G37*
%LPD*%
%LPC*%
G36*
X1857705Y267565D02*
X1857705Y267565D01*
X1855381Y268527D01*
X1853602Y270306D01*
X1852640Y272630D01*
X1852640Y275145D01*
X1853602Y277469D01*
X1855381Y279248D01*
X1857705Y280210D01*
X1860220Y280210D01*
X1862544Y279248D01*
X1864050Y277742D01*
X1864120Y277689D01*
X1864184Y277629D01*
X1864233Y277604D01*
X1864277Y277571D01*
X1864359Y277540D01*
X1864437Y277500D01*
X1864485Y277492D01*
X1864543Y277469D01*
X1864691Y277457D01*
X1864768Y277444D01*
X1872944Y277444D01*
X1873030Y277456D01*
X1873118Y277459D01*
X1873170Y277476D01*
X1873225Y277484D01*
X1873305Y277520D01*
X1873388Y277547D01*
X1873428Y277575D01*
X1873485Y277600D01*
X1873598Y277696D01*
X1873662Y277742D01*
X1899967Y304047D01*
X1900020Y304117D01*
X1900080Y304181D01*
X1900105Y304230D01*
X1900138Y304275D01*
X1900169Y304356D01*
X1900209Y304434D01*
X1900217Y304482D01*
X1900240Y304540D01*
X1900252Y304688D01*
X1900265Y304765D01*
X1900265Y306895D01*
X1901227Y309219D01*
X1903006Y310998D01*
X1905330Y311960D01*
X1907845Y311960D01*
X1910169Y310998D01*
X1911948Y309219D01*
X1912910Y306895D01*
X1912910Y304380D01*
X1911948Y302056D01*
X1910169Y300277D01*
X1907845Y299315D01*
X1905715Y299315D01*
X1905629Y299303D01*
X1905541Y299300D01*
X1905489Y299283D01*
X1905434Y299275D01*
X1905354Y299239D01*
X1905271Y299212D01*
X1905231Y299184D01*
X1905174Y299159D01*
X1905061Y299063D01*
X1904997Y299017D01*
X1876311Y270331D01*
X1864768Y270331D01*
X1864681Y270319D01*
X1864594Y270316D01*
X1864541Y270299D01*
X1864487Y270291D01*
X1864407Y270255D01*
X1864323Y270228D01*
X1864284Y270200D01*
X1864227Y270175D01*
X1864114Y270079D01*
X1864050Y270033D01*
X1862544Y268527D01*
X1860220Y267565D01*
X1857705Y267565D01*
G37*
%LPD*%
%LPC*%
G36*
X1672507Y181939D02*
X1672507Y181939D01*
X1667001Y187444D01*
X1667001Y195231D01*
X1672507Y200736D01*
X1680293Y200736D01*
X1683806Y197224D01*
X1683875Y197171D01*
X1683939Y197111D01*
X1683989Y197086D01*
X1684033Y197053D01*
X1684115Y197022D01*
X1684193Y196982D01*
X1684240Y196974D01*
X1684299Y196951D01*
X1684446Y196939D01*
X1684524Y196926D01*
X1689540Y196926D01*
X1689626Y196938D01*
X1689714Y196941D01*
X1689766Y196958D01*
X1689821Y196966D01*
X1689901Y197002D01*
X1689984Y197029D01*
X1690023Y197057D01*
X1690080Y197082D01*
X1690194Y197178D01*
X1690257Y197224D01*
X1695563Y202529D01*
X1695582Y202554D01*
X1695605Y202574D01*
X1695647Y202640D01*
X1695734Y202756D01*
X1695757Y202817D01*
X1695783Y202859D01*
X1696440Y204444D01*
X1698218Y206223D01*
X1700542Y207185D01*
X1703058Y207185D01*
X1705382Y206223D01*
X1707160Y204444D01*
X1708123Y202120D01*
X1708123Y199605D01*
X1707160Y197281D01*
X1705382Y195502D01*
X1703796Y194846D01*
X1703769Y194830D01*
X1703740Y194820D01*
X1703676Y194775D01*
X1703551Y194701D01*
X1703507Y194654D01*
X1703467Y194626D01*
X1697156Y188315D01*
X1697156Y188314D01*
X1695441Y186600D01*
X1693387Y185749D01*
X1684524Y185749D01*
X1684437Y185737D01*
X1684350Y185734D01*
X1684297Y185717D01*
X1684242Y185709D01*
X1684162Y185673D01*
X1684079Y185646D01*
X1684040Y185618D01*
X1683983Y185593D01*
X1683869Y185497D01*
X1683806Y185451D01*
X1680293Y181939D01*
X1672507Y181939D01*
G37*
%LPD*%
%LPC*%
G36*
X1806905Y194540D02*
X1806905Y194540D01*
X1804581Y195502D01*
X1802802Y197281D01*
X1801840Y199605D01*
X1801840Y202120D01*
X1802808Y204457D01*
X1802837Y204496D01*
X1802897Y204560D01*
X1802922Y204609D01*
X1802955Y204653D01*
X1802986Y204735D01*
X1803026Y204813D01*
X1803034Y204861D01*
X1803057Y204919D01*
X1803069Y205067D01*
X1803082Y205144D01*
X1803082Y239443D01*
X1803070Y239530D01*
X1803067Y239618D01*
X1803050Y239670D01*
X1803042Y239725D01*
X1803006Y239805D01*
X1802979Y239888D01*
X1802951Y239927D01*
X1802926Y239984D01*
X1802830Y240098D01*
X1802810Y240126D01*
X1801840Y242467D01*
X1801840Y244983D01*
X1802802Y247307D01*
X1804581Y249085D01*
X1806905Y250048D01*
X1809420Y250048D01*
X1811744Y249085D01*
X1813523Y247307D01*
X1814485Y244983D01*
X1814485Y242467D01*
X1813517Y240130D01*
X1813488Y240092D01*
X1813428Y240028D01*
X1813403Y239978D01*
X1813370Y239934D01*
X1813339Y239852D01*
X1813299Y239775D01*
X1813291Y239727D01*
X1813268Y239669D01*
X1813256Y239521D01*
X1813243Y239443D01*
X1813243Y205144D01*
X1813255Y205057D01*
X1813258Y204970D01*
X1813275Y204917D01*
X1813283Y204863D01*
X1813319Y204783D01*
X1813346Y204699D01*
X1813374Y204660D01*
X1813399Y204603D01*
X1813495Y204490D01*
X1813515Y204461D01*
X1814485Y202120D01*
X1814485Y199605D01*
X1813523Y197281D01*
X1811744Y195502D01*
X1809420Y194540D01*
X1806905Y194540D01*
G37*
%LPD*%
%LPC*%
G36*
X1649742Y540615D02*
X1649742Y540615D01*
X1647418Y541577D01*
X1645640Y543356D01*
X1644677Y545680D01*
X1644677Y548195D01*
X1645640Y550519D01*
X1647418Y552298D01*
X1649742Y553260D01*
X1651872Y553260D01*
X1651959Y553272D01*
X1652046Y553275D01*
X1652099Y553292D01*
X1652154Y553300D01*
X1652234Y553336D01*
X1652317Y553363D01*
X1652356Y553391D01*
X1652413Y553416D01*
X1652526Y553512D01*
X1652590Y553558D01*
X1659052Y560019D01*
X1689644Y560019D01*
X1689731Y560031D01*
X1689819Y560034D01*
X1689871Y560051D01*
X1689926Y560059D01*
X1690006Y560095D01*
X1690089Y560122D01*
X1690128Y560150D01*
X1690185Y560175D01*
X1690299Y560271D01*
X1690362Y560317D01*
X1691868Y561823D01*
X1694192Y562785D01*
X1696708Y562785D01*
X1699032Y561823D01*
X1700810Y560044D01*
X1701773Y557720D01*
X1701773Y555205D01*
X1700810Y552881D01*
X1699032Y551102D01*
X1696708Y550140D01*
X1694192Y550140D01*
X1691868Y551102D01*
X1690362Y552608D01*
X1690293Y552661D01*
X1690229Y552721D01*
X1690179Y552746D01*
X1690135Y552779D01*
X1690053Y552810D01*
X1689976Y552850D01*
X1689928Y552858D01*
X1689870Y552881D01*
X1689722Y552893D01*
X1689644Y552906D01*
X1662419Y552906D01*
X1662332Y552894D01*
X1662245Y552891D01*
X1662192Y552874D01*
X1662137Y552866D01*
X1662057Y552830D01*
X1661974Y552803D01*
X1661935Y552775D01*
X1661878Y552750D01*
X1661765Y552654D01*
X1661701Y552608D01*
X1657620Y548528D01*
X1657568Y548458D01*
X1657508Y548394D01*
X1657482Y548345D01*
X1657449Y548300D01*
X1657418Y548219D01*
X1657378Y548141D01*
X1657370Y548093D01*
X1657348Y548035D01*
X1657336Y547887D01*
X1657323Y547810D01*
X1657323Y545680D01*
X1656360Y543356D01*
X1654582Y541577D01*
X1652258Y540615D01*
X1649742Y540615D01*
G37*
%LPD*%
%LPC*%
G36*
X1714830Y227877D02*
X1714830Y227877D01*
X1712506Y228840D01*
X1710727Y230618D01*
X1709765Y232942D01*
X1709765Y235458D01*
X1710727Y237782D01*
X1712233Y239288D01*
X1712286Y239357D01*
X1712346Y239421D01*
X1712371Y239471D01*
X1712404Y239515D01*
X1712435Y239597D01*
X1712475Y239674D01*
X1712483Y239722D01*
X1712506Y239780D01*
X1712518Y239928D01*
X1712531Y240006D01*
X1712531Y262661D01*
X1717405Y267535D01*
X1717457Y267605D01*
X1717517Y267669D01*
X1717543Y267718D01*
X1717576Y267762D01*
X1717607Y267844D01*
X1717647Y267922D01*
X1717655Y267969D01*
X1717677Y268028D01*
X1717689Y268175D01*
X1717702Y268253D01*
X1717702Y270383D01*
X1718665Y272707D01*
X1720443Y274485D01*
X1722767Y275448D01*
X1725283Y275448D01*
X1727607Y274485D01*
X1729385Y272707D01*
X1730348Y270383D01*
X1730348Y267867D01*
X1729385Y265543D01*
X1727607Y263765D01*
X1725283Y262802D01*
X1723153Y262802D01*
X1723066Y262790D01*
X1722979Y262787D01*
X1722926Y262770D01*
X1722871Y262762D01*
X1722791Y262727D01*
X1722708Y262700D01*
X1722669Y262672D01*
X1722612Y262646D01*
X1722499Y262550D01*
X1722435Y262505D01*
X1719942Y260012D01*
X1719889Y259942D01*
X1719829Y259878D01*
X1719804Y259829D01*
X1719771Y259784D01*
X1719740Y259703D01*
X1719700Y259625D01*
X1719692Y259577D01*
X1719669Y259519D01*
X1719657Y259371D01*
X1719644Y259294D01*
X1719644Y240006D01*
X1719656Y239919D01*
X1719659Y239831D01*
X1719676Y239779D01*
X1719684Y239724D01*
X1719720Y239644D01*
X1719747Y239561D01*
X1719775Y239522D01*
X1719800Y239465D01*
X1719896Y239351D01*
X1719942Y239288D01*
X1721448Y237782D01*
X1722410Y235458D01*
X1722410Y232942D01*
X1721448Y230618D01*
X1719669Y228840D01*
X1717345Y227877D01*
X1714830Y227877D01*
G37*
%LPD*%
%LPC*%
G36*
X1744690Y533919D02*
X1744690Y533919D01*
X1737994Y540615D01*
X1737994Y550085D01*
X1744690Y556781D01*
X1754160Y556781D01*
X1760856Y550085D01*
X1760856Y540615D01*
X1754160Y533919D01*
X1744690Y533919D01*
G37*
%LPD*%
%LPC*%
G36*
X1886280Y186602D02*
X1886280Y186602D01*
X1883956Y187565D01*
X1882177Y189343D01*
X1881734Y190415D01*
X1881718Y190441D01*
X1881708Y190471D01*
X1881663Y190534D01*
X1881589Y190659D01*
X1881542Y190704D01*
X1881514Y190744D01*
X1863728Y208530D01*
X1863658Y208582D01*
X1863594Y208642D01*
X1863545Y208668D01*
X1863500Y208701D01*
X1863419Y208732D01*
X1863341Y208772D01*
X1863293Y208780D01*
X1863235Y208802D01*
X1863087Y208814D01*
X1863010Y208827D01*
X1860880Y208827D01*
X1858556Y209790D01*
X1856777Y211568D01*
X1855815Y213892D01*
X1855815Y216408D01*
X1856777Y218732D01*
X1858556Y220510D01*
X1860880Y221473D01*
X1863395Y221473D01*
X1865719Y220510D01*
X1867498Y218732D01*
X1868460Y216408D01*
X1868460Y214278D01*
X1868472Y214191D01*
X1868475Y214104D01*
X1868492Y214051D01*
X1868500Y213996D01*
X1868536Y213916D01*
X1868563Y213833D01*
X1868591Y213794D01*
X1868616Y213737D01*
X1868712Y213624D01*
X1868758Y213560D01*
X1883530Y198787D01*
X1883532Y198786D01*
X1883533Y198785D01*
X1883650Y198697D01*
X1883757Y198616D01*
X1883759Y198616D01*
X1883760Y198615D01*
X1883895Y198564D01*
X1884023Y198515D01*
X1884025Y198515D01*
X1884026Y198514D01*
X1884171Y198503D01*
X1884306Y198492D01*
X1884308Y198492D01*
X1884310Y198492D01*
X1884325Y198495D01*
X1884585Y198547D01*
X1884612Y198562D01*
X1884637Y198567D01*
X1886280Y199248D01*
X1888795Y199248D01*
X1891119Y198285D01*
X1892898Y196507D01*
X1893860Y194183D01*
X1893860Y191667D01*
X1892898Y189343D01*
X1891119Y187565D01*
X1888795Y186602D01*
X1886280Y186602D01*
G37*
%LPD*%
%LPC*%
G36*
X1867230Y172315D02*
X1867230Y172315D01*
X1864906Y173277D01*
X1863127Y175056D01*
X1862165Y177380D01*
X1862165Y179510D01*
X1862153Y179596D01*
X1862150Y179684D01*
X1862133Y179736D01*
X1862125Y179791D01*
X1862089Y179871D01*
X1862062Y179954D01*
X1862034Y179994D01*
X1862009Y180051D01*
X1861913Y180164D01*
X1861867Y180228D01*
X1846265Y195830D01*
X1846195Y195882D01*
X1846131Y195942D01*
X1846082Y195968D01*
X1846038Y196001D01*
X1845956Y196032D01*
X1845878Y196072D01*
X1845831Y196080D01*
X1845772Y196102D01*
X1845625Y196114D01*
X1845547Y196127D01*
X1843417Y196127D01*
X1841093Y197090D01*
X1839315Y198868D01*
X1838352Y201192D01*
X1838352Y203708D01*
X1839315Y206032D01*
X1841093Y207810D01*
X1843417Y208773D01*
X1845933Y208773D01*
X1848257Y207810D01*
X1850035Y206032D01*
X1850998Y203708D01*
X1850998Y201578D01*
X1851010Y201491D01*
X1851013Y201404D01*
X1851030Y201351D01*
X1851038Y201296D01*
X1851073Y201216D01*
X1851100Y201133D01*
X1851128Y201094D01*
X1851154Y201037D01*
X1851250Y200924D01*
X1851295Y200860D01*
X1866897Y185258D01*
X1866967Y185205D01*
X1867031Y185145D01*
X1867080Y185120D01*
X1867125Y185087D01*
X1867206Y185056D01*
X1867284Y185016D01*
X1867332Y185008D01*
X1867390Y184985D01*
X1867538Y184973D01*
X1867615Y184960D01*
X1869745Y184960D01*
X1872069Y183998D01*
X1873848Y182219D01*
X1874810Y179895D01*
X1874810Y177380D01*
X1873848Y175056D01*
X1872069Y173277D01*
X1869745Y172315D01*
X1867230Y172315D01*
G37*
%LPD*%
%LPC*%
G36*
X1676730Y165965D02*
X1676730Y165965D01*
X1674406Y166927D01*
X1672627Y168706D01*
X1671665Y171030D01*
X1671665Y173545D01*
X1672627Y175869D01*
X1674406Y177648D01*
X1676730Y178610D01*
X1679245Y178610D01*
X1681569Y177648D01*
X1683075Y176142D01*
X1683145Y176089D01*
X1683209Y176029D01*
X1683258Y176004D01*
X1683302Y175971D01*
X1683384Y175940D01*
X1683462Y175900D01*
X1683509Y175892D01*
X1683568Y175869D01*
X1683716Y175857D01*
X1683793Y175844D01*
X1693556Y175844D01*
X1693643Y175856D01*
X1693730Y175859D01*
X1693783Y175876D01*
X1693838Y175884D01*
X1693918Y175920D01*
X1694001Y175947D01*
X1694040Y175975D01*
X1694097Y176000D01*
X1694210Y176096D01*
X1694274Y176142D01*
X1695180Y177047D01*
X1695232Y177117D01*
X1695292Y177181D01*
X1695318Y177230D01*
X1695351Y177275D01*
X1695382Y177356D01*
X1695422Y177434D01*
X1695430Y177482D01*
X1695452Y177540D01*
X1695464Y177688D01*
X1695477Y177765D01*
X1695477Y179895D01*
X1696440Y182219D01*
X1698218Y183998D01*
X1700542Y184960D01*
X1703058Y184960D01*
X1705382Y183998D01*
X1707160Y182219D01*
X1708123Y179895D01*
X1708123Y177380D01*
X1707160Y175056D01*
X1705382Y173277D01*
X1703058Y172315D01*
X1700928Y172315D01*
X1700841Y172303D01*
X1700754Y172300D01*
X1700701Y172283D01*
X1700646Y172275D01*
X1700566Y172239D01*
X1700483Y172212D01*
X1700444Y172184D01*
X1700387Y172159D01*
X1700274Y172063D01*
X1700210Y172017D01*
X1696923Y168731D01*
X1683793Y168731D01*
X1683706Y168719D01*
X1683619Y168716D01*
X1683566Y168699D01*
X1683511Y168691D01*
X1683432Y168655D01*
X1683348Y168628D01*
X1683309Y168600D01*
X1683252Y168575D01*
X1683139Y168479D01*
X1683075Y168433D01*
X1681569Y166927D01*
X1679245Y165965D01*
X1676730Y165965D01*
G37*
%LPD*%
%LPC*%
G36*
X1946829Y278014D02*
X1946829Y278014D01*
X1940877Y283966D01*
X1940877Y292384D01*
X1946829Y298336D01*
X1955246Y298336D01*
X1961198Y292384D01*
X1961198Y283966D01*
X1955246Y278014D01*
X1946829Y278014D01*
G37*
%LPD*%
%LPC*%
G36*
X1972229Y252614D02*
X1972229Y252614D01*
X1966277Y258566D01*
X1966277Y266984D01*
X1972229Y272936D01*
X1980646Y272936D01*
X1986598Y266984D01*
X1986598Y258566D01*
X1980646Y252614D01*
X1972229Y252614D01*
G37*
%LPD*%
%LPC*%
G36*
X1946829Y252614D02*
X1946829Y252614D01*
X1940877Y258566D01*
X1940877Y266984D01*
X1946829Y272936D01*
X1955246Y272936D01*
X1961198Y266984D01*
X1961198Y258566D01*
X1955246Y252614D01*
X1946829Y252614D01*
G37*
%LPD*%
%LPC*%
G36*
X1972229Y227214D02*
X1972229Y227214D01*
X1966277Y233166D01*
X1966277Y241584D01*
X1972229Y247536D01*
X1980646Y247536D01*
X1986598Y241584D01*
X1986598Y233166D01*
X1980646Y227214D01*
X1972229Y227214D01*
G37*
%LPD*%
%LPC*%
G36*
X1972229Y201814D02*
X1972229Y201814D01*
X1966277Y207766D01*
X1966277Y216184D01*
X1972229Y222136D01*
X1980646Y222136D01*
X1986598Y216184D01*
X1986598Y207766D01*
X1980646Y201814D01*
X1972229Y201814D01*
G37*
%LPD*%
%LPC*%
G36*
X1946829Y176414D02*
X1946829Y176414D01*
X1940877Y182366D01*
X1940877Y190784D01*
X1946829Y196736D01*
X1955246Y196736D01*
X1961198Y190784D01*
X1961198Y182366D01*
X1955246Y176414D01*
X1946829Y176414D01*
G37*
%LPD*%
%LPC*%
G36*
X1972229Y176414D02*
X1972229Y176414D01*
X1966277Y182366D01*
X1966277Y190784D01*
X1972229Y196736D01*
X1980646Y196736D01*
X1986598Y190784D01*
X1986598Y182366D01*
X1980646Y176414D01*
X1972229Y176414D01*
G37*
%LPD*%
%LPC*%
G36*
X1972229Y151014D02*
X1972229Y151014D01*
X1966277Y156966D01*
X1966277Y165384D01*
X1972229Y171336D01*
X1980646Y171336D01*
X1986598Y165384D01*
X1986598Y156966D01*
X1980646Y151014D01*
X1972229Y151014D01*
G37*
%LPD*%
%LPC*%
G36*
X1946829Y151014D02*
X1946829Y151014D01*
X1940877Y156966D01*
X1940877Y165384D01*
X1946829Y171336D01*
X1955246Y171336D01*
X1961198Y165384D01*
X1961198Y156966D01*
X1955246Y151014D01*
X1946829Y151014D01*
G37*
%LPD*%
%LPC*%
G36*
X1972229Y303414D02*
X1972229Y303414D01*
X1966277Y309366D01*
X1966277Y317784D01*
X1972229Y323736D01*
X1980646Y323736D01*
X1986598Y317784D01*
X1986598Y309366D01*
X1980646Y303414D01*
X1972229Y303414D01*
G37*
%LPD*%
%LPC*%
G36*
X1972229Y100214D02*
X1972229Y100214D01*
X1966277Y106166D01*
X1966277Y114584D01*
X1972229Y120536D01*
X1980646Y120536D01*
X1986598Y114584D01*
X1986598Y106166D01*
X1980646Y100214D01*
X1972229Y100214D01*
G37*
%LPD*%
%LPC*%
G36*
X1946829Y100214D02*
X1946829Y100214D01*
X1940877Y106166D01*
X1940877Y114584D01*
X1946829Y120536D01*
X1955246Y120536D01*
X1961198Y114584D01*
X1961198Y106166D01*
X1955246Y100214D01*
X1946829Y100214D01*
G37*
%LPD*%
%LPC*%
G36*
X1972229Y74814D02*
X1972229Y74814D01*
X1966277Y80766D01*
X1966277Y89184D01*
X1972229Y95136D01*
X1980646Y95136D01*
X1986598Y89184D01*
X1986598Y80766D01*
X1980646Y74814D01*
X1972229Y74814D01*
G37*
%LPD*%
%LPC*%
G36*
X1946829Y74814D02*
X1946829Y74814D01*
X1940877Y80766D01*
X1940877Y89184D01*
X1946829Y95136D01*
X1955246Y95136D01*
X1961198Y89184D01*
X1961198Y80766D01*
X1955246Y74814D01*
X1946829Y74814D01*
G37*
%LPD*%
%LPC*%
G36*
X1946829Y303414D02*
X1946829Y303414D01*
X1940877Y309366D01*
X1940877Y317784D01*
X1946829Y323736D01*
X1955246Y323736D01*
X1961198Y317784D01*
X1961198Y309366D01*
X1955246Y303414D01*
X1946829Y303414D01*
G37*
%LPD*%
%LPC*%
G36*
X1972229Y278014D02*
X1972229Y278014D01*
X1966277Y283966D01*
X1966277Y292384D01*
X1972229Y298336D01*
X1980646Y298336D01*
X1986598Y292384D01*
X1986598Y283966D01*
X1980646Y278014D01*
X1972229Y278014D01*
G37*
%LPD*%
%LPC*%
G36*
X1713242Y324715D02*
X1713242Y324715D01*
X1710918Y325677D01*
X1709140Y327456D01*
X1708177Y329780D01*
X1708177Y332295D01*
X1709140Y334619D01*
X1710918Y336398D01*
X1713242Y337360D01*
X1715372Y337360D01*
X1715459Y337372D01*
X1715546Y337375D01*
X1715599Y337392D01*
X1715654Y337400D01*
X1715734Y337436D01*
X1715817Y337463D01*
X1715856Y337491D01*
X1715913Y337516D01*
X1716026Y337612D01*
X1716090Y337658D01*
X1720171Y341738D01*
X1720183Y341755D01*
X1720194Y341764D01*
X1720224Y341809D01*
X1720283Y341872D01*
X1720309Y341921D01*
X1720342Y341966D01*
X1720373Y342047D01*
X1720413Y342125D01*
X1720421Y342173D01*
X1720443Y342231D01*
X1720455Y342379D01*
X1720468Y342456D01*
X1720468Y344282D01*
X1720456Y344369D01*
X1720453Y344456D01*
X1720436Y344509D01*
X1720428Y344563D01*
X1720393Y344643D01*
X1720366Y344727D01*
X1720338Y344766D01*
X1720312Y344823D01*
X1720216Y344936D01*
X1720171Y345000D01*
X1718665Y346506D01*
X1717702Y348830D01*
X1717702Y351345D01*
X1718665Y353669D01*
X1720443Y355448D01*
X1722767Y356410D01*
X1725283Y356410D01*
X1727607Y355448D01*
X1729385Y353669D01*
X1730348Y351345D01*
X1730348Y348830D01*
X1729385Y346506D01*
X1727879Y345000D01*
X1727827Y344930D01*
X1727767Y344866D01*
X1727741Y344817D01*
X1727708Y344773D01*
X1727677Y344691D01*
X1727637Y344613D01*
X1727629Y344565D01*
X1727607Y344507D01*
X1727595Y344359D01*
X1727582Y344282D01*
X1727582Y339089D01*
X1721120Y332628D01*
X1721068Y332558D01*
X1721008Y332494D01*
X1720982Y332445D01*
X1720949Y332400D01*
X1720918Y332319D01*
X1720878Y332241D01*
X1720870Y332193D01*
X1720848Y332135D01*
X1720836Y331987D01*
X1720823Y331910D01*
X1720823Y329780D01*
X1719860Y327456D01*
X1718082Y325677D01*
X1715758Y324715D01*
X1713242Y324715D01*
G37*
%LPD*%
%LPC*%
G36*
X1689430Y404090D02*
X1689430Y404090D01*
X1687106Y405052D01*
X1685327Y406831D01*
X1684365Y409155D01*
X1684365Y411670D01*
X1685327Y413994D01*
X1686833Y415500D01*
X1686886Y415570D01*
X1686946Y415634D01*
X1686971Y415683D01*
X1687004Y415727D01*
X1687035Y415809D01*
X1687075Y415887D01*
X1687083Y415935D01*
X1687106Y415993D01*
X1687118Y416141D01*
X1687131Y416218D01*
X1687131Y426832D01*
X1687119Y426919D01*
X1687116Y427006D01*
X1687099Y427059D01*
X1687091Y427113D01*
X1687055Y427193D01*
X1687028Y427277D01*
X1687000Y427316D01*
X1686975Y427373D01*
X1686879Y427486D01*
X1686833Y427550D01*
X1685327Y429056D01*
X1684365Y431380D01*
X1684365Y433895D01*
X1685327Y436219D01*
X1687106Y437998D01*
X1689430Y438960D01*
X1691945Y438960D01*
X1694269Y437998D01*
X1696048Y436219D01*
X1697010Y433895D01*
X1697010Y431380D01*
X1696048Y429056D01*
X1694542Y427550D01*
X1694489Y427480D01*
X1694429Y427416D01*
X1694404Y427367D01*
X1694371Y427323D01*
X1694340Y427241D01*
X1694300Y427163D01*
X1694292Y427115D01*
X1694269Y427057D01*
X1694257Y426909D01*
X1694244Y426832D01*
X1694244Y416218D01*
X1694256Y416131D01*
X1694259Y416044D01*
X1694276Y415991D01*
X1694284Y415937D01*
X1694320Y415857D01*
X1694347Y415773D01*
X1694375Y415734D01*
X1694400Y415677D01*
X1694496Y415564D01*
X1694542Y415500D01*
X1696048Y413994D01*
X1697010Y411670D01*
X1697010Y409155D01*
X1696048Y406831D01*
X1694269Y405052D01*
X1691945Y404090D01*
X1689430Y404090D01*
G37*
%LPD*%
%LPC*%
G36*
X1672507Y207339D02*
X1672507Y207339D01*
X1667001Y212844D01*
X1667001Y220631D01*
X1672507Y226136D01*
X1680293Y226136D01*
X1685799Y220631D01*
X1685799Y212844D01*
X1680293Y207339D01*
X1672507Y207339D01*
G37*
%LPD*%
%LPC*%
G36*
X1621707Y207339D02*
X1621707Y207339D01*
X1616201Y212844D01*
X1616201Y220631D01*
X1621707Y226136D01*
X1629493Y226136D01*
X1634999Y220631D01*
X1634999Y212844D01*
X1629493Y207339D01*
X1621707Y207339D01*
G37*
%LPD*%
%LPC*%
G36*
X1647107Y181939D02*
X1647107Y181939D01*
X1641601Y187444D01*
X1641601Y195231D01*
X1647107Y200736D01*
X1654893Y200736D01*
X1660399Y195231D01*
X1660399Y187444D01*
X1654893Y181939D01*
X1647107Y181939D01*
G37*
%LPD*%
D10*
X1828800Y661555D03*
D11*
X1828800Y625995D03*
D12*
X1819513Y361638D02*
X1809513Y361638D01*
X1809513Y376638D02*
X1819513Y376638D01*
D13*
X1847850Y361200D02*
X1860550Y361200D01*
X1860550Y380250D02*
X1847850Y380250D01*
X1847850Y342150D02*
X1860550Y342150D01*
D14*
X2035175Y735850D03*
X2035175Y786650D03*
D15*
X1627632Y122281D02*
X1610868Y122281D01*
X1674368Y122281D02*
X1691132Y122281D01*
X1627632Y77831D02*
X1610868Y77831D01*
X1674368Y77831D02*
X1691132Y77831D01*
D16*
X1900237Y41795D02*
X1900237Y26555D01*
X1874837Y26555D02*
X1874837Y41795D01*
X1849437Y41795D02*
X1849437Y26555D01*
X1824037Y26555D02*
X1824037Y41795D01*
D17*
X1671638Y696798D02*
X1671638Y714578D01*
X1697038Y714578D02*
X1697038Y696798D01*
X1722438Y696798D02*
X1722438Y714578D01*
D18*
X1645603Y857135D02*
X1645603Y878090D01*
X1700213Y878090D02*
X1700213Y857135D01*
X1754823Y857135D02*
X1754823Y878090D01*
D19*
X1925638Y675525D03*
X1925638Y624725D03*
X1976438Y624725D03*
X1925638Y700925D03*
X1925638Y726325D03*
X1976438Y675525D03*
X1976438Y700925D03*
X1976438Y726325D03*
D20*
X1950200Y403225D03*
X1975600Y403225D03*
D21*
X1749425Y570750D03*
X1749425Y545350D03*
D22*
X1951838Y950450D03*
X1491838Y950450D03*
D23*
X1976438Y84975D03*
X1976438Y110375D03*
X1976438Y135775D03*
X1976438Y161175D03*
X1976438Y186575D03*
X1976438Y211975D03*
X1951038Y84975D03*
X1951038Y110375D03*
X1951038Y135775D03*
X1951038Y161175D03*
X1951038Y186575D03*
X1951038Y211975D03*
X1976438Y237375D03*
X1976438Y262775D03*
X1951038Y237375D03*
X1951038Y262775D03*
X1976438Y288175D03*
X1951038Y288175D03*
X1976438Y313575D03*
X1951038Y313575D03*
D24*
X1676400Y216738D03*
X1676400Y191338D03*
X1651000Y216738D03*
X1651000Y191338D03*
X1625600Y216738D03*
X1625600Y191338D03*
D25*
X870625Y119950D03*
X870625Y369950D03*
X1120625Y169950D03*
X1120625Y119950D03*
X1120625Y319950D03*
X1120625Y369950D03*
D26*
X1258888Y354850D03*
X1258888Y431050D03*
D21*
X1208088Y431050D03*
X1208088Y354850D03*
D27*
X313950Y283038D03*
X313950Y633038D03*
D28*
X663950Y583038D03*
X663950Y333038D03*
D29*
X781050Y934161D02*
X781050Y956640D01*
X831850Y956640D02*
X831850Y934161D01*
X882650Y934161D02*
X882650Y956640D01*
X933450Y956640D02*
X933450Y934161D01*
D30*
X877888Y545025D02*
X852488Y545025D01*
X852488Y595825D02*
X877888Y595825D01*
X877888Y710125D02*
X852488Y710125D01*
X852488Y760925D02*
X877888Y760925D01*
X1245850Y68800D02*
X1271250Y68800D01*
X1271250Y119600D02*
X1245850Y119600D01*
X1245850Y233900D02*
X1271250Y233900D01*
X1271250Y284700D02*
X1245850Y284700D01*
D31*
X1152525Y843800D03*
D32*
X1152525Y920000D03*
D16*
X1112520Y662825D02*
X1097280Y662825D01*
X1097280Y688225D02*
X1112520Y688225D01*
X1112520Y713625D02*
X1097280Y713625D01*
X1229043Y499313D02*
X1244283Y499313D01*
X1244283Y524713D02*
X1229043Y524713D01*
X1229043Y550113D02*
X1244283Y550113D01*
D31*
X1069975Y510825D03*
D32*
X1069975Y560825D03*
D33*
X1197801Y678700D02*
X1212025Y678700D01*
X1212025Y704100D02*
X1197801Y704100D01*
D20*
X965200Y786650D03*
X990600Y786650D03*
D26*
X1290638Y719975D03*
X1290638Y745375D03*
X1290638Y770775D03*
X1290638Y796175D03*
D34*
X100013Y788225D02*
X100013Y765225D01*
X100013Y738225D02*
X100013Y715225D01*
X100013Y447713D02*
X100013Y424713D01*
X100013Y474713D02*
X100013Y497713D01*
D14*
X1403350Y603250D03*
X1403350Y654050D03*
D35*
X1703388Y494550D03*
D36*
X1654175Y445338D01*
X1638300Y445338D01*
D35*
X1638300Y445338D03*
X1887538Y321513D03*
X1862138Y494550D03*
X1884363Y535825D03*
X1773238Y442163D03*
X1719263Y445338D03*
X1822450Y345325D03*
X1916113Y412000D03*
X1673225Y337388D03*
X1704975Y370725D03*
X1811338Y473913D03*
X1841500Y558844D03*
X1738313Y359613D03*
X1565275Y562813D03*
X1606550Y458038D03*
X1820863Y456450D03*
X1938338Y494550D03*
X1930400Y442163D03*
X1703388Y597738D03*
X1651000Y546938D03*
D37*
X1660525Y556463D01*
X1695450Y556463D01*
D35*
X1695450Y556463D03*
X1690688Y432638D03*
D37*
X1690688Y410413D01*
D35*
X1690688Y410413D03*
X1701800Y178638D03*
X1677988Y172288D03*
D37*
X1695450Y172288D02*
X1701800Y178638D01*
X1695450Y172288D02*
X1677988Y172288D01*
D35*
X1724025Y269125D03*
D37*
X1716088Y261188D01*
X1716088Y234200D01*
D35*
X1716088Y234200D03*
X1711325Y278650D03*
D37*
X1651000Y218325D01*
X1651000Y216738D01*
D38*
X1762563Y361638D02*
X1814513Y361638D01*
X1762563Y361638D02*
X1751013Y350088D01*
D35*
X1751013Y350088D03*
X1701800Y200863D03*
D39*
X1692275Y191338D01*
X1676400Y191338D01*
D35*
X1808163Y200863D03*
D40*
X1808163Y243725D01*
D35*
X1808163Y243725D03*
D39*
X1975600Y403225D02*
X1997075Y403225D01*
D35*
X1997075Y403225D03*
D38*
X1671638Y705688D02*
X1645603Y731723D01*
X1645603Y867613D01*
D35*
X1763713Y396125D03*
D36*
X1819275Y396125D01*
D35*
X1819275Y396125D03*
X1724025Y350088D03*
D37*
X1724025Y340563D01*
X1714500Y331038D01*
D35*
X1714500Y331038D03*
X1814513Y723944D03*
X1898650Y607263D03*
X1885950Y607263D03*
X1898650Y632663D03*
X1885950Y632663D03*
X1688350Y927100D03*
X1073150Y750138D03*
X1071563Y623138D03*
X1755378Y151650D03*
X1905000Y265950D03*
X1744663Y227850D03*
X1836341Y115138D03*
X1820466Y200863D03*
X1860550Y251663D03*
X1819275Y283413D03*
D39*
X1976438Y439738D02*
X1984375Y439738D01*
D35*
X1984375Y439738D03*
D39*
X1950200Y413500D02*
X1950200Y403225D01*
X1950200Y413500D02*
X1976438Y439738D01*
D37*
X1905000Y253250D02*
X1898650Y253250D01*
D35*
X1898650Y253250D03*
D37*
X1905000Y253250D02*
X1946275Y211975D01*
X1951038Y211975D01*
D35*
X1906588Y305638D03*
D37*
X1874838Y273888D01*
X1858963Y273888D01*
D35*
X1858963Y273888D03*
D30*
X100013Y726725D02*
X100013Y776725D01*
X100013Y726725D02*
X220263Y726725D01*
X313950Y633038D01*
X457200Y489788D01*
X457200Y234200D01*
X508000Y183400D01*
X870625Y342825D02*
X870625Y369950D01*
X711200Y183400D02*
X508000Y183400D01*
X711200Y183400D02*
X870625Y342825D01*
D35*
X1862138Y215150D03*
D37*
X1884363Y192925D01*
X1887538Y192925D01*
D35*
X1887538Y192925D03*
X1844675Y202450D03*
D37*
X1868488Y178638D01*
D35*
X1868488Y178638D03*
M02*
