M48
;GenerationSoftware,Autodesk,EAGLE,8.6.3*%
;CreationDate,2021-05-18T20:18:47Z*%
FMAT,2
ICI,OFF
METRIC,TZ,000.000
T15C0.350
T14C0.600
T13C0.800
T12C0.813
T11C0.900
T10C0.914
T9C1.000
T8C1.016
T7C1.270
T6C1.300
T5C1.397
T4C1.499
T3C1.500
T2C3.000
T1C3.200
%
G90
M71
T1
X85563Y41995
X5575Y110000
X209325Y20350
X5325Y20250
X209425Y109750
X105000Y110000
X136000Y20250
X85563Y6995
X113562Y6995
X113562Y41995
X25145Y84554
X72645Y84554
X25145Y7054
X72645Y7054
T2
X195184Y95045
X149184Y95045
T3
X10001Y77673
X10001Y72673
X10001Y43621
X10001Y48621
T4
X93345Y94540
X88265Y94540
X83185Y94540
X78105Y94540
T5
X31395Y63304
X31395Y28304
X66395Y58304
X66395Y33304
X175482Y86761
X170021Y86761
X164560Y86761
T6
X125855Y6880
X125855Y11960
X140335Y65405
X203517Y73585
X203517Y78665
X140335Y60325
X125855Y23390
X86519Y54502
X86519Y59582
X86519Y71013
X86519Y76093
X125855Y28470
T7
X112062Y11995
X112062Y36995
X112062Y31995
X112062Y16995
X87063Y36995
X87063Y11995
T8
X129064Y79618
X190024Y3417
X187484Y3417
X184944Y3417
X182404Y3417
X197644Y21198
X195020Y40323
X197560Y40323
X174942Y57075
X174942Y54535
X197644Y8498
X197644Y11037
X197644Y13577
X197644Y16117
X197644Y18658
X195104Y8498
X195104Y11037
X195104Y13577
X195104Y16117
X195104Y18658
X195104Y21198
X197644Y23737
X197644Y26277
X195104Y23737
X195104Y26277
X197644Y28817
X195104Y28817
X197644Y31357
X195104Y31357
X110490Y66283
X110490Y68823
X110490Y71363
X123666Y49931
X123666Y52471
X123666Y55011
X96520Y78665
X99060Y78665
X129064Y71998
X129064Y74538
X129064Y77078
T9
X192564Y72633
X169704Y70569
X168275Y12228
X197644Y72633
X197644Y67553
X172244Y70569
X197644Y70093
X115252Y92000
X115252Y84380
X161925Y12228
X161925Y7783
X192564Y67553
X168275Y7783
X167164Y70569
X192564Y62472
X197644Y62472
X192564Y70093
T10
X167640Y19134
X165100Y21674
X165100Y19134
X162560Y21674
X162560Y19134
X167640Y21674
T11
X106997Y51082
X106997Y56082
T12
X182880Y66156
X182880Y62599
T13
X125889Y43105
X125889Y35485
X185420Y36120
X185420Y38025
X120491Y67870
X185420Y34215
X120491Y70410
X120809Y35485
X120809Y43105
T14
X181451Y36164
X181451Y37664
T15
X170180Y20086
X180816Y20086
X180816Y24372
X199707Y40323
X176371Y39613
X181927Y39613
X172403Y35009
X171450Y33104
X189865Y60726
X188595Y60726
X189865Y63266
X184150Y55884
X170339Y49455
X163830Y44534
X188754Y32151
X186214Y49455
X188436Y53582
X177324Y44216
X171926Y44534
X182245Y34533
X191611Y41200
X167323Y33739
X170498Y37073
X186849Y17864
X184467Y20245
X188754Y19293
X186214Y21515
X185896Y27389
X190659Y30564
X189865Y25325
X198437Y43974
X181927Y28341
X186055Y25166
X182047Y20086
X183634Y11514
X174466Y22785
X181134Y47391
X169069Y41041
X173831Y35961
X156528Y56281
X160655Y45804
X182086Y45645
X193834Y49455
X193040Y44216
X170339Y59774
X165100Y54694
X169545Y55646
X169069Y43264
X181451Y72394
X170180Y17864
X167799Y17229
X172403Y26912
X171609Y23420
X171133Y27865
X175101Y35009
X175538Y15165
X107156Y62314
X107315Y75014
X168835Y92710
X188595Y63266
X190500Y26595
M30