G04 EAGLE Gerber X2 export*
%TF.Part,Single*%
%TF.FileFunction,Paste,Top*%
%TF.FilePolarity,Positive*%
%TF.GenerationSoftware,Autodesk,EAGLE,8.6.3*%
%TF.CreationDate,2021-05-18T20:18:47Z*%
G75*
%MOMM*%
%FSLAX34Y34*%
%LPD*%
%AMOC8*
5,1,8,0,0,1.08239X$1,22.5*%
G01*
%ADD10R,1.300000X1.500000*%
%ADD11R,1.500000X1.300000*%
%ADD12R,1.803000X1.600000*%
%ADD13R,1.000000X1.400000*%
%ADD14R,1.800000X2.200000*%
%ADD15R,2.200000X1.800000*%
%ADD16R,1.422400X0.635000*%
%ADD17R,0.304800X0.990600*%
%ADD18R,2.000000X2.400000*%
%ADD19R,1.600000X1.300000*%
%ADD20R,1.300000X1.600000*%
%ADD21R,0.500000X1.500000*%
%ADD22R,1.500000X0.500000*%
%ADD23R,1.400000X0.600000*%
%ADD24R,1.300000X1.400000*%
%ADD25R,1.066800X3.352800*%
%ADD26R,1.800000X1.700000*%
%ADD27R,2.000000X3.200000*%


D10*
X1649413Y527888D03*
X1668463Y527888D03*
D11*
X1627188Y473913D03*
X1627188Y492963D03*
D10*
X1760538Y485025D03*
X1741488Y485025D03*
X1821259Y113947D03*
X1802209Y113947D03*
X1850628Y113947D03*
X1869678Y113947D03*
X1804194Y329450D03*
X1823244Y329450D03*
X1897063Y399300D03*
X1916113Y399300D03*
D11*
X1673225Y304050D03*
X1673225Y323100D03*
D12*
X1654175Y337388D03*
X1654175Y305638D03*
D10*
X1919288Y483438D03*
X1938338Y483438D03*
X1839913Y477088D03*
X1858963Y477088D03*
D11*
X1819275Y424700D03*
X1819275Y443750D03*
X1781175Y410413D03*
X1781175Y429463D03*
D10*
X1779588Y464388D03*
X1798638Y464388D03*
D11*
X1524000Y567575D03*
X1524000Y586625D03*
X1701050Y908050D03*
X1701050Y927100D03*
D10*
X1625600Y445338D03*
X1606550Y445338D03*
D11*
X1814513Y692194D03*
X1814513Y711244D03*
D13*
X1635125Y564400D03*
X1625600Y589800D03*
X1644650Y589800D03*
D14*
X1638200Y754900D03*
X1689200Y754900D03*
D15*
X1892300Y670863D03*
X1892300Y619863D03*
D13*
X1692275Y537413D03*
X1701800Y512013D03*
X1682750Y512013D03*
D16*
X1606550Y600913D03*
X1606550Y588213D03*
X1606550Y575513D03*
X1606550Y562813D03*
X1549400Y600913D03*
X1549400Y588213D03*
X1549400Y575513D03*
X1549400Y562813D03*
D17*
X1691825Y301860D03*
X1698325Y301860D03*
X1704825Y301860D03*
X1711325Y301860D03*
X1717825Y301860D03*
X1724325Y301860D03*
X1730825Y301860D03*
X1730825Y360216D03*
X1724325Y360216D03*
X1717825Y360216D03*
X1711325Y360216D03*
X1704825Y360216D03*
X1698325Y360216D03*
X1691825Y360216D03*
D16*
X1839913Y497725D03*
X1839913Y510425D03*
X1839913Y523125D03*
X1839913Y535825D03*
X1897063Y497725D03*
X1897063Y510425D03*
X1897063Y523125D03*
X1897063Y535825D03*
D18*
X1855944Y144109D03*
X1815944Y144109D03*
D19*
X1627188Y533125D03*
X1627188Y513125D03*
D20*
X1761013Y464388D03*
X1741013Y464388D03*
X1632028Y260791D03*
X1612028Y260791D03*
D19*
X1917700Y544238D03*
X1917700Y524238D03*
D20*
X1918813Y505663D03*
X1938813Y505663D03*
X1859438Y456450D03*
X1839438Y456450D03*
X1859438Y435813D03*
X1839438Y435813D03*
X1741013Y443750D03*
X1761013Y443750D03*
X1741013Y423113D03*
X1761013Y423113D03*
X1733075Y505663D03*
X1753075Y505663D03*
X1779113Y485025D03*
X1799113Y485025D03*
X1691163Y597738D03*
X1671163Y597738D03*
D19*
X1658938Y585513D03*
X1658938Y565513D03*
D20*
X1668938Y504075D03*
X1648938Y504075D03*
D19*
X1598613Y533125D03*
X1598613Y513125D03*
X1598613Y493438D03*
X1598613Y473438D03*
D13*
X1885950Y419938D03*
X1876425Y445338D03*
X1895475Y445338D03*
X1739900Y377075D03*
X1730375Y402475D03*
X1749425Y402475D03*
D21*
X1779275Y184534D03*
X1787275Y184534D03*
X1795275Y184534D03*
X1803275Y184534D03*
X1811275Y184534D03*
X1819275Y184534D03*
X1827275Y184534D03*
X1835275Y184534D03*
X1843275Y184534D03*
X1851275Y184534D03*
X1859275Y184534D03*
D22*
X1877275Y202534D03*
X1877275Y210534D03*
X1877275Y218534D03*
X1877275Y226534D03*
X1877275Y234534D03*
X1877275Y242534D03*
X1877275Y250534D03*
X1877275Y258534D03*
X1877275Y266534D03*
X1877275Y274534D03*
X1877275Y282534D03*
D21*
X1859275Y300534D03*
X1851275Y300534D03*
X1843275Y300534D03*
X1835275Y300534D03*
X1827275Y300534D03*
X1819275Y300534D03*
X1811275Y300534D03*
X1803275Y300534D03*
X1795275Y300534D03*
X1787275Y300534D03*
X1779275Y300534D03*
D22*
X1761275Y282534D03*
X1761275Y274534D03*
X1761275Y266534D03*
X1761275Y258534D03*
X1761275Y250534D03*
X1761275Y242534D03*
X1761275Y234534D03*
X1761275Y226534D03*
X1761275Y218534D03*
X1761275Y210534D03*
X1761275Y202534D03*
D10*
X1786731Y151253D03*
X1767681Y151253D03*
D11*
X1916113Y246503D03*
X1916113Y265553D03*
X1731963Y246900D03*
X1731963Y227850D03*
D10*
X1853406Y321513D03*
X1872456Y321513D03*
D23*
X1650575Y483438D03*
X1650575Y470738D03*
X1650575Y458038D03*
X1650575Y445338D03*
X1650575Y432638D03*
X1650575Y419938D03*
X1650575Y407238D03*
X1708575Y407238D03*
X1708575Y419938D03*
X1708575Y432638D03*
X1708575Y445338D03*
X1708575Y458038D03*
X1708575Y470738D03*
X1708575Y483438D03*
D19*
X1895475Y482325D03*
X1895475Y462325D03*
D24*
G36*
X1731456Y741492D02*
X1740648Y732300D01*
X1730750Y722402D01*
X1721558Y731594D01*
X1731456Y741492D01*
G37*
G36*
X1710950Y761998D02*
X1720142Y752806D01*
X1710244Y742908D01*
X1701052Y752100D01*
X1710950Y761998D01*
G37*
D25*
X1717358Y780300D03*
X1778318Y780300D03*
D20*
X1878488Y554875D03*
X1858488Y554875D03*
X1868963Y575513D03*
X1848963Y575513D03*
D10*
X1801813Y526300D03*
X1820863Y526300D03*
D20*
X1801338Y550113D03*
X1821338Y550113D03*
D13*
G36*
X1806204Y593470D02*
X1799133Y600541D01*
X1809032Y610440D01*
X1816103Y603369D01*
X1806204Y593470D01*
G37*
G36*
X1794978Y568775D02*
X1787907Y575846D01*
X1797806Y585745D01*
X1804877Y578674D01*
X1794978Y568775D01*
G37*
G36*
X1781508Y582245D02*
X1774437Y589316D01*
X1784336Y599215D01*
X1791407Y592144D01*
X1781508Y582245D01*
G37*
D20*
X1814038Y572338D03*
X1834038Y572338D03*
D13*
X1974850Y478675D03*
X1984375Y453275D03*
X1965325Y453275D03*
D20*
X1949925Y454863D03*
X1929925Y454863D03*
D26*
X1971538Y592975D03*
X1930538Y592975D03*
D20*
X1896588Y378663D03*
X1916588Y378663D03*
D19*
X1654175Y262300D03*
X1654175Y282300D03*
D20*
X1675925Y283413D03*
X1695925Y283413D03*
D15*
X1147763Y740713D03*
X1147763Y689713D03*
D10*
X1085850Y750138D03*
X1104900Y750138D03*
D19*
X1147763Y663300D03*
X1147763Y643300D03*
D20*
X1103788Y623138D03*
X1083788Y623138D03*
D11*
X1203325Y499313D03*
X1203325Y518363D03*
X1265238Y546938D03*
X1265238Y527888D03*
D15*
X1166813Y499213D03*
X1166813Y550213D03*
D19*
X990600Y679175D03*
X990600Y659175D03*
D27*
X1555975Y638175D03*
X1599975Y638175D03*
M02*
