G04 EAGLE Gerber X2 export*
%TF.Part,Single*%
%TF.FileFunction,Soldermask,Bot,1*%
%TF.FilePolarity,Negative*%
%TF.GenerationSoftware,Autodesk,EAGLE,8.6.3*%
%TF.CreationDate,2021-05-18T20:18:47Z*%
G75*
%MOMM*%
%FSLAX34Y34*%
%LPD*%
%AMOC8*
5,1,8,0,0,1.08239X$1,22.5*%
G01*
%ADD10P,2.089446X8X112.500000*%
%ADD11C,1.930400*%
%ADD12C,1.000000*%
%ADD13C,1.270000*%
%ADD14P,3.030692X8X202.500000*%
%ADD15C,1.676400*%
%ADD16C,1.524000*%
%ADD17C,1.778000*%
%ADD18C,2.095500*%
%ADD19P,1.948302X8X202.500000*%
%ADD20P,1.924489X8X112.500000*%
%ADD21P,1.924489X8X22.500000*%
%ADD22C,6.451600*%
%ADD23P,1.649562X8X112.500000*%
%ADD24P,1.484606X8X202.500000*%
%ADD25P,3.247170X8X22.500000*%
%ADD26C,3.200000*%
%ADD27P,1.924489X8X202.500000*%
%ADD28P,4.123906X8X22.500000*%
%ADD29P,3.680126X8X22.500000*%
%ADD30C,2.247900*%
%ADD31C,2.540000*%
%ADD32C,2.184400*%
%ADD33P,2.364373X8X202.500000*%
%ADD34C,1.422400*%
%ADD35C,2.300000*%


D10*
X1828800Y661555D03*
D11*
X1828800Y625995D03*
D12*
X1819513Y361638D02*
X1809513Y361638D01*
X1809513Y376638D02*
X1819513Y376638D01*
D13*
X1847850Y361200D02*
X1860550Y361200D01*
X1860550Y380250D02*
X1847850Y380250D01*
X1847850Y342150D02*
X1860550Y342150D01*
D14*
X2035175Y735850D03*
X2035175Y786650D03*
D15*
X1627632Y122281D02*
X1610868Y122281D01*
X1674368Y122281D02*
X1691132Y122281D01*
X1627632Y77831D02*
X1610868Y77831D01*
X1674368Y77831D02*
X1691132Y77831D01*
D16*
X1900237Y41795D02*
X1900237Y26555D01*
X1874837Y26555D02*
X1874837Y41795D01*
X1849437Y41795D02*
X1849437Y26555D01*
X1824037Y26555D02*
X1824037Y41795D01*
D17*
X1671638Y696798D02*
X1671638Y714578D01*
X1697038Y714578D02*
X1697038Y696798D01*
X1722438Y696798D02*
X1722438Y714578D01*
D18*
X1645603Y857135D02*
X1645603Y878090D01*
X1700213Y878090D02*
X1700213Y857135D01*
X1754823Y857135D02*
X1754823Y878090D01*
D19*
X1925638Y675525D03*
X1925638Y624725D03*
X1976438Y624725D03*
X1925638Y700925D03*
X1925638Y726325D03*
X1976438Y675525D03*
X1976438Y700925D03*
X1976438Y726325D03*
D20*
X1950200Y403225D03*
X1975600Y403225D03*
D21*
X1749425Y570750D03*
X1749425Y545350D03*
D22*
X1951838Y950450D03*
X1491838Y950450D03*
D23*
X1976438Y84975D03*
X1976438Y110375D03*
X1976438Y135775D03*
X1976438Y161175D03*
X1976438Y186575D03*
X1976438Y211975D03*
X1951038Y84975D03*
X1951038Y110375D03*
X1951038Y135775D03*
X1951038Y161175D03*
X1951038Y186575D03*
X1951038Y211975D03*
X1976438Y237375D03*
X1976438Y262775D03*
X1951038Y237375D03*
X1951038Y262775D03*
X1976438Y288175D03*
X1951038Y288175D03*
X1976438Y313575D03*
X1951038Y313575D03*
D24*
X1676400Y216738D03*
X1676400Y191338D03*
X1651000Y216738D03*
X1651000Y191338D03*
X1625600Y216738D03*
X1625600Y191338D03*
D25*
X870625Y119950D03*
X870625Y369950D03*
X1120625Y169950D03*
X1120625Y119950D03*
X1120625Y319950D03*
X1120625Y369950D03*
D26*
X855625Y419950D03*
X855625Y69950D03*
X1135625Y69950D03*
X1135625Y419950D03*
D27*
X1258888Y354850D03*
X1258888Y431050D03*
D21*
X1208088Y431050D03*
X1208088Y354850D03*
D28*
X313950Y283038D03*
X313950Y633038D03*
D29*
X663950Y583038D03*
X663950Y333038D03*
D26*
X251450Y845538D03*
X726450Y845538D03*
X251450Y70538D03*
X726450Y70538D03*
D30*
X781050Y934161D02*
X781050Y956640D01*
X831850Y956640D02*
X831850Y934161D01*
X882650Y934161D02*
X882650Y956640D01*
X933450Y956640D02*
X933450Y934161D01*
D31*
X877888Y545025D02*
X852488Y545025D01*
X852488Y595825D02*
X877888Y595825D01*
X877888Y710125D02*
X852488Y710125D01*
X852488Y760925D02*
X877888Y760925D01*
X1245850Y68800D02*
X1271250Y68800D01*
X1271250Y119600D02*
X1245850Y119600D01*
X1245850Y233900D02*
X1271250Y233900D01*
X1271250Y284700D02*
X1245850Y284700D01*
D26*
X55750Y1100000D03*
X53250Y202500D03*
X2094250Y1097500D03*
D32*
X1152525Y843800D03*
D33*
X1152525Y920000D03*
D16*
X1112520Y662825D02*
X1097280Y662825D01*
X1097280Y688225D02*
X1112520Y688225D01*
X1112520Y713625D02*
X1097280Y713625D01*
X1229043Y499313D02*
X1244283Y499313D01*
X1244283Y524713D02*
X1229043Y524713D01*
X1229043Y550113D02*
X1244283Y550113D01*
D32*
X1069975Y510825D03*
D33*
X1069975Y560825D03*
D34*
X1197801Y678700D02*
X1212025Y678700D01*
X1212025Y704100D02*
X1197801Y704100D01*
D20*
X965200Y786650D03*
X990600Y786650D03*
D26*
X2093250Y203500D03*
D27*
X1290638Y719975D03*
X1290638Y745375D03*
X1290638Y770775D03*
X1290638Y796175D03*
D35*
X100013Y788225D02*
X100013Y765225D01*
X100013Y738225D02*
X100013Y715225D01*
X100013Y447713D02*
X100013Y424713D01*
X100013Y474713D02*
X100013Y497713D01*
D26*
X1050000Y1100000D03*
X1360000Y202500D03*
D14*
X1403350Y603250D03*
X1403350Y654050D03*
M02*
